<svg xmlns="http://www.w3.org/2000/svg" viewBox="0 0 500 500"><g id="freepik--background-complete--inject-56"><polygon points="176.61 243.31 178.56 247.25 182.91 247.88 179.76 250.96 180.5 255.29 176.61 253.24 172.71 255.29 173.46 250.96 170.31 247.88 174.66 247.25 176.61 243.31" style="fill:#c7c7c7"></polygon><polygon points="384.98 191.72 386.92 195.66 391.28 196.29 388.13 199.37 388.87 203.7 384.98 201.65 381.08 203.7 381.83 199.37 378.68 196.29 383.03 195.66 384.98 191.72" style="fill:#c7c7c7"></polygon><polygon points="344.24 325.86 346.19 329.81 350.55 330.44 347.39 333.51 348.14 337.85 344.24 335.8 340.35 337.85 341.09 333.51 337.94 330.44 342.3 329.81 344.24 325.86" style="fill:#c7c7c7"></polygon><polygon points="245.19 191.57 246.4 194.01 249.09 194.4 247.14 196.3 247.6 198.98 245.19 197.72 242.78 198.98 243.24 196.3 241.3 194.4 243.99 194.01 245.19 191.57" style="fill:#c7c7c7"></polygon><polygon points="54.59 134.45 55.8 136.89 58.49 137.28 56.54 139.18 57 141.85 54.59 140.59 52.19 141.85 52.65 139.18 50.7 137.28 53.39 136.89 54.59 134.45" style="fill:#c7c7c7"></polygon><polygon points="430.56 285.33 431.76 287.77 434.45 288.16 432.51 290.06 432.97 292.74 430.56 291.47 428.15 292.74 428.61 290.06 426.67 288.16 429.36 287.77 430.56 285.33" style="fill:#c7c7c7"></polygon><polygon points="219.72 56.11 220.93 58.55 223.62 58.94 221.67 60.84 222.13 63.52 219.72 62.26 217.32 63.52 217.78 60.84 215.83 58.94 218.52 58.55 219.72 56.11" style="fill:#c7c7c7"></polygon><polygon points="159.33 222.44 160.07 223.95 161.74 224.19 160.53 225.37 160.82 227.02 159.33 226.24 157.84 227.02 158.13 225.37 156.92 224.19 158.59 223.95 159.33 222.44" style="fill:#c7c7c7"></polygon><polygon points="348.44 167.27 349.18 168.78 350.84 169.02 349.64 170.19 349.92 171.85 348.44 171.07 346.95 171.85 347.23 170.19 346.03 169.02 347.69 168.78 348.44 167.27" style="fill:#c7c7c7"></polygon><path d="M407.92,83.05c-4.24-1.83-9.62-4-13.83-.84-3.95,2.93-3.79,8.42-3,12.75,1,5.58,2.19,11.13,3.38,16.67s2.45,11.18,3.72,16.76c.72,3.15,1.44,6.29,2.17,9.44.37,1.57.74,3.14,1.1,4.72s.68,3.1,1.17,4.6c.15.48.92.27.85-.22-.39-2.71-1.15-5.39-1.75-8.06l-1.83-8q-1.8-8-3.56-16t-3.46-16c-1-4.54-2.69-10,0-14.25a7.84,7.84,0,0,1,6.83-3.39,22.59,22.59,0,0,1,8.17,2A.07.07,0,0,0,407.92,83.05Z" style="fill:#a6a6a6"></path><path d="M402.52,81.59s-7.16.15-8.5,5.94,6.86,16,38.05,11.61a86.58,86.58,0,0,0-16.86-23.25C403.92,64.86,394.93,74.14,402.52,81.59Z" style="fill:#ebebeb"></path><path d="M429.69,97.86a25.19,25.19,0,0,0-2.34-1.77l-2.3-1.64-1.75-1.21c0-.15-.07-.29-.11-.43L423,92c-.14-.56-.27-1.13-.39-1.69s-.25-1.13-.35-1.7a9,9,0,0,1-.27-1.84c0-.09-.17-.08-.14,0a6,6,0,0,1,.11,1l.09.8c.07.6.14,1.19.23,1.79s.18,1.09.29,1.63c.05.26.11.52.17.78-.79-.53-1.59-1-2.4-1.55-2.29-1.42-4.64-2.73-7-4,0,0,0,0,0-.07a54.84,54.84,0,0,1-2.7-9.23c0-.09-.15-.09-.14,0a32.67,32.67,0,0,0,2.23,9q-1.29-.66-2.58-1.29-3-1.45-6-2.79c-.08,0-.14.09-.06.13,3.41,1.67,6.75,3.49,10,5.39A53.36,53.36,0,0,0,409,90.67c-1.89.89-3.72,1.88-5.55,2.89-.08,0,0,.16.07.12a58.07,58.07,0,0,1,5.6-2.75c1.83-.8,3.73-1.43,5.59-2.15,1.78,1,3.56,2.08,5.32,3.15l-.27.09-1.32.5c-.86.35-1.71.75-2.55,1.16a41.5,41.5,0,0,0-5,2.82c-.07,0,0,.16.07.12,1.69-.88,3.39-1.72,5.14-2.46.83-.36,1.67-.68,2.52-1l1.32-.5a2,2,0,0,0,.7-.34l3.46,2.11q1.36.85,2.73,1.74c.92.6,1.81,1.3,2.78,1.82A.08.08,0,0,0,429.69,97.86Z" style="fill:#a6a6a6"></path><path d="M407.76,87a20.72,20.72,0,0,0-3.12,1c-1,.39-2,.82-3,1.25a.07.07,0,1,0,.06.12c1-.47,2-.89,3.08-1.27s2.05-.66,3-1.08A0,0,0,1,0,407.76,87Z" style="fill:#a6a6a6"></path><path d="M417.64,85.89c-.25-1-.51-2-.67-3.1a.07.07,0,1,0-.14,0c.23,1,.41,2,.63,3.06.12.51.24,1,.37,1.53a6.88,6.88,0,0,0,.4,1.41c0,.08.19,0,.18,0a8.75,8.75,0,0,0-.38-1.42Z" style="fill:#a6a6a6"></path><path d="M411.59,75.78c.12,1,.24,2.1.43,3.14.1.53.22,1,.34,1.57a6.7,6.7,0,0,0,.46,1.48,0,0,0,0,0,.08,0,9.59,9.59,0,0,0-.3-1.47q-.18-.75-.33-1.5c-.21-1.07-.42-2.13-.54-3.21C411.72,75.68,411.58,75.69,411.59,75.78Z" style="fill:#a6a6a6"></path><path d="M387.17,147.58c-.66-1.82-1.33-3.64-2-5.45q-2.06-5.38-4.27-10.71c-1.47-3.55-2.92-7.1-4.48-10.6a27.65,27.65,0,0,0-2.46-4.7,4.87,4.87,0,0,0-3.59-2.39c-3.82-.28-5.21,4-5.94,6.9,0,.09.11.11.14,0,.52-1.43,1.95-5.46,4.64-6,1.81-.37,3.57.51,5.6,4.73,5.07,10.51,13,32.46,13.57,33.87.32.75.86.57.65-.27C388.52,151.15,387.82,149.37,387.17,147.58Z" style="fill:#a6a6a6"></path><path d="M365,119s.19-11.58-5.13-4.4c-8.84,11.94-4.07,31.55-4.07,31.55s16.89-16.88,17.34-25.19C373.79,108.59,365,119,365,119Z" style="fill:#ebebeb"></path><path d="M370.16,123.29c-1.48.73-3,1.36-4.54,2l-2.16.91-1.48.59c.94-2.45,1.9-4.88,2.77-7.35,0-.1-.11-.15-.16-.07a50.61,50.61,0,0,0-2.31,4.74l-1.55-2.27a30.94,30.94,0,0,1-1.72-2.66.07.07,0,1,0-.12.07c.53.91,1,1.87,1.52,2.79s1,1.76,1.64,2.6c-.48,1.14-.93,2.3-1.35,3.46-.6-.88-1.28-1.71-1.84-2.62-.05-.08-.17,0-.12.07.65,1,1.15,2.09,1.77,3.1-.28.79-.56,1.58-.82,2.37-.47,1.46-.89,2.93-1.3,4.41a.28.28,0,0,0-.09.34c-.69,2.52-1.3,5.05-1.89,7.6a.07.07,0,0,0,.14,0c.59-2.52,1.34-5,2.15-7.49h0a2.74,2.74,0,0,1,.62-.3l.65-.34q.72-.37,1.44-.78c.94-.52,1.88-1,2.86-1.47.08,0,0-.16-.07-.12-1.15.55-2.32,1-3.51,1.47-.56.22-1.11.45-1.66.69l-.08,0c.43-1.28.87-2.56,1.32-3.82s.92-2.49,1.39-3.72c.67-.28,1.31-.64,2-1l2.19-1.06c1.47-.72,2.92-1.47,4.4-2.14C370.31,123.37,370.24,123.25,370.16,123.29Z" style="fill:#a6a6a6"></path><path d="M358.44,127.53l-.49-.78a18.61,18.61,0,0,1-.94-1.69c0-.08-.16,0-.12.08.29.57.6,1.14.9,1.71a11.44,11.44,0,0,0,1,1.65.13.13,0,0,0,.22-.13C358.83,128.08,358.63,127.81,358.44,127.53Z" style="fill:#a6a6a6"></path><path d="M371.54,120.25c-.88.38-1.78.69-2.67,1s-1.78.69-2.65,1.07c-.05,0,0,.1,0,.08.9-.3,1.79-.62,2.68-1s1.75-.74,2.66-1C371.66,120.36,371.62,120.22,371.54,120.25Z" style="fill:#a6a6a6"></path><path d="M398.24,130.05c-2.46-7.84-5.06-15.63-8-23.32-1.44-3.83-2.93-7.64-4.52-11.41a87.09,87.09,0,0,0-5.3-10.8,22.46,22.46,0,0,0-5.93-7A8.92,8.92,0,0,0,366,76.17c-3.35,1.35-5.57,4.28-7.36,7.3-2,3.39-3.71,7-5.47,10.48-.44.89-.88,1.78-1.31,2.68a.07.07,0,1,0,.12.06c1.71-3.47,3.53-6.89,5.51-10.22,1.82-3.08,3.66-6.4,6.81-8.31a9,9,0,0,1,4.87-1.41A8,8,0,0,1,373.05,78a18.22,18.22,0,0,1,5.72,6.33c4.07,6.73,6.86,14.17,9.65,21.49s5.41,15,7.84,22.54,4.79,15.28,7.57,22.78c.35.92.72,1.84,1.09,2.75.25.62,1.24.36,1-.29C403.19,145.79,400.71,137.92,398.24,130.05Z" style="fill:#a6a6a6"></path><path d="M358.41,84.45s2.3-9.59-3.76-10.86S336,97.07,338.5,127.7c0,0,25.53-20.48,32-35.84S365,76.64,358.41,84.45Z" style="fill:#ebebeb"></path><path d="M364.47,90.14c-3.25.87-6.56,1.47-9.81,2.36l1.28-2.58a30.36,30.36,0,0,0,1.76-3.63c0-.08-.1-.15-.15-.08a24.76,24.76,0,0,0-1.8,3.12c-.59,1.08-1.17,2.17-1.74,3.25-.89,1.68-1.75,3.37-2.6,5.06,0-.13-.07-.26-.11-.39-.14-.57-.3-1.14-.45-1.71L350,92.22c-.57-2.24-1.17-4.49-1.61-6.76,0-.09-.15,0-.13,0,.43,2.28.8,4.58,1.28,6.85.24,1.12.51,2.23.79,3.34.14.57.28,1.14.44,1.71.08.31.16.64.27,1-.14.26-.28.52-.41.79-1.81,3.65-3.46,7.37-5,11.13a3.45,3.45,0,0,0-.18-.51c-.12-.33-.25-.66-.38-1-.28-.72-.58-1.44-.89-2.15s-.59-1.34-.89-2-.74-1.49-1-2.26a.07.07,0,1,0-.12,0,20.84,20.84,0,0,1,.9,2.31c.26.7.51,1.4.77,2.09s.51,1.4.77,2.1c.13.33.25.67.38,1,.06.17.13.34.2.5a.89.89,0,0,0,.25.37c-.27.65-.55,1.3-.81,2-1.07,2.6-2.09,5.23-3.12,7.85,0,.08.08.15.12.06,1-2.39,2.05-4.76,3.12-7.12,1.21-.26,2.4-.67,3.58-1l3.76-1a.07.07,0,1,0,0-.13c-1.25.35-2.5.71-3.75,1s-2.33.57-3.45.93c.94-2.07,1.91-4.13,2.88-6.2l1.06-2.25a7.46,7.46,0,0,0,1.47-.34l1.71-.45c1.07-.29,2.13-.6,3.19-.9,2.2-.62,4.39-1.28,6.6-1.87a.07.07,0,1,0,0-.13c-2.22.56-4.45,1-6.68,1.58-1.08.25-2.15.5-3.23.77l-1.71.44c-.33.08-.67.15-1,.25.84-1.77,1.66-3.53,2.5-5.29a.19.19,0,0,0,.05-.1q1.22-2.56,2.46-5.13c.11-.23.23-.46.34-.7,3.4-.79,6.71-1.9,10.1-2.73C364.59,90.25,364.56,90.11,364.47,90.14Z" style="fill:#a6a6a6"></path><path d="M364.33,96.33l-.78.21a.06.06,0,1,0,0,.12l.79-.2A.07.07,0,1,0,364.33,96.33Z" style="fill:#a6a6a6"></path><path d="M362.58,96.8c-1,.26-2.09.52-3.14.76l-1.58.37a6.4,6.4,0,0,0-1.44.4.05.05,0,0,0,0,.1,5.87,5.87,0,0,0,1.49-.29l1.57-.39c1-.26,2.08-.54,3.12-.82C362.71,96.91,362.67,96.78,362.58,96.8Z" style="fill:#a6a6a6"></path><path d="M356.08,109a43.73,43.73,0,0,0-6.55,1.12,0,0,0,0,0,0,.05c2.18-.37,4.34-.82,6.54-1C356.17,109.11,356.17,109,356.08,109Z" style="fill:#a6a6a6"></path><path d="M344.91,102l-.21-.54c-.17-.41-.35-.81-.52-1.21-.34-.76-.69-1.51-1.05-2.26,0-.07-.15,0-.12,0,.31.79.62,1.59.91,2.39.15.39.28.79.43,1.18a3.47,3.47,0,0,0,.46,1.1.16.16,0,0,0,.27-.11A1.54,1.54,0,0,0,344.91,102Z" style="fill:#a6a6a6"></path><path d="M381.17,66.88c-1.54-1.65-3.54-3.85-6.08-3-2.1.7-2.48,3.13-2.46,5.05.07,5.94,1.53,11.84,2.77,17.62,2.62,12.22,5.3,24.43,8.43,36.52q1.29,5,2.68,10c.94,3.4,1.84,6.84,3,10.19a.26.26,0,0,0,.5-.15c-.75-2.92-1.63-5.82-2.42-8.73s-1.5-5.7-2.21-8.57q-2.16-8.68-4.13-17.43c-1.31-5.79-2.58-11.59-3.86-17.38-.64-2.9-1.28-5.79-1.91-8.69s-1.22-5.62-1.64-8.47c-.23-1.59-.41-3.2-.49-4.8a6.66,6.66,0,0,1,.51-3.45,3,3,0,0,1,3.7-1.28A8.35,8.35,0,0,1,381.08,67C381.14,67.05,381.24,67,381.17,66.88Z" style="fill:#a6a6a6"></path><path d="M380.23,66.15s-4.12-6.94,1.58-4.44c9.48,4.17,13.36,17.69,13.36,17.69S379.12,75,376,70.14C371.3,62.89,380.23,66.15,380.23,66.15Z" style="fill:#ebebeb"></path><path d="M390.77,74.6l-.56-.51a4.64,4.64,0,0,0-.17-.64c-.09-.32-.18-.64-.26-1-.15-.64-.29-1.28-.43-1.92,0-.08-.15,0-.13,0q.19.95.42,1.89l.21.94c0,.12,0,.27.08.41-.77-.71-1.55-1.4-2.35-2.07l-.7-.57a14.78,14.78,0,0,1-.7-2.44c-.22-.87-.44-1.75-.64-2.63,0-.09-.15,0-.13,0,.21.91.41,1.83.6,2.75a19.25,19.25,0,0,0,.47,2c-1.83-1.47-3.72-2.86-5.63-4.22-.06,0-.14.06-.08.11,1.19.89,2.36,1.82,3.51,2.77-1.74.06-3.46.28-5.19.48-.09,0-.09.15,0,.14,1.83-.2,3.68-.22,5.52-.3h0l2.73,2.3c.37.31.73.63,1.09.95h-.07l-.56.07-1.19.2c-.82.15-1.63.32-2.44.49a.07.07,0,0,0,0,.13c.8-.19,1.6-.34,2.41-.46l1.28-.18.56-.08.17,0,1.86,1.62c1.09,1,2.12,2,3.26,2.9a.06.06,0,1,0,.09-.09A37.54,37.54,0,0,0,390.77,74.6Z" style="fill:#a6a6a6"></path><path d="M385.05,67c-.07-.29-.14-.58-.22-.87a13.16,13.16,0,0,1-.42-1.86c0-.1-.16-.08-.13,0,.16.61.25,1.23.39,1.85.06.3.14.61.22.91,0,.14.08.28.11.42a1.57,1.57,0,0,0,.15.43.07.07,0,0,0,.12,0,1.16,1.16,0,0,0-.09-.41C385.14,67.35,385.1,67.2,385.05,67Z" style="fill:#a6a6a6"></path><path d="M384.16,70.61c-.54,0-1.08.16-1.61.26s-1.17.2-1.76.28a.07.07,0,1,0,0,.13c1.11-.22,2.26-.31,3.37-.56C384.24,70.7,384.22,70.6,384.16,70.61Z" style="fill:#a6a6a6"></path><path d="M388.54,69.5c.06,0,.07.21.09.28l.07.24c0,.18.09.35.13.53s.09.35.14.52a1.18,1.18,0,0,0,.14.46,0,0,0,0,0,.06,0,.54.54,0,0,0,0-.22l-.06-.25-.15-.52c0-.17-.09-.35-.14-.52l-.06-.24c0-.08-.09-.23-.06-.3S388.42,69.39,388.54,69.5Z" style="fill:#a6a6a6"></path><path d="M397.17,107.19c-3.64-1-7.35-3.1-11.2-1.79-3.18,1.08-4.47,4.29-4.72,7.4a28.9,28.9,0,0,0,.13,4.92q.3,3.3.7,6.59c.53,4.32,1.21,8.62,2.07,12.88.47,2.38,1,4.75,1.56,7.1a62.17,62.17,0,0,0,2,7.13.38.38,0,0,0,.73-.19c-.34-2-.92-4-1.37-6s-.9-4-1.31-6.06q-1.23-6.07-2.12-12.22c-.56-3.86-1.15-7.77-1.33-11.68-.14-2.79.07-6.19,2.4-8.11,3.56-2.93,8.58-.9,12.43.19C397.2,107.34,397.26,107.22,397.17,107.19Z" style="fill:#a6a6a6"></path><path d="M393.47,106.29S388,99.86,391.21,97c4.8-4.35,26,6.6,32.88,33.19,0,0-13.83-1.89-25-5.72s-16.86-12.24-14.06-16S393.47,106.29,393.47,106.29Z" style="fill:#ebebeb"></path><path d="M420.28,125.34a20.8,20.8,0,0,0-2.36-2c-.82-.69-1.64-1.37-2.47-2-1.63-1.3-3.25-2.6-4.89-3.88l-.81-.62c0-.1,0-.21-.05-.32l-.12-.8c-.08-.6-.2-1.2-.31-1.79-.22-1.17-.45-2.35-.57-3.53,0-.09-.15-.07-.14,0,.19,1.18.26,2.39.35,3.58,0,.58.07,1.17.14,1.76l.06.6c-2-1.53-4-3-6-4.43a3.1,3.1,0,0,0-.19-.87l-.3-1.16c-.22-.88-.45-1.76-.64-2.64a51.28,51.28,0,0,1-1-5.23c0-.08-.15-.06-.13,0,.21,1.76.38,3.54.7,5.28.16.86.33,1.71.53,2.56q.15.63.33,1.26l.09.38c-.63-.42-1.26-.84-1.91-1.24-2-1.21-3.95-2.36-6-3.51-.07,0-.15.07-.07.12a99,99,0,0,1,10,6.9l1.8,1.38-.39.09c-.5.12-1,.28-1.49.42-1,.28-2,.56-3,.86-2,.58-3.95,1.21-5.94,1.74-.09,0-.06.16,0,.14,2-.53,4.08-1,6.13-1.43q1.5-.34,3-.72a11.65,11.65,0,0,0,2.29-.62l3.68,2.81a4.56,4.56,0,0,0-.52.18l-1,.37-1.79.68c-1.23.48-2.46,1-3.7,1.45-.08,0,0,.16.06.13,1.26-.47,2.54-.89,3.81-1.3l1.83-.58.91-.28a1.84,1.84,0,0,0,.77-.33l3.13,2.39c1,.73,1.93,1.46,2.91,2.18a24.75,24.75,0,0,0,3.05,2.16C420.25,125.49,420.34,125.41,420.28,125.34Z" style="fill:#a6a6a6"></path><path d="M406.92,106.83a19.31,19.31,0,0,1,.42,2.62c.11.91.19,1.82.23,2.73a.09.09,0,1,0,.17,0c-.05-.9-.14-1.8-.26-2.69s-.31-1.78-.42-2.67C407.05,106.72,406.9,106.75,406.92,106.83Z" style="fill:#a6a6a6"></path><path d="M400.46,115a1,1,0,0,0-.72,0l-1.13.27c-.7.16-1.4.35-2.1.53-1.45.37-2.9.77-4.35,1.13-.09,0-.06.16,0,.13,1.38-.34,2.76-.64,4.13-1,.68-.17,1.35-.32,2-.5l1-.25a3.43,3.43,0,0,1,1.13-.22A.07.07,0,0,0,400.46,115Z" style="fill:#a6a6a6"></path><path d="M413.13,123c-.68.2-1.35.43-2,.67l-1,.35-.49.17a2.88,2.88,0,0,1-.63.2c-.1,0-.05.18,0,.13a2.93,2.93,0,0,1,.59-.2l.53-.17,1-.32c.67-.22,1.35-.43,2-.68C413.26,123.14,413.21,123,413.13,123Z" style="fill:#a6a6a6"></path><path d="M416.05,118.63l-.21-1.21-.45-2.36c0-.08-.15-.06-.13,0,.11.78.23,1.56.34,2.33.06.39.11.78.18,1.17l.09.54a1.44,1.44,0,0,0,.14.54.09.09,0,0,0,.16,0A2.8,2.8,0,0,0,416.05,118.63Z" style="fill:#a6a6a6"></path><polygon points="416.3 137.03 420.47 146.2 432.76 173.25 400.35 190.41 384.89 165.03 379.65 156.43 416.3 137.03" style="fill:#ebebeb"></polygon><polygon points="416.3 137.03 420.47 146.2 384.89 165.03 379.65 156.43 416.3 137.03" style="fill:#dbdbdb"></polygon><rect x="373.46" y="139.87" width="47.08" height="10.05" transform="translate(-21.66 202.55) rotate(-27.89)" style="fill:#ebebeb"></rect><polygon points="143.8 346.5 65.24 335.62 32.1 358.87 109.57 374.72 143.8 346.5" style="fill:#dbdbdb"></polygon><path d="M139,346.73l-31.33,25.91-72.6-14.8,32.06-22.31s21.22.23,22.23.42,10.68,2.9,10.68,2.9,13.2.69,14.11.88S139,346.73,139,346.73Z" style="fill:#fff"></path><path d="M100.08,338.85q-3.66,3.38-7.38,6.67l-7.47,6.58-7.55,6.48Q73.89,361.81,70,365q3.67-3.36,7.39-6.67l7.47-6.57,7.55-6.49Q96.23,342,100.08,338.85Z" style="fill:#dbdbdb"></path><path d="M131.53,347.43c-2.59-.67-5.19-1.37-7.77-2.09L116,343.15l-1.93-.55c-.32-.08-.65-.18-1-.24s-.67-.08-1-.12l-4-.45q-4-.45-8-1,4,.27,8,.63l4,.38c.34,0,.67,0,1,.11s.66.16,1,.24l2,.53c2.57.76,5.15,1.51,7.71,2.3S129,346.58,131.53,347.43Z" style="fill:#dbdbdb"></path><path d="M129.34,349.11c-2.6-.68-5.19-1.37-7.78-2.09l-7.74-2.19-1.93-.55-1-.25c-.32,0-.67-.07-1-.11l-4-.45q-4-.45-8-1,4,.27,8,.63l4,.38c.33,0,.66,0,1,.11s.67.16,1,.24l1.94.53c2.57.76,5.15,1.51,7.71,2.3S126.79,348.26,129.34,349.11Z" style="fill:#dbdbdb"></path><path d="M127.14,350.79q-3.81-1-7.6-2.05L112,346.61l-1.89-.54a11.87,11.87,0,0,0-1.88-.44l-3.9-.45q-3.91-.45-7.81-1c2.62.16,5.23.35,7.85.58,1.3.11,2.61.25,3.91.39a11.27,11.27,0,0,1,1.95.43l1.9.52c2.52.74,5,1.47,7.54,2.25S124.65,350,127.14,350.79Z" style="fill:#dbdbdb"></path><path d="M124.94,352.47q-3.75-1-7.49-2l-7.45-2.1c-1.24-.33-2.5-.75-3.71-1l-3.84-.45q-3.86-.45-7.69-1c2.58.16,5.15.35,7.73.57,1.29.11,2.57.24,3.86.39s2.53.64,3.78,1c2.48.74,5,1.45,7.43,2.22S122.49,351.65,124.94,352.47Z" style="fill:#dbdbdb"></path><path d="M122.74,354.15q-3.73-1-7.46-2l-7.43-2.1c-1.23-.33-2.49-.74-3.7-1s-2.55-.29-3.82-.45c-2.56-.29-5.11-.61-7.67-1,2.58.15,5.14.34,7.71.57,1.29.11,2.56.24,3.85.39s2.52.64,3.76,1c2.48.73,5,1.44,7.41,2.21S120.3,353.33,122.74,354.15Z" style="fill:#dbdbdb"></path><path d="M120.54,355.82c-2.48-.64-5-1.3-7.43-2l-7.41-2.09c-1.23-.33-2.48-.73-3.68-1s-2.55-.29-3.82-.45c-2.54-.3-5.09-.61-7.64-1q3.85.22,7.69.56c1.28.12,2.54.24,3.84.4s2.5.64,3.74,1c2.47.73,4.93,1.44,7.38,2.21S118.11,355,120.54,355.82Z" style="fill:#dbdbdb"></path><path d="M118.35,357.5c-2.46-.64-4.91-1.29-7.34-2l-7.32-2.06c-1.21-.33-2.44-.72-3.64-1s-2.5-.31-3.74-.47c-2.52-.29-5-.6-7.54-1,2.53.14,5,.33,7.58.55,1.27.12,2.51.21,3.8.42s2.46.64,3.68,1c2.43.71,4.86,1.42,7.28,2.17S115.94,356.7,118.35,357.5Z" style="fill:#dbdbdb"></path><path d="M116.15,359.18c-2.45-.64-4.9-1.29-7.34-2l-7.31-2.06c-1.22-.33-2.44-.72-3.65-1s-2.49-.31-3.74-.47c-2.52-.3-5-.61-7.54-1,2.53.14,5.06.33,7.58.55,1.27.12,2.51.21,3.8.41s2.46.65,3.68,1c2.43.72,4.87,1.42,7.28,2.18S113.74,358.38,116.15,359.18Z" style="fill:#dbdbdb"></path><path d="M114.38,361c-2.49-.65-5-1.32-7.45-2l-7.42-2.11-3.7-1c-1.2-.25-2.52-.33-3.79-.5-2.55-.3-5.1-.61-7.65-1,2.57.14,5.13.33,7.7.56,1.28.13,2.54.2,3.86.44s2.49.67,3.72,1c2.46.74,4.93,1.45,7.39,2.23S111.94,360.21,114.38,361Z" style="fill:#dbdbdb"></path><path d="M112.18,362.75c-2.48-.66-5-1.33-7.42-2l-7.4-2.12-3.69-1.06c-1.19-.26-2.52-.33-3.77-.5-2.55-.3-5.1-.61-7.64-1q3.84.23,7.68.56c1.28.14,2.53.19,3.85.46s2.48.66,3.71,1c2.46.74,4.92,1.45,7.36,2.24S109.75,361.93,112.18,362.75Z" style="fill:#dbdbdb"></path><path d="M110,364.6c-2.4-.67-4.81-1.33-7.2-2s-4.78-1.42-7.17-2.12L92,359.38a8.46,8.46,0,0,0-1.8-.37l-1.85-.21c-2.48-.3-5-.61-7.42-1,2.49.13,5,.32,7.46.54l1.87.18c.31,0,.62.07.94.13s.62.15.92.23c1.21.34,2.41.69,3.6,1.06,2.38.74,4.77,1.45,7.14,2.24S107.63,363.78,110,364.6Z" style="fill:#dbdbdb"></path><path d="M107.79,366.17c-2.44-.57-4.87-1.14-7.29-1.75s-4.84-1.24-7.26-1.85c-1.21-.29-2.43-.64-3.62-.89l-3.69-.62c-2.46-.44-4.92-.89-7.37-1.4,2.49.29,5,.63,7.43,1l3.71.57c1.26.25,2.44.58,3.66.9,2.41.64,4.83,1.27,7.23,2S105.4,365.45,107.79,366.17Z" style="fill:#dbdbdb"></path><path d="M72.23,359c-2.31-.51-4.6-1.08-6.88-1.68l-1.71-.43a12.16,12.16,0,0,0-1.72-.33l-3.5-.52-7-1.09c-2.33-.36-4.66-.77-7-1.15,2.35.29,4.69.55,7,.87l7,.93,3.5.5a13.38,13.38,0,0,1,1.77.31c.58.13,1.15.3,1.72.45Q68.89,357.8,72.23,359Z" style="fill:#dbdbdb"></path><path d="M74.31,356.92c-2.26-.38-4.51-.8-6.74-1.29-1.12-.22-2.24-.48-3.34-.66l-3.39-.53-6.77-1.11c-2.26-.36-4.51-.78-6.76-1.17,2.27.3,4.54.56,6.8.88l6.79,1a65.67,65.67,0,0,1,6.77,1.18C69.9,355.68,72.11,356.27,74.31,356.92Z" style="fill:#dbdbdb"></path><path d="M76.33,355.05c-2.24-.37-4.47-.78-6.69-1.26l-3.33-.68-3.37-.43-6.74-.9c-2.25-.29-4.5-.64-6.74-1,2.25.23,4.52.42,6.77.68l6.77.75,3.39.4c1.14.19,2.23.46,3.34.71C72,353.84,74.15,354.42,76.33,355.05Z" style="fill:#dbdbdb"></path><path d="M78.08,353.64c-2.23-.5-4.42-1.15-6.62-1.73a9.49,9.49,0,0,0-1.63-.35l-1.7-.17-3.41-.34q-6.81-.69-13.61-1.46,6.82.45,13.65,1l3.41.31,1.71.16a8.93,8.93,0,0,1,1.71.34A64.39,64.39,0,0,1,78.08,353.64Z" style="fill:#dbdbdb"></path><path d="M80,352c-2.23-.5-4.42-1.15-6.62-1.73a8.47,8.47,0,0,0-1.63-.35l-1.7-.18-3.41-.33q-6.81-.69-13.61-1.46,6.84.45,13.65,1l3.41.31,1.71.16a8.78,8.78,0,0,1,1.71.34A64.39,64.39,0,0,1,80,352Z" style="fill:#dbdbdb"></path><path d="M81.89,350.25c-2.24-.49-4.43-1.15-6.62-1.73a9.57,9.57,0,0,0-1.64-.34l-1.7-.18-3.4-.33c-4.54-.46-9.08-.94-13.62-1.47q6.84.45,13.66,1l3.41.3,1.7.17a8,8,0,0,1,1.71.34A63.67,63.67,0,0,1,81.89,350.25Z" style="fill:#dbdbdb"></path><path d="M83.79,348.56c-2.24-.5-4.42-1.15-6.62-1.73a9.6,9.6,0,0,0-1.64-.35l-1.7-.17-3.4-.34q-6.81-.68-13.62-1.46,6.84.45,13.66,1l3.41.31,1.7.16a8.89,8.89,0,0,1,1.72.35A64.33,64.33,0,0,1,83.79,348.56Z" style="fill:#dbdbdb"></path><path d="M86.33,347.08c-2.24-.5-4.43-1.15-6.62-1.73a9.6,9.6,0,0,0-1.64-.35l-1.7-.17-3.4-.34q-6.81-.69-13.62-1.46,6.84.45,13.66,1l3.41.31,1.7.16a8.63,8.63,0,0,1,1.71.34A63.72,63.72,0,0,1,86.33,347.08Z" style="fill:#dbdbdb"></path><path d="M88.79,345.62c-2.23-.5-4.42-1.15-6.62-1.73a8.47,8.47,0,0,0-1.63-.35l-1.7-.18L75.43,343q-6.81-.69-13.61-1.46,6.83.45,13.65,1l3.41.31,1.71.16a8.93,8.93,0,0,1,1.71.34A64.39,64.39,0,0,1,88.79,345.62Z" style="fill:#dbdbdb"></path><path d="M90.7,343.92c-2.24-.49-4.42-1.14-6.61-1.72a9.7,9.7,0,0,0-1.63-.35l-1.7-.15-3.41-.27c-4.54-.38-9.08-.77-13.61-1.21q6.83.31,13.65.78l3.4.25,1.71.13a8,8,0,0,1,1.71.34A66.93,66.93,0,0,1,90.7,343.92Z" style="fill:#dbdbdb"></path><path d="M92.6,342.23c-2.23-.49-4.41-1.14-6.6-1.72a7.94,7.94,0,0,0-1.62-.34l-1.7-.12-3.41-.21c-4.54-.29-9.08-.58-13.61-.93q6.82.18,13.64.5l3.41.18,1.7.1a8.59,8.59,0,0,1,1.72.34A67.48,67.48,0,0,1,92.6,342.23Z" style="fill:#dbdbdb"></path><path d="M94.5,340.54c-2.22-.49-4.4-1.14-6.59-1.72a7.84,7.84,0,0,0-1.61-.34l-1.7-.07-3.4-.1c-4.53-.13-9.07-.27-13.61-.46q6.81-.06,13.62,0l3.41.07,1.71.06a7.85,7.85,0,0,1,1.71.33A63.8,63.8,0,0,1,94.5,340.54Z" style="fill:#dbdbdb"></path><path d="M105.62,368.47q-3.72-.75-7.41-1.57l-7.39-1.67c-1.23-.27-2.46-.59-3.68-.84l-3.72-.7c-2.48-.49-5-1-7.42-1.55,2.51.35,5,.74,7.49,1.15l3.73.64c1.26.26,2.48.53,3.71.82,2.46.6,4.92,1.16,7.36,1.79S103.18,367.8,105.62,368.47Z" style="fill:#dbdbdb"></path><path d="M70.73,361q-3.74-.68-7.46-1.42L55.82,358l-3.71-.76-3.75-.63c-2.49-.44-5-.9-7.47-1.39,2.52.29,5,.63,7.53,1l3.76.56c1.27.23,2.5.48,3.74.75,2.48.54,5,1.05,7.42,1.63S68.28,360.34,70.73,361Z" style="fill:#dbdbdb"></path><rect x="67.9" y="182.68" width="2.09" height="13.37" transform="translate(-130.24 158.78) rotate(-61.27)" style="fill:#ebebeb"></rect><rect x="68.43" y="182.37" width="1.38" height="13.37" transform="translate(-129.88 158.78) rotate(-61.27)" style="fill:#c7c7c7"></rect><path d="M52.37,172.68a7.56,7.56,0,0,0,5.05,6.45,8.2,8.2,0,0,0,1.38.31,10,10,0,0,0,2.13,0l-.28-3a6.4,6.4,0,0,1-1.15,0,4.45,4.45,0,0,1-4.12-4.13c-.37-3.14,1.89-8.62,4.6-9.71.19-.09.79-.06,2.46,1.37.3.27.65.58,1,.95a6.15,6.15,0,0,0,.94.82l.78-1.3.85-1.26a5.28,5.28,0,0,1-.48-.45,18.27,18.27,0,0,0-2.36-2c-1.31-.91-2.86-1.54-4.35-.94C54.43,161.61,51.9,168.75,52.37,172.68Z" style="fill:#ebebeb"></path><path d="M60.65,176.45a6.4,6.4,0,0,1-1.15,0l-.7,3a10,10,0,0,0,2.13,0Z" style="fill:#c7c7c7"></path><path d="M63.2,160.75,62.44,164c.3.27.65.58,1,.95a6.15,6.15,0,0,0,.94.82l.78-1.3.85-1.26a5.28,5.28,0,0,1-.48-.45A18.27,18.27,0,0,0,63.2,160.75Z" style="fill:#c7c7c7"></path><path d="M97.18,174.88s-8,11.18-13.15,14.88-8.89,2.39-11,1.24l-3.83-2.1-3.84-2.1c-2.11-1.16-5.19-3.58-4.86-9.94S66,157.77,66,157.77Z" style="fill:#ebebeb"></path><path d="M90.59,181.45a.86.86,0,1,1,1.17-.34A.87.87,0,0,1,90.59,181.45Zm.75-1.37a.7.7,0,0,0-.67,1.23.7.7,0,1,0,.67-1.23Z" style="fill:#fff"></path><path d="M70.48,165.4a.86.86,0,1,1,1.17-.34A.87.87,0,0,1,70.48,165.4Zm.75-1.37a.71.71,0,0,0-1,.28.7.7,0,1,0,1.23.67A.71.71,0,0,0,71.23,164Z" style="fill:#fff"></path><path d="M65.55,177a.86.86,0,1,1,1.17-.34A.88.88,0,0,1,65.55,177Zm.75-1.37a.7.7,0,0,0-.67,1.23.7.7,0,0,0,1-.28A.71.71,0,0,0,66.3,175.65Z" style="fill:#fff"></path><path d="M66.55,160.68a.85.85,0,1,1,1.16-.34A.86.86,0,0,1,66.55,160.68Zm.74-1.36a.7.7,0,0,0-1,.27.7.7,0,0,0,1.23.68A.69.69,0,0,0,67.29,159.32Z" style="fill:#fff"></path><path d="M74.44,171.09a.86.86,0,1,1,1.17-.34A.86.86,0,0,1,74.44,171.09Zm.75-1.36a.7.7,0,0,0-1,.28.7.7,0,1,0,1-.28Z" style="fill:#fff"></path><path d="M78.23,183.56a.85.85,0,1,1,.82-1.5.84.84,0,0,1,.34,1.16A.86.86,0,0,1,78.23,183.56Zm.75-1.37a.7.7,0,0,0-.68,1.23.7.7,0,0,0,.68-1.23Z" style="fill:#fff"></path><path d="M80.18,168.16a.86.86,0,0,1,.82-1.51.86.86,0,0,1-.82,1.51Zm.75-1.37a.7.7,0,1,0,.28,1A.7.7,0,0,0,80.93,166.79Z" style="fill:#fff"></path><path d="M74,177.3a.86.86,0,1,1,1.17-.34A.85.85,0,0,1,74,177.3Zm.75-1.36a.7.7,0,1,0-.67,1.22.7.7,0,1,0,.67-1.22Z" style="fill:#fff"></path><path d="M61.58,182.21a.86.86,0,1,1,1.17-.34A.88.88,0,0,1,61.58,182.21Zm.75-1.37a.71.71,0,0,0-.95.28.7.7,0,0,0,.28.95.7.7,0,1,0,.67-1.23Z" style="fill:#fff"></path><path d="M89.45,174.7a.85.85,0,1,1,1.16-.34A.85.85,0,0,1,89.45,174.7Zm.75-1.36a.7.7,0,0,0-.68,1.22.7.7,0,1,0,.68-1.22Z" style="fill:#fff"></path><path d="M64.94,169.7a.86.86,0,1,1,1.16-.34A.86.86,0,0,1,64.94,169.7Zm.75-1.37a.7.7,0,1,0,.27.95A.69.69,0,0,0,65.69,168.33Z" style="fill:#fff"></path><path d="M81.55,175.88a.87.87,0,0,1-.34-1.17.85.85,0,0,1,1.16-.33.85.85,0,1,1-.82,1.5Zm.75-1.37a.7.7,0,0,0-1,.28.7.7,0,0,0,1.23.67A.71.71,0,0,0,82.3,174.51Z" style="fill:#fff"></path><path d="M69.65,185.16a.86.86,0,1,1,1.16-.34A.86.86,0,0,1,69.65,185.16Zm.75-1.37a.7.7,0,1,0,.27,1A.69.69,0,0,0,70.4,183.79Z" style="fill:#fff"></path><path d="M74.48,191.34a.87.87,0,0,1-.34-1.17.86.86,0,1,1,.34,1.17Zm.75-1.37a.7.7,0,0,0-.67,1.23.7.7,0,1,0,.67-1.23Z" style="fill:#fff"></path><path d="M85.15,182.55a.85.85,0,1,1,1.16-.34A.86.86,0,0,1,85.15,182.55Zm.74-1.37a.7.7,0,0,0-.67,1.23.7.7,0,1,0,.67-1.23Z" style="fill:#fff"></path><path d="M82.11,189.7a.86.86,0,1,1,1.17-.34A.87.87,0,0,1,82.11,189.7Zm.75-1.37a.7.7,0,0,0-.67,1.23.7.7,0,0,0,1-.28A.71.71,0,0,0,82.86,188.33Z" style="fill:#fff"></path><rect x="270.29" y="282.67" width="2.69" height="60.04" transform="translate(-106.83 480.99) rotate(-72.99)" style="fill:#dbdbdb"></rect><rect x="256.03" y="293.22" width="2.69" height="30.22" transform="translate(-112.75 464.27) rotate(-72.99)" style="fill:#a6a6a6"></rect><polygon points="268.33 313.08 212.38 295.97 216.68 255.73 272.63 272.85 268.33 313.08" style="fill:#dbdbdb"></polygon><path d="M245.91,285.45a3.22,3.22,0,0,1-4.15,2.46,4,4,0,0,1-2.66-4.54,3.22,3.22,0,0,1,4.15-2.46A4,4,0,0,1,245.91,285.45Z" style="fill:#fff"></path></g><g id="freepik--character-3--inject-56"><path d="M404.68,383c1.58-1.23,31.62-46.27,31.69-48.71,0-.92-6.29-5.68-14.06-11.21q-2.52-1.8-5.21-3.65c-2.1-1.46-4.23-2.94-6.31-4.35-9.35-6.36-17.71-11.78-17.71-11.78l-19.64,29.26,17.66,11.84,6.37,4.27,5.38,3.39s-3.79,22.39-3.56,25.07S403.11,384.17,404.68,383Z" style="fill:#f7a9a0"></path><path d="M404.68,383c1.58-1.23,31.62-46.27,31.69-48.71,0-.92-6.29-5.68-14.06-11.21q-2.52-1.8-5.21-3.65c-2.1-1.46-4.23-2.94-6.31-4.35L391.1,344.35l6.37,4.27,5.38,3.39s-3.79,22.39-3.56,25.07S403.11,384.17,404.68,383Z" style="fill:#fff"></path><path d="M404.65,383.13c1-.8,14-19.9,23-34,2.1-3.27,4-6.28,5.48-8.73,2.05-3.38,3.35-5.7,3.37-6.21,0-1.13-9.34-8-19.37-14.95l-19.74,29.4,5.41,3.41s-3.81,22.52-3.59,25.22S403.07,384.35,404.65,383.13Z" style="fill:#FFC727"></path><path d="M403.28,381.27c4.88-7.72,25.28-38.38,30.69-45.64,0-.05.08,0,0,0-4.66,7.75-25.31,38.24-30.61,45.68C403.29,381.51,403.17,381.43,403.28,381.27Z" style="fill:#263238"></path><path d="M400.42,352c1.43-3.36,4.33-6.71,8-7.57.14,0,.18.17.09.25a50,50,0,0,0-7.69,7.56A.23.23,0,0,1,400.42,352Z" style="fill:#263238"></path><path d="M400.28,355c1.43-3.36,4.33-6.7,8-7.57.14,0,.19.17.09.25a50.9,50.9,0,0,0-7.69,7.56A.23.23,0,0,1,400.28,355Z" style="fill:#263238"></path><path d="M400.14,358c1.43-3.36,4.33-6.71,8-7.57.14,0,.19.17.09.24a50.49,50.49,0,0,0-7.69,7.57A.23.23,0,0,1,400.14,358Z" style="fill:#263238"></path><path d="M400,361c1.43-3.36,4.33-6.71,8-7.57.14,0,.19.17.09.24a51,51,0,0,0-7.69,7.57A.23.23,0,0,1,400,361Z" style="fill:#263238"></path><path d="M395,354.37c3.06-1,5.56-3.32,8.12-5.18a.45.45,0,0,0-.06-.72.1.1,0,0,0-.06-.14,19.14,19.14,0,0,0-9.91,0c-1.88.55-4.07,2.25-3.23,4.5S393.19,355,395,354.37Zm-2.91-.84c-3.63-1.66.44-4,1.84-4.38a20,20,0,0,1,2.77-.45c1.93-.2,3.86-.13,5.79-.14-1.31.83-2.54,1.77-3.82,2.65C397.11,352.27,394.06,354.44,392.06,353.53Z" style="fill:#263238"></path><path d="M405.07,335.32c-2.34-.52-3.73,1.88-4,3.81a19.08,19.08,0,0,0,1.31,9.83.1.1,0,0,0,.15,0,.45.45,0,0,0,.72,0c1.49-2.78,3.43-5.58,4-8.74C407.6,338.37,407.29,335.81,405.07,335.32Zm-.44,8.95c-.7,1.39-1.47,2.74-2.12,4.15-.25-1.91-.58-3.81-.64-5.75a21.78,21.78,0,0,1,.07-2.8c.15-1.44,1.95-5.79,4.08-2.42C407.2,339.31,405.46,342.62,404.63,344.27Z" style="fill:#263238"></path><path d="M294.38,201.43s46.69,68.24,55.22,74.39,58.1,36.26,58.1,36.26L385.5,345s-52.35-33.18-62.43-43c-21.64-21-53.3-80.36-53.3-80.36Z" style="fill:#263238"></path><path d="M380.64,338.75c.48-.91,1.16-1.79,1.73-2.65s1.32-1.93,2-2.9c1.23-1.89,2.49-3.75,3.77-5.61,2.58-3.73,5.24-7.42,8-11l2.28-3c.81-1,1.69-2.07,2.46-3.15.05-.08.15,0,.09.07-1.33,1.86-2.51,3.86-3.77,5.77s-2.51,3.73-3.8,5.58c-2.58,3.73-5.25,7.41-8,11-.76,1-1.5,2-2.26,3-.4.53-.82,1-1.23,1.58s-.67,1-1.08,1.41A.07.07,0,0,1,380.64,338.75Z" style="fill:#455a64"></path><path d="M397,312.34c-3.9-1.94-20.35-12.48-24.65-15.07s-8.52-5.13-12.79-7.68c-4.08-2.45-8.34-4.74-12-7.8s-6.23-6.68-8.87-10.41L330,259.1q-8.7-12.27-17.43-24.51c-5.85-8.18-11.69-16.36-17.61-24.48l-2.2-3c-.06-.08-.19,0-.13.08q8.52,12.41,17.18,24.73t17.46,24.79Q331.6,262.86,336,269a94.53,94.53,0,0,0,8.38,10.91c3.18,3.31,7.06,5.7,11,8.05q6.49,3.91,13,7.81l12.91,7.73c4.11,2.47,14.44,8.46,15.4,9.18C396.86,312.88,397.25,312.48,397,312.34Z" style="fill:#455a64"></path><path d="M475.39,246.25c0-2-17.62-53.19-19.53-54.72-.72-.59-8.33,1.55-17.44,4.38-2,.61-4,1.16-6.06,1.92-2.54.95-5.08,1.93-7.51,2.9-10.58,4.2-19.29,8.15-19.29,8.15l11,32.41,19.23-7.18,7.89-2.94,5.95-2.22s15.52,16.58,17.78,18S475.41,248.24,475.39,246.25Z" style="fill:#f7a9a0"></path><path d="M475.39,246.25c0-2-17.62-53.19-19.53-54.72-.72-.59-8.33,1.55-17.44,4.38-2,.61-4,1.16-6.06,1.92-2.54.95-5.08,1.93-7.51,2.9,3.35,10,8.07,24.41,11,33.38l7.89-2.94,5.95-2.22s15.52,16.58,17.78,18S475.41,248.24,475.39,246.25Z" style="fill:#fff"></path><path d="M475.52,246.38c0-2-17.73-53.49-19.64-55-.89-.71-12,2.6-23.63,6.34l11.42,33.52,6-2.23s15.59,16.68,17.87,18.14S475.53,248.38,475.52,246.38Z" style="fill:#FFC727"></path><path d="M473.2,246.35C470,237.79,458,203,455.51,194.28c0-.07,0-.09.05,0,3.34,8.41,15.08,43.32,17.78,52C473.4,246.48,473.27,246.53,473.2,246.35Z" style="fill:#263238"></path><path d="M448.16,230.86c-1.8-3.18-2.71-7.51-1.18-10.94,0-.13.24,0,.25.08a50.24,50.24,0,0,0,1.35,10.7A.23.23,0,0,1,448.16,230.86Z" style="fill:#263238"></path><path d="M450.48,232.8c-1.8-3.18-2.71-7.51-1.18-10.94.06-.13.24,0,.25.08a50.24,50.24,0,0,0,1.35,10.7A.23.23,0,0,1,450.48,232.8Z" style="fill:#263238"></path><path d="M452.8,234.74c-1.8-3.17-2.71-7.51-1.18-10.93.06-.14.24-.05.25.07a50.08,50.08,0,0,0,1.35,10.7A.23.23,0,0,1,452.8,234.74Z" style="fill:#263238"></path><path d="M455.12,236.69c-1.8-3.18-2.71-7.51-1.18-10.94.06-.13.24-.05.25.08a50.24,50.24,0,0,0,1.35,10.7A.23.23,0,0,1,455.12,236.69Z" style="fill:#263238"></path><path d="M446.77,236.65c1.05-3.05.73-6.44.81-9.6,0-.33-.35-.46-.61-.38a.09.09,0,0,0-.15,0,19.13,19.13,0,0,0-6,7.9c-.7,1.83-.67,4.6,1.62,5.3S446.17,238.42,446.77,236.65Zm-2.43,1.8c-3.52,1.88-2.94-2.79-2.37-4.12a21.78,21.78,0,0,1,1.33-2.47,55.86,55.86,0,0,1,3.39-4.69c-.13,1.55-.13,3.1-.2,4.65C446.4,233.67,446.28,237.41,444.34,238.45Z" style="fill:#263238"></path><path d="M437.75,217.07c-1.84,1.55-.77,4.11.59,5.51a19.13,19.13,0,0,0,8.61,4.91.09.09,0,0,0,.12-.09c.27,0,.55-.3.41-.59-1.31-2.88-2.36-6.12-4.51-8.51C441.71,216.91,439.48,215.6,437.75,217.07Zm6.85,5.78c.68,1.4,1.28,2.82,2,4.2-1.68-1-3.39-1.85-5-3a20.48,20.48,0,0,1-2.19-1.75c-1-1-3.42-5.06.56-4.72C442.21,217.79,443.79,221.18,444.6,222.85Z" style="fill:#263238"></path><path d="M269.77,221.71s10.9,9.49,22.65,9.34c0,0,52.46,21.39,72.07,23.77,13.95,1.69,67.79-16.84,67.79-16.84l-11.81-36.06S374,220.21,368.88,220.33c-6.19.14-38-9.46-38.69-10.75A38.67,38.67,0,0,0,307,191Z" style="fill:#263238"></path><path d="M296.28,203.82a13,13,0,0,0,7.9,2.62,16.08,16.08,0,0,0,8.68-2.81c.45-.28,1,.33.52.66-5.05,3.83-12.6,4.42-17.29-.28C296,203.9,296.16,203.73,296.28,203.82Z" style="fill:#455a64"></path><path d="M285,231.24a35.43,35.43,0,0,1,7.32-1.14c2.55-.23,5.1-.17,7.66-.27.09,0,.12.15,0,.16-2.53.3-5,.8-7.55,1.06a41.91,41.91,0,0,1-7.42.39C284.9,231.43,284.87,231.27,285,231.24Z" style="fill:#455a64"></path><path d="M276.34,221.2c1.14,1,2.33,1.86,3.5,2.78s2.16,1.81,3.29,2.62A7,7,0,0,0,286.8,228c.73.05,1.47,0,2.2,0,.39,0,.8,0,1.21,0l-.46-.39-1.28-1.11c-1-.82-1.89-1.65-2.82-2.48-1.83-1.64-3.65-3.32-5.58-4.86-.07-.06,0-.18.1-.13,2,1.46,4,2.86,5.93,4.38.95.75,5.37,4.66,5.66,5s.6.61.88.93a5.37,5.37,0,0,1,.84,1c0,.1-.06.17-.15.14h0a5,5,0,0,1-1.09-.74c-.34-.26-.68-.52-1-.8l-.35-.32c-.66.1-1.37.08-2,.12s-1.43.11-2.14.1a6.6,6.6,0,0,1-3.69-1.2,23.53,23.53,0,0,1-3.19-2.79c-1.2-1.16-2.36-2.36-3.59-3.49C276.17,221.26,276.26,221.14,276.34,221.2Z" style="fill:#455a64"></path><path d="M424.82,238.86c-.44-.93-.74-2-1.09-3s-.76-2.21-1.15-3.31c-.77-2.11-1.51-4.24-2.23-6.37q-2.19-6.45-4.06-13c-.35-1.2-.68-2.41-1-3.61s-.65-2.59-1.06-3.85c0-.1.08-.13.12,0,.68,2.18,1.58,4.32,2.36,6.47s1.49,4.25,2.2,6.39c1.45,4.3,2.8,8.64,4,13,.33,1.2.7,2.4,1,3.6.19.64.35,1.28.53,1.92s.38,1.13.49,1.71C425,238.92,424.86,239,424.82,238.86Z" style="fill:#455a64"></path><path d="M324.08,243c-8.25-3.31-16.59-6.34-24.89-9.51-2.37-.91-4.74-1.82-7.13-2.68a.08.08,0,0,0-.06.14,222.06,222.06,0,0,0,24.72,10c2.41.82,4.84,1.54,7.29,2.24C324.11,243.23,324.18,243.07,324.08,243Z" style="fill:#455a64"></path><path d="M413.14,211q-11.7,4.41-23.48,8.63c-3.94,1.41-7.9,2.8-11.85,4.17-1.92.66-3.83,1.39-5.81,1.86a16.34,16.34,0,0,1-6.31.18,83.49,83.49,0,0,1-11.62-3.16q-5.82-1.83-11.54-3.94T331,214.18a16.86,16.86,0,0,1-2.47-1.16,6.59,6.59,0,0,1-1.93-2.2,38.38,38.38,0,0,0-18.7-15.11q-1.14-.44-2.31-.81c-.09,0-.13.12,0,.15a38.64,38.64,0,0,1,16.89,11,37.27,37.27,0,0,1,3.19,4c1,1.4,1.68,2.82,3.24,3.61,1.79.92,3.7,1.65,5.56,2.43s3.64,1.49,5.48,2.2q5.69,2.19,11.48,4.1c3.89,1.27,7.82,2.53,11.8,3.48a21.91,21.91,0,0,0,5.81.7,20.14,20.14,0,0,0,5.68-1.2c4-1.33,7.95-2.77,11.92-4.19q11.84-4.22,23.59-8.69l3-1.15C413.41,211.25,413.33,211,413.14,211Z" style="fill:#455a64"></path><path d="M248.48,149.49c13.47,13.13,36.2,15.5,55.77.11,17.8-14,22.33-40.53,13.61-53-9.26-13.25-26.67-13.35-34.59-4.08-7.64,9-7.57,20.29-15.37,25.46-3.73,2.48-11.28,3-16.95,6.36C244.62,128.15,239.83,141.05,248.48,149.49Z" style="fill:#263238"></path><path d="M323.29,111A45.5,45.5,0,0,1,319,133.47a50.58,50.58,0,0,1-14.39,17.93,43.47,43.47,0,0,1-21,9.29A43,43,0,0,1,261,157.57,45,45,0,0,0,283.51,160a42.09,42.09,0,0,0,10.86-3.3,46,46,0,0,0,9.63-6,55.63,55.63,0,0,0,8.14-7.95,49.12,49.12,0,0,0,6.16-9.57,48.39,48.39,0,0,0,3.8-10.75A43.45,43.45,0,0,0,323.29,111Z" style="fill:#263238"></path><path d="M284.85,89.64a22.38,22.38,0,0,0-4.8,5.2,30.37,30.37,0,0,0-3.26,6.24c-.83,2.23-1.73,4.43-2.71,6.62a31.37,31.37,0,0,1-3.63,6.23,20.75,20.75,0,0,1-2.46,2.69,13.89,13.89,0,0,1-3.1,2,60,60,0,0,1-6.74,2.45,27.9,27.9,0,0,0-6.4,2.93,19.35,19.35,0,0,0-5.14,4.83,18.62,18.62,0,0,1,4.89-5.2,28.11,28.11,0,0,1,6.41-3.22c2.23-.86,4.52-1.52,6.61-2.55a13,13,0,0,0,2.89-1.87,19.16,19.16,0,0,0,2.3-2.6c2.89-3.69,4.54-8.2,6.42-12.55a30.28,30.28,0,0,1,3.55-6.24A21.06,21.06,0,0,1,284.85,89.64Z" style="fill:#263238"></path><path d="M263.54,168.2c-3.68,5.06-25.47,19.42-41.75,22.14-6,1-29.11-9.19-34.39-12.65-6.19-4.06,1.3-20,5.58-19.17,5.34,1,27.28,10.65,32.21,11.42,6,.94,21.47-5.67,34.06-8.1C265.73,160.59,266.38,164.3,263.54,168.2Z" style="fill:#f7a9a0"></path><path d="M187.4,177.69c-2-1.18-10.77-7.4-12.82-9.67s-7.47-9.25-5.88-11,3.33.17,3.33.17-1.82-3.31-.07-4.92,4.38,1.45,4.38,1.45-1.63-3.53.24-5,4,2,4,2-1.63-3.16.42-3.73c2.46-.7,4.82,5.47,7.27,7.81.55.53,12,10,12,10Z" style="fill:#f7a9a0"></path><path d="M180.37,150.46c1.75,4.53,3.3,6.22,7.13,9.07.07.06,0,.18-.08.13-4-2.46-6.25-4.28-7.27-9.12C180.1,150.3,180.29,150.25,180.37,150.46Z" style="fill:#263238"></path><path d="M176.2,153.37c2.23,4.55,3.89,6.39,7.68,9.67.06.05,0,.14-.07.1-4-2.91-6.19-4.78-7.82-9.62C175.92,153.3,176.1,153.16,176.2,153.37Z" style="fill:#263238"></path><path d="M172.23,157.36c2.47,4.25,4.2,6.34,8.3,9.06a.09.09,0,0,1-.1.15,16.28,16.28,0,0,1-8.32-9.12C172,157.16,172.07,157.09,172.23,157.36Z" style="fill:#263238"></path><path d="M204.21,164.78a59.4,59.4,0,0,0-4.72-7.4c-1.8-2.06-11.33-7.27-12.58-5.28-1.6,2.58,3.31,6.67,6,8.36,0,0-3.72,6-.84,9.66S204.21,164.78,204.21,164.78Z" style="fill:#f7a9a0"></path><path d="M186.7,153c.23,3.41,3.88,5.4,6.34,7.24a.28.28,0,0,1,0,.46c-1.39,2.6-2.6,6.67-1.19,9.45,0,.08-.06.15-.12.07-1.92-2.77-1.06-6.87.65-9.62-2.56-1.84-6.12-4-5.72-7.6A0,0,0,0,1,186.7,153Z" style="fill:#263238"></path><path d="M194.22,182.1s19.3,9.09,27.37,8.59a30.81,30.81,0,0,0,6.38-1.44c15.84-4.45,29.63-14.79,34-18.71,4.58-4.14,5.64-9.93-.93-9.26q-.74.09-1.59.27c-8.29,1.79-31.43,8.4-33.67,8.16S205,161.47,205,161.47Z" style="fill:#dbdbdb"></path><path d="M228,189.25c15.84-4.45,29.63-14.79,34-18.71,4.58-4.14,5.64-9.93-.93-9.26Z" style="fill:#263238"></path><path d="M198.91,183c1.76-3.06,3.41-6.19,5.05-9.32.82-1.57,1.65-3.15,2.43-4.74s1.64-3.24,2.28-4.94a.08.08,0,0,0-.14-.07c-1,1.5-1.83,3.13-2.69,4.71s-1.61,3-2.39,4.59c-1.62,3.2-3.24,6.4-4.74,9.66C198.65,183.05,198.84,183.15,198.91,183Z" style="fill:#263238"></path><path d="M261.15,201.52l7.59,21.63S302.1,211.27,317.91,195c0,0-29.46-30.1-46.39-36.82-.39-.16-.77-.29-1.14-.41a1.19,1.19,0,0,0-.22-.08c-7.55-2.48-12.58,2.21-14.73,7.66-.53,1.35-3.93,21.48-2,27.46C255.14,198.08,261.15,201.52,261.15,201.52Z" style="fill:#dbdbdb"></path><path d="M315.67,192.77c-13.23,14.57-37.46,24.09-47.88,27.68l-1-2.83c9.66-3.38,34-12.87,46.72-27C314.34,191.46,315.06,192.17,315.67,192.77Z" style="fill:#c7c7c7"></path><path d="M311.78,189c-6.37,7-16,13.55-28.75,19.65a183.14,183.14,0,0,1-16.91,7.05l-.67-1.9c10.58-3.82,32.73-13,44.88-26.18C310.84,188.08,311.32,188.55,311.78,189Z" style="fill:#c7c7c7"></path><path d="M278.48,166.83c5.28,12.13,13.7,40.69,12.23,46.52-2,7.86-22.06,25.35-27.45,29.24-2.35,1.69-14.53-13.27-13.87-16.3s19.83-15.7,21-17.71-.74-24.06-1.82-35.23C267.18,159.25,276.4,162,278.48,166.83Z" style="fill:#f7a9a0"></path><path d="M236.14,238.34c-3,2-8.68,2-7.95,4.61.65,2.32,4.55,1.89,4.55,1.89s-4.24,1.9-2.83,4.19,5.58.95,5.58.95-3.81,2-2.24,4.13,5.53,1.16,5.53,1.16-.75,1.11,1,2.16c2.58,1.49,8.55-.89,11.38-2.87s11.7-11.33,13-12.79l-12.57-18.24s-6.65,1.21-9.95,2.23-13.22,7.42-11.8,10,8.35-2.06,10.3-2.83,2.45-.44,1.84.59A43.28,43.28,0,0,1,236.14,238.34Z" style="fill:#f7a9a0"></path><path d="M232.91,244.73c5.39-1,7.57-2.33,11.55-6,.07-.07.2,0,.12.11-3.56,3.92-6.06,6-11.64,6.12C232.67,245,232.65,244.78,232.91,244.73Z" style="fill:#263238"></path><path d="M235.25,250c5.51-1.5,7.89-3,12.33-6.46.07-.05.16.05.1.11-4.07,3.81-6.61,5.84-12.31,6.62C235.11,250.27,235,250,235.25,250Z" style="fill:#263238"></path><path d="M238.82,255.21c5.23-1.84,7.92-3.31,11.79-7.27a.1.1,0,1,1,.15.13,18.39,18.39,0,0,1-11.86,7.3C238.56,255.43,238.49,255.33,238.82,255.21Z" style="fill:#263238"></path><path d="M253,221l15.71,19.22s21.81-18,23-24.74c1.73-9.82-6.7-36.19-12.05-47.58s-13.08-7.07-12.08,4.35c1,11.1,2.3,33.49,2,34.66C269.3,208.42,253,221,253,221Z" style="fill:#dbdbdb"></path><path d="M269.89,204.87c0-.65-.15-3.65-.17-4.16-.07-2.23-.14-4.46-.25-6.69s-.2-4.45-.37-6.67-.38-4.06-.51-6.91c0-.1-.15-.09-.15,0,0,1.34.05,2.72.09,4.1l-.12-.35a13.32,13.32,0,0,1-.71-1.81c0-.1-.18,0-.14.06.23.6.88,3.19,1,3.37,0,.36,0,.73,0,1.08,0,2.11.11,4.22.18,6.33s.17,4.2.26,6.31c0,1,.63,6.9.06,7.74a36.43,36.43,0,0,1-4.48,4.28.08.08,0,1,0,.09.12c.87-.76,1.86-1.38,2.76-2.09a8.38,8.38,0,0,0,2-2A4.66,4.66,0,0,0,269.89,204.87Z" style="fill:#263238"></path><path d="M292.11,209.5c-.1-1.2-.22-2.39-.37-3.59-.29-2.38-.74-4.76-1.24-7.11A116.72,116.72,0,0,0,286.93,186a23.69,23.69,0,0,0-.36-3c-.2-1.17-.41-2.34-.62-3.51,0-.1-.16-.06-.15,0,.24,1.19.4,2.38.54,3.58l.18,1.71a74.83,74.83,0,0,0-3-7.49c0-.06-.12,0-.09,0,1.61,4.51,3.2,9,4.46,13.64a142.5,142.5,0,0,1,3.06,14,82.1,82.1,0,0,1,1.31,8.24c0,.1.17.09.16,0C292.23,212,292.21,210.74,292.11,209.5Z" style="fill:#263238"></path><path d="M271.46,236c-2.14-2.81-4.37-5.55-6.61-8.28-1.13-1.37-2.26-2.74-3.43-4.08s-2.34-2.78-3.65-4a.08.08,0,0,0-.12.1c1,1.51,2.16,2.9,3.29,4.32s2.18,2.67,3.29,4c2.31,2.74,4.63,5.48,7,8.13C271.37,236.2,271.54,236.07,271.46,236Z" style="fill:#263238"></path><path d="M266.45,158.11c0,.89-2.95,7.24-6.87,7.85-1.27.2-2.88-7.21-2.88-7.21l-3.07-6.83,8.85-8.27S266.46,157.74,266.45,158.11Z" style="fill:#f7a9a0"></path><path d="M253.63,151.92l3.07,6.83a16.59,16.59,0,0,0,7.16-10.21c-.75-2.69-1.37-4.89-1.37-4.89Z" style="fill:#263238"></path><path d="M243.23,138.56c-3,12.78,4.26,16.05,7,16.7,2.5.59,11.1,2.29,15.44-10.1s-.63-17.85-6.28-19.51S246.27,125.78,243.23,138.56Z" style="fill:#f7a9a0"></path><path d="M246.05,137.18a8.9,8.9,0,0,0,.9,0,1.47,1.47,0,0,0,.92-.22.45.45,0,0,0,.09-.56,1.13,1.13,0,0,0-1.08-.45,1.64,1.64,0,0,0-1.15.42A.5.5,0,0,0,246.05,137.18Z" style="fill:#263238"></path><path d="M255,138.94c-.3-.09-.56-.22-.84-.33a1.43,1.43,0,0,1-.8-.5.47.47,0,0,1,.09-.56,1.14,1.14,0,0,1,1.17-.09,1.75,1.75,0,0,1,1,.77A.5.5,0,0,1,255,138.94Z" style="fill:#263238"></path><path d="M252.7,141.92s.06.06.06.09c-.2.88-.27,1.91.47,2.35,0,0,0,.06,0,0C252.27,144.09,252.38,142.72,252.7,141.92Z" style="fill:#263238"></path><path d="M253.66,141.15c1.44.16,1,3-.32,2.87S252.46,141,253.66,141.15Z" style="fill:#263238"></path><path d="M254.2,141.39c.23.2.43.52.72.59s.65-.17.92-.42c0,0,0,0,0,0-.08.54-.37,1.07-1,1.07s-.86-.55-.91-1.12C254,141.44,254.11,141.31,254.2,141.39Z" style="fill:#263238"></path><path d="M247.22,140.69s-.07,0-.08.07c-.09.89-.35,1.89-1.2,2.07,0,0,0,0,0,0C246.94,142.88,247.27,141.55,247.22,140.69Z" style="fill:#263238"></path><path d="M246.56,139.66c-1.41-.31-1.92,2.53-.62,2.81S247.74,139.91,246.56,139.66Z" style="fill:#263238"></path><path d="M245.94,139.73c-.26.11-.53.35-.8.32s-.49-.39-.63-.72c0,0,0,0,0,0-.12.54,0,1.14.46,1.34s.9-.22,1.12-.74C246.09,139.86,246,139.69,245.94,139.73Z" style="fill:#263238"></path><path d="M251.26,148.64c-.24.19-.48.45-.81.45a2.4,2.4,0,0,1-.93-.32,0,0,0,0,0,0,0,1.21,1.21,0,0,0,1.08.6,1,1,0,0,0,.78-.72C251.36,148.64,251.29,148.62,251.26,148.64Z" style="fill:#263238"></path><path d="M248.08,144.86s-.4,1.29-.5,1.91c0,.06.14.11.35.15h0a3,3,0,0,0,3.05-.64c.06-.06,0-.13-.08-.1a4.42,4.42,0,0,1-2.82.33c0-.17.75-2.18.65-2.2a5.33,5.33,0,0,0-1.46.09c.74-2.71,1.92-5.28,2.62-8,0-.1-.12-.15-.16-.07a46.32,46.32,0,0,0-3.19,8.49C246.46,145.18,247.81,144.92,248.08,144.86Z" style="fill:#263238"></path><path d="M266.41,145c-2.25,0-2.39-4.72-2.39-4.72s-4.54-.35-5.52-7a10.1,10.1,0,0,0,1.58,5.55s-7.93-1.48-10.77-8.44c0,0,1.07,3.52,2.24,4.83a9.39,9.39,0,0,1-4.71-4.06s-1.7,3.76-2.87,4.74c0,0,1.44-14,14.3-11.46,0,0,8.07,1.18,10.48,7.84S266.41,145,266.41,145Z" style="fill:#263238"></path><path d="M263.43,145.66s3.44-3.64,5.13-2.35-1.32,6.84-3.6,7.33a2.23,2.23,0,0,1-2.77-1.62Z" style="fill:#f7a9a0"></path><path d="M267.66,144.88s0,.05,0,.06a5.61,5.61,0,0,0-3.39,3.05,1.23,1.23,0,0,1,1.87-.07.05.05,0,0,1-.06.08,1.35,1.35,0,0,0-1.55.25,6.3,6.3,0,0,0-.89,1.1c-.1.12-.33,0-.25-.13v0C263.65,147.25,265.55,144.77,267.66,144.88Z" style="fill:#263238"></path><path d="M263.5,157.32c1.55-.4,4.25-.77,8.47,1,0,0-5.88,7.79-12.76,9.54-2.45.62-3.78-2.54-3.78-2.54S257.09,159,263.5,157.32Z" style="fill:#f7a9a0"></path></g><g id="freepik--character-2--inject-56"><path d="M371.08,347.94c-.45,2-28.72,48.42-30.92,49.51-.83.42-7.84-3.3-16.18-8-1.8-1-3.65-2.09-5.53-3.19l-27-11.4,18.81-31.12,26.53,12.24,5.36,3.46s18.79-12.95,21.32-13.89S371.52,346,371.08,347.94Z" style="fill:#dd6a57"></path><path d="M371.08,347.94c-.45,2-28.72,48.42-30.92,49.51-1,.51-11.15-5.09-21.71-11.23l18.31-30.28,5.36,3.46s18.79-12.95,21.32-13.89S371.52,346,371.08,347.94Z" style="fill:#fff"></path><path d="M371.08,347.94c-.45,2-28.72,48.42-30.92,49.51-.83.42-7.84-3.3-16.18-8l18.14-30s18.79-12.95,21.32-13.89S371.52,346,371.08,347.94Z" style="fill:#a6a6a6"></path><path d="M368.81,347.48c-4.93,7.67-24.09,39.08-28.38,47,0,.07,0,.09.05,0,5-7.5,24-39.06,28.46-47C369,347.39,368.92,347.32,368.81,347.48Z" style="fill:#263238"></path><path d="M360,347.48a7.36,7.36,0,0,0-.93,5.82,7.1,7.1,0,0,0,3.1,4.27c.05,0,.1-.06.06-.09a8.47,8.47,0,0,1-2.13-9.94C360.09,347.48,360,347.42,360,347.48Z" style="fill:#263238"></path><path d="M344.74,356.85c-1.94,3.09-3,7.37-1.67,10.86.05.14.24.06.25-.06A50.46,50.46,0,0,1,345.15,357,.23.23,0,0,0,344.74,356.85Z" style="fill:#263238"></path><path d="M347.14,355c-1.94,3.09-3,7.38-1.67,10.87,0,.13.25.05.25-.07a50.48,50.48,0,0,1,1.84-10.62A.23.23,0,0,0,347.14,355Z" style="fill:#263238"></path><path d="M349.54,353.18c-1.94,3.09-3,7.37-1.67,10.86.06.14.25.06.26-.06A50.46,50.46,0,0,1,350,353.36.23.23,0,0,0,349.54,353.18Z" style="fill:#263238"></path><path d="M351.94,351.34c-1.94,3.09-3,7.38-1.66,10.87.05.13.24.05.25-.07a50.46,50.46,0,0,1,1.83-10.62A.23.23,0,0,0,351.94,351.34Z" style="fill:#263238"></path><path d="M334.24,388c-2.12,3.5,3.32,6.8,5.44,3.29S336.36,384.53,334.24,388Z" style="fill:#263238"></path><path d="M338.47,348.42c-2.27.78-2.2,3.55-1.44,5.35a19.26,19.26,0,0,0,6.25,7.68.1.1,0,0,0,.15,0A.44.44,0,0,0,344,361c-.18-3.16,0-6.55-1.13-9.55C342.22,349.69,340.61,347.68,338.47,348.42Zm4.3,7.85c.12,1.55.18,3.1.36,4.64-1.21-1.5-2.49-2.94-3.55-4.56a22.45,22.45,0,0,1-1.41-2.42c-.62-1.31-1.36-5.95,2.22-4.2C342.37,350.7,342.61,354.43,342.77,356.27Z" style="fill:#263238"></path><path d="M339.73,369.9c2.06-2.46,3-5.73,4.2-8.65a.44.44,0,0,0-.42-.58.1.1,0,0,0-.13-.09,19.1,19.1,0,0,0-8.42,5.21c-1.32,1.45-2.29,4-.4,5.52S338.52,371.33,339.73,369.9Zm-2.92.8c-4,.48-1.74-3.66-.72-4.69a20.36,20.36,0,0,1,2.12-1.82,56.62,56.62,0,0,1,4.85-3.15c-.68,1.39-1.23,2.84-1.86,4.26C340.45,367,339,370.43,336.81,370.7Z" style="fill:#263238"></path><path d="M149.17,350.25s83.31,1.56,88.2,3.24c7.51,2.57,77.57,34.73,77.57,34.73l22.3-37.87S275.76,321.53,253.06,316c-16.36-4-81.11,0-81.11,0Z" style="fill:#455a64"></path><path d="M329.41,350.24c-3.34,5.35-15.25,24.28-19,31.85,0,.06.06.11.11.06,1.86-2.25,15.88-26.34,19-31.82A.09.09,0,1,0,329.41,350.24Z" style="fill:#263238"></path><path d="M158.56,347.56c5.14-.09,10.29-.36,15.44-.52s10.3-.32,15.45-.42c10.29-.22,20.58-.26,30.87-.19a80.21,80.21,0,0,1,14.36,1.09,77.68,77.68,0,0,1,13.69,4.05c4.47,1.73,8.82,3.73,13.16,5.76l13.85,6.51,28.33,13.3c1.16.54,2.32,1.09,3.47,1.65.17.08,0,.38-.15.31-9.46-4.29-18.83-8.78-28.24-13.17l-14.05-6.56c-4.36-2-8.7-4.1-13.14-5.95a94.67,94.67,0,0,0-13.41-4.59A66.69,66.69,0,0,0,223.56,347c-10.15-.25-20.33-.17-30.48-.08s-20.49.24-30.74.63c-1.26.05-2.53.1-3.79.18C158.45,347.72,158.46,347.56,158.56,347.56Z" style="fill:#263238"></path><path d="M332.91,425.19c-1.08,1.7-44.43,36.84-46.87,37.14a.7.7,0,0,1-.37-.12c-1.55-.87-5.27-7-11-13.58-.37-.42-1.84-2.76-3.81-6-5.39-8.8-14.5-24.13-14.5-24.13l28.11-23.09,13.38,25.87,3.91,5s22-5.95,24.73-6S334,423.5,332.91,425.19Z" style="fill:#dd6a57"></path><path d="M332.91,425.19c-1.08,1.7-44.43,36.84-46.87,37.14a.7.7,0,0,1-.37-.12c-1.55-.87-5.27-7-11-13.58-.37-.42-1.84-2.76-3.81-6l27-21.35,3.91,5s22-5.95,24.73-6S334,423.5,332.91,425.19Z" style="fill:#fff"></path><path d="M332.91,425.2c-1.07,1.69-44.43,36.83-46.87,37.13-.92.11-6-5.33-11.34-13.7l27.09-22.26s22-6,24.73-6S334,423.5,332.91,425.2Z" style="fill:#a6a6a6"></path><path d="M330.92,424c-7.2,5.6-35.72,28.85-42.41,34.92-.06.05,0,.09,0,.05,7.26-5.39,35.6-28.87,42.48-34.85C331.17,424,331.08,423.89,330.92,424Z" style="fill:#263238"></path><path d="M322.57,421.06a7.3,7.3,0,0,0-2.81,5.18,7.07,7.07,0,0,0,1.5,5.06s.11,0,.08-.07a8.48,8.48,0,0,1,1.3-10.08A.06.06,0,0,0,322.57,421.06Z" style="fill:#263238"></path><path d="M305.1,424.83c-2.85,2.27-5.32,5.94-5.18,9.69,0,.15.21.14.26,0a50.42,50.42,0,0,1,5.26-9.4A.23.23,0,0,0,305.1,424.83Z" style="fill:#263238"></path><path d="M308,423.9c-2.86,2.27-5.32,5.94-5.19,9.69,0,.14.21.13.26,0a50.68,50.68,0,0,1,5.26-9.4A.23.23,0,0,0,308,423.9Z" style="fill:#263238"></path><path d="M310.86,423c-2.86,2.27-5.32,5.94-5.19,9.69,0,.14.21.13.26,0a50.11,50.11,0,0,1,5.26-9.4A.23.23,0,0,0,310.86,423Z" style="fill:#263238"></path><path d="M313.73,422c-2.85,2.26-5.32,5.94-5.18,9.69,0,.14.21.13.26,0a49.94,49.94,0,0,1,5.26-9.41A.23.23,0,0,0,313.73,422Z" style="fill:#263238"></path><path d="M284.83,450.75c-3.17,2.6.87,7.52,4,4.91S288,448.14,284.83,450.75Z" style="fill:#263238"></path><path d="M302,414.79c-2.4,0-3.26,2.62-3.13,4.57a19.2,19.2,0,0,0,3.33,9.33.1.1,0,0,0,.16,0,.44.44,0,0,0,.69-.18c.88-3,2.19-6.18,2.11-9.39C305.11,417.24,304.27,414.81,302,414.79Zm1.44,8.84c-.4,1.51-.86,3-1.2,4.5a55.19,55.19,0,0,1-1.83-5.49,19.89,19.89,0,0,1-.52-2.75c-.15-1.43.69-6.06,3.48-3.22C304.91,418.24,303.91,421.84,303.44,423.63Z" style="fill:#263238"></path><path d="M296,435.47c2.77-1.63,4.73-4.41,6.84-6.76a.45.45,0,0,0-.21-.69.09.09,0,0,0-.08-.12,19.05,19.05,0,0,0-9.68,2.11c-1.72.93-3.5,3.05-2.22,5.07S294.42,436.42,296,435.47Zm-3-.22c-3.9-.86-.42-4,.88-4.66a20.11,20.11,0,0,1,2.61-1,57.46,57.46,0,0,1,5.62-1.36c-1.1,1.09-2.11,2.27-3.18,3.4C297.68,433,295.16,435.73,293,435.25Z" style="fill:#263238"></path><path d="M298.66,415.92l-29.47,28.24S225.54,373.05,221,370.63c-4-2.15-52.37.35-59.54-2.26-11.72-4.28-17.92-15.07-20.67-23.53L172,316.05a34,34,0,0,1,5,13.89s49.94.53,62.3,7.34S298.66,415.92,298.66,415.92Z" style="fill:#455a64"></path><path d="M292.79,411.44c-4.4,4-3.19,2.8-7.54,6.88-2.13,2-16.09,15.1-17.75,17.31,0,.05,0,.12.08.09,2.28-1.56,16-14.91,18.11-17,4.27-4.15,3-3,7.22-7.21C293,411.48,292.87,411.36,292.79,411.44Z" style="fill:#263238"></path><path d="M178.83,323.74a73.09,73.09,0,0,0-1.37,12.42.13.13,0,0,0,.25,0c.58-4.11,1.25-8.26,1.6-12.4A.24.24,0,0,0,178.83,323.74Z" style="fill:#263238"></path><path d="M175.46,327.3a15.85,15.85,0,0,0,1.49,1.77,4.92,4.92,0,0,0,1.39,1.19c.11.05.2-.08.17-.18a6.38,6.38,0,0,0-1.11-1.57c-.45-.57-.89-1.15-1.36-1.7C175.73,326.44,175.18,326.91,175.46,327.3Z" style="fill:#263238"></path><path d="M172.31,325.36c-.45-.46-.9-.93-1.34-1.4s-.88-1-1.37-1.48c-.08-.07,0-.18.12-.11.45.47,1,.87,1.46,1.3l1.44,1.31c.89.82,1.74,1.72,2.55,2.62a4.22,4.22,0,0,0,.47-1.84,3.39,3.39,0,0,0-.9-1.86c-.48-.59-1-1.16-1.43-1.76a14.17,14.17,0,0,0-1.63-1.91c-.07-.08,0-.19.13-.12a26.54,26.54,0,0,1,3.53,3.88,2.78,2.78,0,0,1,.79,1.79,5.47,5.47,0,0,1-.78,2.09c0,.1-.12.18-.2.11A37.18,37.18,0,0,1,172.31,325.36Z" style="fill:#263238"></path><path d="M178.56,330c3.2.14,6.42,0,9.63.05s6.26.13,9.39.27c6.32.29,12.64.85,18.91,1.67,3.1.4,6.2.88,9.28,1.44a65.43,65.43,0,0,1,9.18,2.15,24.52,24.52,0,0,1,8.14,4.53,63,63,0,0,1,6.66,6.91,167.06,167.06,0,0,1,13.43,17.27c.13.21-.2.43-.35.24-4.06-5-8.06-10.09-12.3-15s-8.23-9.86-14.18-12.3a48.35,48.35,0,0,0-8.95-2.44c-3.09-.61-6.21-1.13-9.33-1.57-6.16-.87-12.35-1.4-18.55-1.87-3.47-.26-7-.43-10.42-.67s-7-.55-10.55-.57C178.45,330.15,178.46,330,178.56,330Z" style="fill:#263238"></path><path d="M157.91,352.21c.05-.72.81-1.41,1.2-2a20.89,20.89,0,0,0,1.35-2.34,21.16,21.16,0,0,0,1-2.46,5.8,5.8,0,0,0,.43-2.6,13,13,0,0,0-1.81-4.37,19.89,19.89,0,0,0-3-4.14c-.07-.07,0-.17.12-.1.71.63,1.46,1.2,2.12,1.89a18,18,0,0,1,1.67,2.13,10.26,10.26,0,0,1,2.1,4.64c.18,1.8-.7,3.62-1.51,5.18a20.23,20.23,0,0,1-1.61,2.58c-.43.59-1,1.64-1.79,1.8A.21.21,0,0,1,157.91,352.21Z" style="fill:#263238"></path><path d="M267.05,431.35Q258,417,248.61,403t-19.11-28a40.9,40.9,0,0,0-5-6.51c-2.15-2-4.85-2.64-7.7-3a140.91,140.91,0,0,0-15.78-.73c-5.28,0-10.56.22-15.84.38a138.28,138.28,0,0,1-15.77,0,24.61,24.61,0,0,1-13.67-5c-3.92-3.15-6.78-7.44-9.32-11.72l-2-3.4c0-.08.09-.16.14-.07,2.59,4.62,5.43,9.26,9.22,13a23.68,23.68,0,0,0,6.38,4.58,24.91,24.91,0,0,0,7.68,2.11c5.14.63,10.4.35,15.57.21s10.56-.36,15.84-.42a151.24,151.24,0,0,1,15.93.55,20.45,20.45,0,0,1,7,1.44c2.38,1.13,4,3.24,5.51,5.34,6.47,9.12,12.75,18.39,19,27.7S259,418.15,265,427.63l2.27,3.59C267.39,431.37,267.14,431.49,267.05,431.35Z" style="fill:#263238"></path><path d="M141.64,291.65c5.62,2.75,31.21,7.75,47.26,0,5.45-2.64,20-32.51,22.31-39.94,2.16-7.08-19.61-10.21-21.14-6.14-2.35,6.3-9.78,27.08-13,29-5.23,3.07-22.32,5.7-34.59,9.45C136.14,286,137.31,289.54,141.64,291.65Z" style="fill:#dd6a57"></path><path d="M142.5,293.26c7.07,3.66,25.25,6.05,25.25,6.05l-.37-5-1.22-16.49s-14,2.74-22.81,5.34a19.46,19.46,0,0,0-3,1.13C135.15,286.77,136.4,290.11,142.5,293.26Z" style="fill:#FFC727"></path><path d="M155,281.08a6.57,6.57,0,0,1,1.14,1.56,6.15,6.15,0,0,1,.71,1.8,7.59,7.59,0,0,1-1.85-3.36Z" style="fill:#fff"></path><path d="M160.38,287a7.14,7.14,0,0,1,1.56-1.15,6.42,6.42,0,0,1,1.8-.7,6.86,6.86,0,0,1-1.56,1.14A6.76,6.76,0,0,1,160.38,287Z" style="fill:#fff"></path><path d="M138.22,287a7.09,7.09,0,0,1,1.56-1.14,6.76,6.76,0,0,1,1.8-.71,6.57,6.57,0,0,1-1.56,1.14A6.44,6.44,0,0,1,138.22,287Z" style="fill:#fff"></path><path d="M151.25,288.68a7.46,7.46,0,0,1-1.06,3.68,6.8,6.8,0,0,1,.29-1.91A6.43,6.43,0,0,1,151.25,288.68Z" style="fill:#fff"></path><path d="M162.12,293.11a6.69,6.69,0,0,1-.29,1.91,6.36,6.36,0,0,1-.77,1.78,6.69,6.69,0,0,1,.29-1.91A7.16,7.16,0,0,1,162.12,293.11Z" style="fill:#fff"></path><path d="M142.5,293.26c7.07,3.66,25.25,6.05,25.25,6.05l-.37-5c-7.93-3-20.07-7.45-27.06-10C135.15,286.77,136.4,290.11,142.5,293.26Z" style="fill:#263238"></path><path d="M164,297.91c-.33-3-1.26-15.19-1.28-17.85,0-.19.11-.23.14,0a163.77,163.77,0,0,1,1.25,17.87A.06.06,0,1,1,164,297.91Z" style="fill:#263238"></path><path d="M211.18,251.79c.77-2.2,3.42-12.61,3.51-15.67s-.3-11.88-2.63-12.18-2.43,2.28-2.43,2.28-.76-3.7-3.14-3.79-2.39,3.94-2.39,3.94-1-3.74-3.43-3.67-1.71,4.14-1.71,4.14-.8-3.47-2.74-2.58c-2.32,1.07-.13,7.3-.48,10.67-.08.76-2.72,15.39-2.72,15.39Z" style="fill:#dd6a57"></path><path d="M198.91,226.49c1.6,4.58,1.51,6.87.44,11.52,0,.09.11.15.14.05,1.46-4.46,2-7.31-.37-11.66C199,226.19,198.83,226.27,198.91,226.49Z" style="fill:#263238"></path><path d="M204,226c1.25,4.9,1.17,7.38.4,12.34,0,.07.11.1.13,0,1.16-4.81,1.62-7.66-.28-12.4C204.14,225.77,203.91,225.78,204,226Z" style="fill:#263238"></path><path d="M209.58,226.47c.87,4.84.9,7.56-.46,12.28a.09.09,0,0,0,.17.06,16.33,16.33,0,0,0,.44-12.35C209.63,226.17,209.52,226.17,209.58,226.47Z" style="fill:#263238"></path><path d="M190,252.83a59.08,59.08,0,0,1-1.19-8.69c0-2.74,3.92-12.88,6.16-12.17,2.89.93,1.8,7.23.86,10.24,0,0,6.69,2.13,6.89,6.83S190,252.83,190,252.83Z" style="fill:#dd6a57"></path><path d="M195.69,232.49c2,2.74.55,6.62-.15,9.61a.29.29,0,0,0,.3.36c2.74,1.08,6.3,3.4,7,6.43a.07.07,0,0,0,.14,0c-.33-3.35-3.64-5.92-6.72-6.91.76-3.06,2.08-7-.56-9.49C195.7,232.45,195.68,232.47,195.69,232.49Z" style="fill:#263238"></path><path d="M181.14,316.93c-.13,2.44,0,5.74-8.54,15.39-.53.6-1.1,1.18-1.7,1.75-9,8.44-28.2,13.7-29.45,13.89,0,0-16.87-31.57-13-57.17.47-3.16,4.92-6.26,8.75-7.18,1.36-.33,8.88,1.61,13.71,5.36S181.28,314.49,181.14,316.93Z" style="fill:#FFC727"></path><path d="M142.56,297.63a6.76,6.76,0,0,1,1.66,1,6.55,6.55,0,0,1,1.35,1.38,6.76,6.76,0,0,1-1.66-1A6.55,6.55,0,0,1,142.56,297.63Z" style="fill:#fff"></path><path d="M159.1,315.52a7.49,7.49,0,0,1,3,2.37,6.76,6.76,0,0,1-1.66-1A6.55,6.55,0,0,1,159.1,315.52Z" style="fill:#fff"></path><path d="M138.53,319.66a6.41,6.41,0,0,1,1.66,1,6.6,6.6,0,0,1,1.36,1.38,6.41,6.41,0,0,1-1.66-1A6.85,6.85,0,0,1,138.53,319.66Z" style="fill:#fff"></path><path d="M165,303.27a6.64,6.64,0,0,1,1.67,1,6.8,6.8,0,0,1,1.35,1.38,6.41,6.41,0,0,1-1.66-1A6.85,6.85,0,0,1,165,303.27Z" style="fill:#fff"></path><path d="M141,310a6.41,6.41,0,0,1,1-1.66,6.6,6.6,0,0,1,1.38-1.36,6.41,6.41,0,0,1-1,1.66A6.85,6.85,0,0,1,141,310Z" style="fill:#fff"></path><path d="M146,331.21a7.49,7.49,0,0,1,2.37-3,6.76,6.76,0,0,1-1,1.66A6.55,6.55,0,0,1,146,331.21Z" style="fill:#fff"></path><path d="M169.42,323.31a6.76,6.76,0,0,1,1-1.66,6.55,6.55,0,0,1,1.38-1.35,7.49,7.49,0,0,1-2.37,3Z" style="fill:#fff"></path><path d="M152.51,340.63a6.64,6.64,0,0,1,1-1.67,6.8,6.8,0,0,1,1.38-1.35,6.41,6.41,0,0,1-1,1.66A6.85,6.85,0,0,1,152.51,340.63Z" style="fill:#fff"></path><path d="M132.63,290.75a7.49,7.49,0,0,1,2.37-3,6.76,6.76,0,0,1-1,1.66A6.55,6.55,0,0,1,132.63,290.75Z" style="fill:#fff"></path><path d="M131.5,297.81a7,7,0,0,1,.48,1.87,6.65,6.65,0,0,1,0,1.94,6.94,6.94,0,0,1-.48-1.88A7.35,7.35,0,0,1,131.5,297.81Z" style="fill:#fff"></path><path d="M134.93,326.43a7,7,0,0,1,.48,1.87,6.58,6.58,0,0,1,0,1.93,7,7,0,0,1-.48-1.87A7.34,7.34,0,0,1,134.93,326.43Z" style="fill:#fff"></path><path d="M156.45,302.74a7,7,0,0,1,.48,1.87,7.34,7.34,0,0,1,0,1.93,6.21,6.21,0,0,1-.48-1.87A6.58,6.58,0,0,1,156.45,302.74Z" style="fill:#fff"></path><path d="M157.27,326.68a7,7,0,0,1,.48,1.87,6.58,6.58,0,0,1,0,1.93,7,7,0,0,1-.48-1.87A7.34,7.34,0,0,1,157.27,326.68Z" style="fill:#fff"></path><path d="M145.29,287.25a7.54,7.54,0,0,1,.45,3.8,7.54,7.54,0,0,1-.45-3.8Z" style="fill:#fff"></path><path d="M157.86,295.06a6.94,6.94,0,0,1-1.88.48,6.58,6.58,0,0,1-1.93,0,7,7,0,0,1,1.87-.48A7.42,7.42,0,0,1,157.86,295.06Z" style="fill:#fff"></path><path d="M143.92,339.23a6.94,6.94,0,0,1-1.87.47,6.65,6.65,0,0,1-1.94,0,6.65,6.65,0,0,1,1.88-.47A6.58,6.58,0,0,1,143.92,339.23Z" style="fill:#fff"></path><path d="M174.38,311a7,7,0,0,1-1.88.48,6.94,6.94,0,0,1-1.93,0,7,7,0,0,1,1.87-.48A6.65,6.65,0,0,1,174.38,311Z" style="fill:#fff"></path><path d="M133.62,312.6a7,7,0,0,1-1.87.48,6.65,6.65,0,0,1-1.94,0,6.94,6.94,0,0,1,1.88-.48A7.35,7.35,0,0,1,133.62,312.6Z" style="fill:#fff"></path><path d="M170.5,331.4a7.54,7.54,0,0,1-3.8.45,7.54,7.54,0,0,1,3.8-.45Z" style="fill:#fff"></path><path d="M151.07,316.16a7,7,0,0,1-1.87.48,6.58,6.58,0,0,1-1.93,0,7,7,0,0,1,1.87-.48A7.34,7.34,0,0,1,151.07,316.16Z" style="fill:#fff"></path><path d="M128.54,291.55c-7.92,5-24.35,33.18-24.37,41.82,0,12.87,6.48,29.86,9.38,35.84,1.26,2.61,22-4.87,21.11-7.83-2-6.33-10.18-24.16-10.24-26.48s4.24-20.68,7.68-30.22C136.71,291.88,132.55,289,128.54,291.55Z" style="fill:#dd6a57"></path><path d="M113.52,369.26c3.6,8.84,17,18.48,19.19,19.33,1.86.73,2.83,1.09,2.83,1.09,3.32,1.38,5.24.45,5.24.45s3.37,2.72,5.35.95c2.23-2-2.94-5.4-4.63-9-3.87-8.31-7.05-21.21-7.92-23.72Z" style="fill:#dd6a57"></path><path d="M131.32,376.19A41.28,41.28,0,0,0,140.78,390c.06.06,0,.16-.1.1a31.29,31.29,0,0,1-9.57-13.85C131.07,376.16,131.26,376.07,131.32,376.19Z" style="fill:#263238"></path><path d="M126,377.79a43.13,43.13,0,0,0,9.63,11.83s0,.05,0,0a28.12,28.12,0,0,1-9.83-11.73C125.67,377.78,125.88,377.64,126,377.79Z" style="fill:#263238"></path><path d="M137.47,371.74c-.07-1.28.6-1.33,2.11.38s6.06,9.75,8.73,7.93-3.9-13.08-6.63-15.74a65,65,0,0,0-8.26-6.11C134.26,360.65,135.89,366.91,137.47,371.74Z" style="fill:#dd6a57"></path><path d="M134.1,298.74c2.84-12.56-3-13.25-10.51-4.51a182.69,182.69,0,0,0-14,19.46L129,321.55S132.28,306.77,134.1,298.74Z" style="fill:#FFC727"></path><path d="M112.18,311.81c2.83.95,14.3,5.28,16.72,6.38.17.07.17.2,0,.14a165.82,165.82,0,0,1-16.74-6.41A.06.06,0,0,1,112.18,311.81Z" style="fill:#263238"></path><path d="M120.38,304.09a7.35,7.35,0,0,1,3,2.36,7.05,7.05,0,0,1-1.66-1A7.36,7.36,0,0,1,120.38,304.09Z" style="fill:#fff"></path><path d="M124.32,295.3a7.05,7.05,0,0,1,1-1.66,7.41,7.41,0,0,1,1.38-1.36,6.61,6.61,0,0,1-1,1.67A6.8,6.8,0,0,1,124.32,295.3Z" style="fill:#fff"></path><path d="M132.63,290.75a7.49,7.49,0,0,1,2.37-3,6.76,6.76,0,0,1-1,1.66A6.55,6.55,0,0,1,132.63,290.75Z" style="fill:#fff"></path><path d="M131.5,297.81a7,7,0,0,1,.48,1.87,6.65,6.65,0,0,1,0,1.94,6.94,6.94,0,0,1-.48-1.88A7.35,7.35,0,0,1,131.5,297.81Z" style="fill:#fff"></path><path d="M116,311.24a6.94,6.94,0,0,1,.48,1.88,6.58,6.58,0,0,1,0,1.93,7,7,0,0,1-.48-1.87A7.42,7.42,0,0,1,116,311.24Z" style="fill:#fff"></path><path d="M133.62,312.6a7,7,0,0,1-1.87.48,6.65,6.65,0,0,1-1.94,0,6.94,6.94,0,0,1,1.88-.48A7.35,7.35,0,0,1,133.62,312.6Z" style="fill:#fff"></path><path d="M133.42,302.71c-.36,1.66-.66,3.33-1,5,.34-.65.7-1.28,1.08-1.91a0,0,0,0,1,0,0c-.26.52-.5,1-.77,1.56l-.39.74-.08.16c-.24,1.3-.49,2.6-.78,3.89-.33,1.54-.71,3.08-1.08,4.61s-1,3.29-1.29,4.89a10.81,10.81,0,0,1-1.89-.75c-.18-.06-.14-.25,0-.16s1.7.55,1.73.55c.38-1.54.58-3.12.91-4.67s.65-3.1,1-4.63c.74-3.13,1.64-6.21,2.4-9.33C133.36,302.65,133.43,302.67,133.42,302.71Z" style="fill:#263238"></path><path d="M142,292.24c-2.3,2.09-9.1.56-12.72-1.73-.24-.16-1.21-2.73-2.53-5.79-.81-1.86-1.76-3.9-2.76-5.71-.2-.37,1.43-.38,1.43-.38l2.65-.73,8.76-2.4a33,33,0,0,0,2.74,7.54,4.58,4.58,0,0,0,.49.7,1,1,0,0,1,.08.11C141.17,285.13,144.25,290.21,142,292.24Z" style="fill:#dd6a57"></path><path d="M140.08,283.74a1,1,0,0,1,.08.11,7.86,7.86,0,0,1-1.13.71c-7.71,4-14-5.13-14-5.13l3.08-1.53,8.76-2.4a33,33,0,0,0,2.74,7.54A4.58,4.58,0,0,0,140.08,283.74Z" style="fill:#263238"></path><path d="M117.32,261.5c-.41,4.78,4.73,17.23,8.54,19.43,5.52,3.2,13.18,2,15.55-4.34,2.29-6.13-4.7-22.23-8.82-24.1C126.51,249.75,117.92,254.44,117.32,261.5Z" style="fill:#dd6a57"></path><path d="M131.49,267s0,.07,0,.1c.4.82.71,1.82.09,2.43a0,0,0,0,0,0,.05C132.43,269,132,267.68,131.49,267Z" style="fill:#263238"></path><path d="M130.37,266.44c-1.38.49-.29,3.21,1,2.75S131.52,266,130.37,266.44Z" style="fill:#263238"></path><path d="M136.33,264.8s.08,0,.1.05c.31.85.81,1.77,1.68,1.75a0,0,0,0,1,0,0C137.14,266.89,136.49,265.66,136.33,264.8Z" style="fill:#263238"></path><path d="M136.73,263.62c1.32-.65,2.51,2,1.29,2.62S135.63,264.16,136.73,263.62Z" style="fill:#263238"></path><path d="M128.8,265.63c.33-.25.59-.52.9-.8a2,2,0,0,0,.77-1,.63.63,0,0,0-.37-.66,1.52,1.52,0,0,0-1.5.43,2.19,2.19,0,0,0-.84,1.39A.66.66,0,0,0,128.8,265.63Z" style="fill:#263238"></path><path d="M137.23,261.83A11.72,11.72,0,0,1,136,262a1.94,1.94,0,0,1-1.24-.08.6.6,0,0,1-.25-.71,1.52,1.52,0,0,1,1.31-.84,2.3,2.3,0,0,1,1.6.29A.66.66,0,0,1,137.23,261.83Z" style="fill:#263238"></path><path d="M133.52,274.81a1.34,1.34,0,0,0,.91.21,2.32,2.32,0,0,0,.82-.58,0,0,0,0,1,.05,0,1.24,1.24,0,0,1-.88.89,1,1,0,0,1-1-.48S133.48,274.79,133.52,274.81Z" style="fill:#263238"></path><path d="M133.39,271.93a3.05,3.05,0,0,0,2.43.51,4.35,4.35,0,0,0,1.05-.36,1.18,1.18,0,0,0,.19-.11l.17-.1a.21.21,0,0,0,.09-.25h0a.2.2,0,0,0,0-.08h0l0-.07c-.25-.66-.7-1.62-.7-1.62.28,0,1.71.08,1.55-.25a46.44,46.44,0,0,0-4.59-8.23.09.09,0,0,0-.15.08c1.14,2.68,2.74,5.14,3.93,7.82a5.6,5.6,0,0,0-1.52.13c-.08.06.92,1.84,1,2.14a.1.1,0,0,1,0,0,4.35,4.35,0,0,1-3.34.27C133.36,271.8,133.32,271.89,133.39,271.93Z" style="fill:#263238"></path><path d="M136.36,271.9a3.7,3.7,0,0,1-.94,1.6,1.65,1.65,0,0,1-.91.43c-.74.09-1-.52-1.1-1.09a4.12,4.12,0,0,1,0-.93A4.8,4.8,0,0,0,136.36,271.9Z" style="fill:#263238"></path><path d="M135.42,273.5a1.65,1.65,0,0,1-.91.43c-.74.09-1-.52-1.1-1.09A1.71,1.71,0,0,1,135.42,273.5Z" style="fill:#ff99ba"></path><path d="M121.15,272.54c2.24-1-.06-6.51-.06-6.51s3.26-1.93,3.19-7.36c0,0,5.55,1.15,9.08-.94,5.51-3.27,2.5-10.9-.3-11.65-4-1.05-8.35,4.26-8.35,4.26s-9.34.79-9.73,7.45a4.63,4.63,0,0,0-2.43,5.83C113.84,267.88,119.48,273.28,121.15,272.54Z" style="fill:#263238"></path><path d="M120.51,267a8.37,8.37,0,0,0,3.53-4.06,6.24,6.24,0,0,0-.58-5.68.08.08,0,0,1,.14-.09,7.14,7.14,0,0,1,1.15,6,5.8,5.8,0,0,1-4.16,4C120.49,267.18,120.42,267.05,120.51,267Z" style="fill:#263238"></path><path d="M111.35,261.29c.61-1.91,2.31-2.8,4.09-3.4.1,0,.15.14,0,.16a5.24,5.24,0,0,0-3.5,4c-.37,1.72.48,3.39,1.41,4.8a13.16,13.16,0,0,0,7.63,5.49s0,.1,0,.09a13.15,13.15,0,0,1-8.49-6C111.62,265,110.78,263.05,111.35,261.29Z" style="fill:#263238"></path><path d="M124.58,250.71a6.17,6.17,0,0,1,2.32-3.7,7.4,7.4,0,0,1,5.1-1.33,4.17,4.17,0,0,1,3.28,2.57,7.35,7.35,0,0,1,.08,4.94,0,0,0,1,1-.07,0,7.31,7.31,0,0,0-.27-4.41,3.85,3.85,0,0,0-3.3-2.4c-2.82-.17-6.31,1.32-7,4.38A.08.08,0,0,1,124.58,250.71Z" style="fill:#263238"></path><path d="M122.35,271.47s-3.9-3.49-5.55-2,2,7,4.39,7.32a2.33,2.33,0,0,0,2.74-1.93Z" style="fill:#dd6a57"></path><path d="M117.88,271s0,.05,0,.06a5.8,5.8,0,0,1,3.79,2.88,1.27,1.27,0,0,0-1.94.09s0,.1.06.08a1.42,1.42,0,0,1,1.64.12,6.46,6.46,0,0,1,1,1.07c.11.12.34,0,.25-.16l0,0C122.25,273.14,120.06,270.72,117.88,271Z" style="fill:#263238"></path></g><g id="freepik--character-1--inject-56"><path d="M168.27,102.27l-1.52-3.19a20.07,20.07,0,0,0,4.75-4,23,23,0,0,1-5.23,3l-1.33-2.8c2.05-1.28,5.66-3.81,7.63-6.84-.26.22-4.91,4.16-8.33,5.38L152.5,69.16c4.68-3.56,10.74-5.41,9.3-5.26a38.93,38.93,0,0,0-10.36,3l-1.31-2.74a19.14,19.14,0,0,1,4-1.65c1.9-.46-2.19-.25-4.51.64l-.83-1.75s7.24-3.88,13.81-3.68c8.74.25,10.34-3.09,18.74-5.28,9.55-2.49,25.62,4,20,20.74a20.37,20.37,0,0,1-10.71,12.86c-6.23,3-10.21,3.19-12.41,6.87A23.17,23.17,0,0,1,168.27,102.27Z" style="fill:#263238"></path><path d="M149.33,59.82a22.07,22.07,0,0,1,8.28-3,28.6,28.6,0,0,1,4.44-.37c.73,0,1.49.05,2.21.07a15.31,15.31,0,0,0,2.14-.07,40.09,40.09,0,0,0,8.41-2.19c1.4-.47,2.8-.92,4.24-1.27a19.66,19.66,0,0,1,4.38-.6,37.54,37.54,0,0,0-8.4,2.49c-1.37.53-2.75,1-4.17,1.48a23.93,23.93,0,0,1-4.37.93,15.61,15.61,0,0,1-2.27.06c-.74,0-1.45-.08-2.18-.09a30,30,0,0,0-4.34.22,28.28,28.28,0,0,0-4.27.84c-.71.19-1.4.42-2.09.67S150,59.49,149.33,59.82Z" style="fill:#263238"></path><path d="M190.69,86.08c-1,.56-2.13,1-3.18,1.51s-2.1,1-3.1,1.61a21.66,21.66,0,0,0-2.82,2c-.22.18-.42.38-.64.57l-.16.15-.12.13a3.92,3.92,0,0,0-.25.32c-.33.46-.64,1-1,1.45-.65,1-1.33,2-2.07,2.89a23.18,23.18,0,0,1-2.45,2.6,19.11,19.11,0,0,1-2.85,2.14,17.07,17.07,0,0,1-3.21,1.51,22.25,22.25,0,0,0,5.6-4.13,33.14,33.14,0,0,0,4.27-5.48c.32-.48.64-1,1-1.47a3.47,3.47,0,0,1,.3-.37,1.62,1.62,0,0,1,.18-.19l.17-.15c.22-.2.44-.41.68-.59a18.38,18.38,0,0,1,3-1.94,25.32,25.32,0,0,1,3.26-1.42C188.46,86.81,189.58,86.46,190.69,86.08Z" style="fill:#263238"></path><path d="M170.41,91.68c8.6,15.6,17.08,27,22.77,28.52,4.58,1.25,10.45,1.26,16.3.7a141.9,141.9,0,0,0,18.5-3.23c1.88-.44,3.43-.84,4.54-1.12,2.73-.7,1.36-19.78-1.24-21.32-.6-.35-2.48-.16-5.06.33-8.66,1.67-25.4,7.18-26.68,6.57s-8.62-6.33-18.77-13.19C173.75,84.2,165.05,82,170.41,91.68Z" style="fill:#ad6359"></path><path d="M228,117.67a74.44,74.44,0,0,0,9.62.37c2.53-.18,9.79-.88,9.87-3.68.06-1.91-4.26-2-7.31-2.13-1.61-.07-3.86-.9-3.78-2,.14-1.83,4.31-1.57,7.18-1.07,5.53,1,13.37,3.52,15.31.18.73-1.26-1.08-2.41-3.45-3.31,3.58.75,7.23,1.11,8.09-.26a1.63,1.63,0,0,0-.42-2.2,2.16,2.16,0,0,0,2.11-1.18c.59-1.33-.41-2.62-2-3.74a1.18,1.18,0,0,0,.65-.88c.88-3.78-12.34-8.86-16.11-8.41a82.1,82.1,0,0,0-21.58,6.18C223.34,100.26,228,117.67,228,117.67Z" style="fill:#ad6359"></path><path d="M239.47,102.68a17.67,17.67,0,0,1,7.76.12c3,.76,5.68,2.3,8.55,3.34.08,0,0,.15,0,.12-1.39-.58-2.84-1-4.24-1.54s-2.74-1.06-4.15-1.47a17.61,17.61,0,0,0-7.87-.53S239.45,102.68,239.47,102.68Z" style="fill:#263238"></path><path d="M239.78,97.66a43.52,43.52,0,0,1,8.91-.16c3.23.38,6.19,1.86,9.08,3.27q2.6,1.26,5.15,2.65c.07,0,0,.15-.05.11q-4.42-2.19-9-4.13A23.38,23.38,0,0,0,245,97.51c-1.74,0-3.49.09-5.23.2C239.76,97.71,239.75,97.66,239.78,97.66Z" style="fill:#263238"></path><path d="M241.26,92.83a22.41,22.41,0,0,1,8-.25,39.74,39.74,0,0,1,9.25,3.48c1.59.8,3.15,1.65,4.7,2.52.06,0,0,.15-.07.12a90.9,90.9,0,0,0-10.81-5,18.25,18.25,0,0,0-5.5-1.25,32,32,0,0,0-5.61.35S241.24,92.83,241.26,92.83Z" style="fill:#263238"></path><path d="M194.2,97.59l-17.55,6.08s-5.84-8.73-7.27-12.54c-2.18-5.79-2.19-8.89,5.71-5.84C183.39,88.5,194.2,97.59,194.2,97.59Z" style="fill:#FFC727"></path><path d="M179.66,99.58c1.3-.36,2.61-.72,3.9-1.12s2.51-.78,3.75-1.21c.66-.23,1.32-.48,2-.73.24-.1,1.37-.56,1.49-.63s0,0,0,0c-2.56.74-5.13,1.42-7.68,2.2-1.25.38-2.5.78-3.75,1.18a30,30,0,0,0-3.6,1.24c-.07,0,0,.13.05.12A32.52,32.52,0,0,0,179.66,99.58Z" style="fill:#263238"></path><path d="M183.43,101.32l-6.78,2.35s-5.84-8.73-7.27-12.54c-2.18-5.79-2.19-8.89,5.71-5.84.83.32,1.69.7,2.56,1.13C179.42,90.76,181.68,96.68,183.43,101.32Z" style="fill:#263238"></path><path d="M48.44,278c-.85-1.88-6.42-57.58-5.29-59.83.42-.86,8.49-2.15,18.28-3.42,2.11-.28,33.68-9.25,33.68-9.25l3.83,37.25-33.82,7.89s-7.4,22.28-8.91,24.62S49.28,279.88,48.44,278Z" style="fill:#ad6359"></path><path d="M59.74,266.3a80.56,80.56,0,0,1-3.53,9c-1.51,2.34-6.93,4.62-7.77,2.74S42,220.42,43.15,218.17c.34-.7,5.71-1.68,13-2.7-.32,12.85-1.06,53.07,2.27,52.28C58.69,267.68,59.17,267.13,59.74,266.3Z" style="fill:#263238"></path><path d="M70.44,211.58l7.17,38.55s57-13.66,71.63-29.29c12.44-13.27,11.83-62.15,15-91.53l-21.8-8.76c-7.23,18.84-12.86,64.36-17.65,71.72C121.61,197.18,70.44,211.58,70.44,211.58Z" style="fill:#37474f"></path><path d="M83.8,245.11c-1.1-6.4-.7-4.58-1.87-11-.58-3.12-3.43-18.84-4.45-21.67a.07.07,0,0,0-.13,0c.11,3,3.3,18.65,3.93,21.77,1.29,6.36,1,4.52,2.35,10.87A.09.09,0,1,0,83.8,245.11Z" style="fill:#263238"></path><path d="M141.63,125.5a310.77,310.77,0,0,0-10.06,47.61c-.5,3.93-.88,7.86-1.27,11.81-.32,3.33-.82,6.87-3.06,9.52-2.48,3-6.34,4.28-9.81,5.67-3.83,1.54-7.66,3.06-11.52,4.51-4.16,1.57-8.35,3-12.61,4.33q-3.27,1-6.59,1.8c-1.1.27-2.21.53-3.32.77l-5,1c-.19,0-.5,0,0-.11,1-.22,5.4-1.15,6.44-1.4C89,210,93,208.8,97,207.45s8.1-2.86,12.1-4.43,8-3,11.82-4.77a17,17,0,0,0,5.48-3.52,11.54,11.54,0,0,0,2.81-5.58c.89-3.89.94-8,1.4-12q1.44-12.31,3.92-24.48a271.54,271.54,0,0,1,7-27.23A.06.06,0,0,1,141.63,125.5Z" style="fill:#263238"></path><path d="M61.34,330.05C59.57,329,23.37,286.3,23,283.8c-.13-.95,5.77-6.59,13.11-13.19,1.58-1.43,3.23-2.89,4.9-4.37,10.88-9.6,22.65-19.54,22.65-19.54L88,275.18,64.66,293.94l-5.12,4.12s6.55,22.54,6.65,25.32S63.1,331.12,61.34,330.05Z" style="fill:#ad6359"></path><path d="M66.19,323.38c.08,2.78-3.09,7.74-4.85,6.67S23.37,286.3,23,283.8c-.11-.8,4.07-4.94,9.79-10.18,5.4,9,28.42,46.87,30.92,44.29.32-.34.41-1.76.37-3.56A76.78,76.78,0,0,1,66.19,323.38Z" style="fill:#263238"></path><path d="M70.66,293.57,43.35,262.65s48.73-50.67,54-59.16c4.31-7,14.76-54.93,14.23-57.62-2.66-13.55,0-23.53,13-33.94l29.17,14.28s-8.78,13.45-8.81,14.15c-.64,17.94-1.84,67-13.14,83.63C106.23,261.5,70.66,293.57,70.66,293.57Z" style="fill:#37474f"></path><path d="M75.85,286.28c-5.36-6.63-23.41-26.12-25.63-27.9,0,0-.13,0-.1.08,1.53,2.41,10.88,12.81,25.6,27.94A.09.09,0,0,0,75.85,286.28Z" style="fill:#263238"></path><path d="M154.2,127.12c-2.3,3.51-5.58,9.86-7.76,8.8s2.39-8.53,3.3-10.33c.82-1.63.15-1.71-.94.14-3,5-5.3,9.61-2.46,10.89s7.14-6.66,8.06-8.51C154.88,127.16,154.93,126,154.2,127.12Z" style="fill:#263238"></path><path d="M146.45,136.24a17.89,17.89,0,0,0-2,3.91c0,.13.44.27.52.21.55-.4,1.72-3,2.16-3.66A.39.39,0,0,0,146.45,136.24Z" style="fill:#263238"></path><path d="M144.75,140.21c-.6,7-.9,14-1.33,20.95s-.84,13.74-1.44,20.6c-1.1,12.71-3,25.57-8.3,37.31a61.26,61.26,0,0,1-4.57,8.67c-1.63,2.49-3.87,5.5-5.71,7.93-.06.08.09,0,.16-.11a62.9,62.9,0,0,0,5.34-6.29,59.56,59.56,0,0,0,4.67-7.64,73.94,73.94,0,0,0,6.1-16.7c3.3-13.36,3.8-27.27,4.59-41,.46-7.92,1-15.86,1.15-23.79C145.41,139.76,144.79,139.8,144.75,140.21Z" style="fill:#263238"></path><path d="M97.51,203.27c-1.6,1.76-3.11,3.61-4.69,5.39s-3.08,3.66-4.62,5.49C85.13,217.81,82,221.4,78.83,225c-1.79,2.08-3.61,4.15-5.55,6.08a.08.08,0,0,0,.11.11c3.37-3.45,6.94-6.7,10.19-10.27S90,213.75,93,210c.8-1,1.52-2.08,2.26-3.13s1.66-2.27,2.42-3.45C97.71,203.29,97.58,203.19,97.51,203.27Z" style="fill:#263238"></path><path d="M139.58,122a14.62,14.62,0,0,1-7.55,4.73,12,12,0,0,1-4.51.22c-1.59-.23-3.71-.67-4.79-2-.06-.08-.18,0-.11.11a11.16,11.16,0,0,0,2.26,1.74,9.71,9.71,0,0,0,2.27.85,12,12,0,0,0,4.92.07,10.78,10.78,0,0,0,7.81-5.54C140,122.08,139.73,121.87,139.58,122Z" style="fill:#263238"></path><path d="M123.93,116.21A28.31,28.31,0,0,0,115,140c.26,2.5,1.11,4.85,1.45,7.33.41,2.87-.44,5.7-1.21,8.44-1.51,5.43-11,43.11-13.56,48s-6.17,8.79-9.59,12.88q-5.46,6.53-11,13-11.2,12.91-22.79,25.52c-1,1-1.9,2.1-2.9,3.12-.07.07,0,.18.12.11,3.84-4.18,7.83-8.22,11.69-12.39s7.72-8.45,11.5-12.75,7.46-8.57,11.12-12.91c3.47-4.12,7.13-8.19,10.18-12.65a32.24,32.24,0,0,0,3.57-6.71c1-2.53,12.33-45.35,13-48.07a17.2,17.2,0,0,0,.53-4.1,16.1,16.1,0,0,0-.57-3.71,33.24,33.24,0,0,1-1.15-7.22,28.15,28.15,0,0,1,.65-6.78,29.08,29.08,0,0,1,5.91-12.19,32.78,32.78,0,0,1,2.26-2.45C124.21,116.27,124,116.11,123.93,116.21Z" style="fill:#263238"></path><path d="M123,112.16c1,1.47,10.9,11.58,14.92,14.18,12.21,7.93,25.79,11.21,27.65,10l6-16.41s5.67-2.33,7.7-7.2c2.21-5.31.13-23.09-.23-24.23-1.46-4.56-6.93-9.06-13.21-7.61C148.75,84.84,123,112.16,123,112.16Z" style="fill:#FFC727"></path><path d="M164.25,78.64c-6.59-2.1-38.52-10.6-48.66-6.51-9.85,4-21.07,11.3-25.79,14.94-3.6,2.79,0,23.33,4,22.09,7.19-2.28,29.1-17.48,31-19s27-1.2,38.48-2.36C173.56,86.79,175.34,82.19,164.25,78.64Z" style="fill:#ad6359"></path><path d="M101.63,105.2s-6,6.22-10.06,10.11c-2.28,2.16-6.53,5.53-8.93,6.36-3.6,1.23-19.44,4.1-20.22.27-.7-3.46,13.22-4.2,13.22-4.2s-14,2-14.06-2.34,15.75-3.06,15.75-3.06-14.41,1.71-13.78-2.76c.47-3.38,14.87-3,14.87-3S66,107.92,66.36,104.43c.37-3.87,13.69-4.39,13.69-4.39,2.35-8.75,7-12,10.65-13.84C91.57,85.75,101.63,105.2,101.63,105.2Z" style="fill:#ad6359"></path><path d="M80.52,117.37c-1.64.29-3.29.6-4.94.74s-3.32.24-5,.23a27.79,27.79,0,0,1-6.45-.65,60.27,60.27,0,0,0,11.4,0c1.65-.15,3.31-.21,5-.35C80.56,117.3,80.56,117.36,80.52,117.37Z" style="fill:#263238"></path><path d="M80.1,111.39c-2.1.28-4.18.64-6.3.83s-4.11.18-6.23.23c-.16,0-.11-.09.06-.1,2.1-.13,4-.41,6.15-.56s4.22-.23,6.32-.45C80.13,111.33,80.13,111.38,80.1,111.39Z" style="fill:#263238"></path><path d="M80.66,106.19a47.9,47.9,0,0,1-9.72.53c-.16,0-.08-.11.08-.11,3.24-.12,5.78-.19,9.62-.53C80.7,106.07,80.73,106.18,80.66,106.19Z" style="fill:#263238"></path><path d="M148.31,72.57l6.16,17.53s10.46-.86,14.34-2.11c5.88-1.9,8.32-3.81,1-8.1C162.15,75.39,148.31,72.57,148.31,72.57Z" style="fill:#FFC727"></path><path d="M164.83,88.84c-1.75.15-3.48.43-5.22.6-.88.09-4.2.54-5,.66,0,0-.57-1.36-.73-1.64,0-.08-.13,0-.11,0,.09.31.53,2,.57,2s1.81-.11,2.64-.16a26.73,26.73,0,0,0,2.68-.27L160,90c.67.07,1.32.19,2,.2a10.57,10.57,0,0,0,2-.21c.05,0,0-.07,0-.07-.69,0-1.37-.09-2.06-.1-.31,0-.63,0-.94,0a25.85,25.85,0,0,0,3.81-.94S164.89,88.83,164.83,88.84Z" style="fill:#263238"></path><path d="M156.53,85.27c-.44-1.28-.88-2.56-1.35-3.82s-.93-2.46-1.44-3.67c-.27-.65-.55-1.29-.85-1.93-.11-.23-.63-1.33-.72-1.45a0,0,0,0,0,0,0c.9,2.5,1.74,5,2.66,7.53.46,1.23.94,2.45,1.42,3.67a29.87,29.87,0,0,0,1.44,3.52.07.07,0,0,0,.12,0A32.11,32.11,0,0,0,156.53,85.27Z" style="fill:#263238"></path><path d="M171.46,82.68c-.34.82-.16,7.76,3.17,9.86,1.09.69,5.08-5.08,5.08-5.08l.39-.36,5.48-5-4.86-11S171.93,81.54,171.46,82.68Z" style="fill:#ad6359"></path><path d="M185.58,82.08l-5.48,5a18.67,18.67,0,0,1-2.22-12.63c1.58-1.93,2.84-3.43,2.84-3.43Z" style="fill:#263238"></path><path d="M200.87,75.19c-4,12.41-11.9,11.41-14.58,10.54-2.43-.79-10.6-3.79-7.88-16.55s9.76-14.81,15.41-13.3S204.89,62.78,200.87,75.19Z" style="fill:#ad6359"></path><path d="M199.19,72.56c-.27-.15-.49-.33-.74-.5s-.54-.32-.67-.66a.47.47,0,0,1,.21-.52,1.17,1.17,0,0,1,1.16.17,1.74,1.74,0,0,1,.76,1A.5.5,0,0,1,199.19,72.56Z" style="fill:#263238"></path><path d="M190.72,69.44a6.49,6.49,0,0,0,.88.16,1.44,1.44,0,0,0,.94,0,.47.47,0,0,0,.21-.53,1.14,1.14,0,0,0-.95-.67,1.7,1.7,0,0,0-1.21.16A.49.49,0,0,0,190.72,69.44Z" style="fill:#263238"></path><path d="M191.1,73.15s-.08,0-.09,0c-.29.84-.76,1.75-1.61,1.74,0,0,0,0,0,0C190.35,75.21,191,74,191.1,73.15Z" style="fill:#263238"></path><path d="M190.68,72c-1.3-.61-2.41,2-1.21,2.6S191.77,72.51,190.68,72Z" style="fill:#263238"></path><path d="M190.11,71.92c-.3,0-.64.22-.93.13s-.46-.48-.56-.84c0,0,0,0-.05,0-.22.51-.25,1.11.26,1.41a1.06,1.06,0,0,0,1.35-.47C190.25,72.07,190.22,71.9,190.11,71.92Z" style="fill:#263238"></path><path d="M196.38,74.93s.05.07,0,.1c-.38.81-.68,1.79-.06,2.38,0,0,0,.06,0,0C195.49,76.94,195.9,75.64,196.38,74.93Z" style="fill:#263238"></path><path d="M197.48,74.4c1.35.46.32,3.14-.93,2.71S196.34,74,197.48,74.4Z" style="fill:#263238"></path><path d="M198,74.79c.16.22.27.56.51.67s.62-.07.91-.28c0,0,0,0,0,0-.18.51-.56,1-1.09.89s-.64-.65-.57-1.2C197.78,74.81,197.91,74.7,198,74.79Z" style="fill:#263238"></path><path d="M188.86,79.6c.1.27.17.62.45.79a2.53,2.53,0,0,0,.95.21s.05,0,0,.05a1.18,1.18,0,0,1-1.23-.05.94.94,0,0,1-.29-1S188.84,79.55,188.86,79.6Z" style="fill:#263238"></path><path d="M193.51,78s-.34,1.3-.57,1.88c0,.06-.17,0-.38,0h0a3,3,0,0,1-2.25-2.12.06.06,0,0,1,.11,0,4.58,4.58,0,0,0,2.23,1.75c.1-.15.49-2.24.58-2.21a5.41,5.41,0,0,1,1.2.83c.77-2.68,1.1-5.47,1.9-8.13,0-.09.18-.06.17,0a45.26,45.26,0,0,1-1.68,8.84C194.71,79.14,193.7,78.22,193.51,78Z" style="fill:#263238"></path><path d="M178.94,70.46c3.05,1.13,7.7-7.76,8.26-8.85-.32.7-2,4.47-1.75,4.74a3.29,3.29,0,0,0,1,.2h0a10.25,10.25,0,0,1,.67-1.32c.11-.2-.11.49-.33,1.36l.62.07a11.73,11.73,0,0,1,1.47-2.77c.23-.33-.33,1.33-.56,2.88a39.47,39.47,0,0,1,8.43,1.83c.76.28,1.41.56,2,.82a21.34,21.34,0,0,1,.8-2.08,12.17,12.17,0,0,1-.38,2.28c.3.14.58.28.82.41.73-1.56,1-4.4,1.11-3.9a12.11,12.11,0,0,1-.07,4.53c1,.65,1.21,1,1.36.72a14.37,14.37,0,0,0-.68-9.85c-2.31-5.07-9.44-9-15.9-5.3,0,0-4.4.84-6.45,4.28S177.18,69.81,178.94,70.46Z" style="fill:#263238"></path><path d="M180.07,70.77s-1-4.86-3.13-4.64-2.42,6.49-.74,8.07a2.2,2.2,0,0,0,3.18.06Z" style="fill:#ad6359"></path><path d="M176.89,67.93s-.06,0,0,0a5.54,5.54,0,0,1,1.29,4.33,1.21,1.21,0,0,0-1.55-1s0,.08,0,.09a1.34,1.34,0,0,1,1.19,1A6.46,6.46,0,0,1,178,73.8c0,.15.27.18.28,0v0C179.06,72,178.73,68.92,176.89,67.93Z" style="fill:#263238"></path><path d="M192.7,79.39a3.75,3.75,0,0,1-1.71.7,1.68,1.68,0,0,1-1-.21c-.65-.38-.48-1-.21-1.53a3.67,3.67,0,0,1,.55-.74A4.65,4.65,0,0,0,192.7,79.39Z" style="fill:#263238"></path><path d="M191,80.09a1.68,1.68,0,0,1-1-.21c-.65-.38-.48-1-.21-1.53A1.7,1.7,0,0,1,191,80.09Z" style="fill:#ff99ba"></path></g></svg>