<svg xmlns="http://www.w3.org/2000/svg" xmlns:xlink="http://www.w3.org/1999/xlink" viewBox="0 0 500 500"><defs><clipPath id="freepik--clip-path--inject-28"><path d="M169.27,147.54s13.62-15.61,33.49-15.61c0,0,.66-12.13,14.22-14.75s16.2,9.49,16.2,9.49,10-5.31,23.47,0,10.73,20.82,10.73,20.82,38.81-1.26,45.47,5.85H138.4S141.92,144.64,169.27,147.54Z" style="fill:#E39E92;stroke:#263238;stroke-miterlimit:10"></path></clipPath><clipPath id="freepik--clip-path-2--inject-28"><path d="M240,259.19s-10.86-12.45-26.7-12.45c0,0-.53-9.68-11.35-11.76S189,242.54,189,242.54s-8-4.23-18.72,0-8.56,16.61-8.56,16.61-31-1-36.27,4.67H264.62S261.81,256.88,240,259.19Z" style="fill:#E39E92;stroke:#263238;stroke-miterlimit:10"></path></clipPath><clipPath id="freepik--clip-path-3--inject-28"><path d="M88.72,163.47s6.45-7.4,15.86-7.4a7.87,7.87,0,0,1,6.74-7c6.42-1.24,7.67,4.49,7.67,4.49a14.07,14.07,0,0,1,11.12,0c6.37,2.52,5.08,9.87,5.08,9.87s18.39-.6,21.54,2.77H74.09S75.76,162.1,88.72,163.47Z" style="fill:#E39E92;stroke:#263238;stroke-miterlimit:10"></path></clipPath><clipPath id="freepik--clip-path-4--inject-28"><path d="M378.15,274.36S417.37,324.47,420.2,340s-18.68,68.5-15.66,91.42c.74,5.63,9.81,15.16,15.66,16.47,14.31,3.2,9.05,5.27,6.94,6.33s-37.91,0-41,0c-13.2,0,.83-6.95,1.57-39.47.39-16.93-7.2-41.67,6-67.48L346.09,306.1Z" style="fill:#fff;stroke:#263238;stroke-linecap:round;stroke-linejoin:round"></path></clipPath><clipPath id="freepik--clip-path-5--inject-28"><path d="M289.21,253.16s-50.07,5.84-58,10c-17.36,9.19-13.4,25.8-4.44,31.95,4,2.72,66.78,43.71,68.05,50,1.05,5.27-2.41,14.91-12.66,24.52-1.78,1.67.24,4.43,5.8,2.91s14.68-7.35,16.71-10.29c4.07-5.88,10.69-9.84,13.88-12.66,4.49-4,1.23-6.05-17.4-18.2-12.13-7.91-20.84-32.17-35.39-40.88L313.69,288Z" style="fill:#fff;stroke:#263238;stroke-linecap:round;stroke-linejoin:round"></path></clipPath><clipPath id="freepik--clip-path-6--inject-28"><path d="M339.07,264.93a24.94,24.94,0,0,1-1.79,4.59c-10.75,22.07-56.53,60.53-60.76,55.1-1.09-1.4-3.26-6.09-5.83-12.47-8.16-20.22-20.36-57.47-14.93-61.16,7.13-4.85,40.22-4.87,40.22-4.87,1.3-3.92,3.31-6,5.25-7.18a9.13,9.13,0,0,1,5.11-1.27c.29,0,.46.05.46.05s26.73,4.56,31.95,18.34A14.11,14.11,0,0,1,339.07,264.93Z" style="fill:#E39E92;stroke:#263238;stroke-miterlimit:10"></path></clipPath><clipPath id="freepik--clip-path-7--inject-28"><path d="M343.49,156.07S348,97.51,306.42,95.92s-45.1,71.26-2.08,96.75l6.4-16.8S278.13,135.16,297.39,121s32.73,23.57,30,46.52Z" style="fill:#fff;stroke:#263238;stroke-linecap:round;stroke-linejoin:round"></path></clipPath><clipPath id="freepik--clip-path-8--inject-28"><path d="M352.09,156.25s28.52-51.36,64.1-29.73-1.68,84.32-51.62,81.85l3.93-17.54s49.65-16,41.41-38.43S369.6,154,359.26,174.68Z" style="fill:#fff;stroke:#263238;stroke-linecap:round;stroke-linejoin:round"></path></clipPath><clipPath id="freepik--clip-path-9--inject-28"><path d="M275.2,114.86s-2.11,6.84-12.3,12.11-32.34,15.35-31.64,24,22.63,26,51.57,30.86V154.74l-22.73-5.39s14.92-17.41,22.59-19.69S275.2,114.86,275.2,114.86Z" style="fill:#fff;stroke:#263238;stroke-linecap:round;stroke-linejoin:round"></path></clipPath><clipPath id="freepik--clip-path-10--inject-28"><path d="M267.47,149.35s2.11-4.45,5.28.17c0,0,42.79,1.89,61.48,6.73,36.23,9.39,63,30.77,63,30.77,5.34-2.23,4.11,3.81,4.11,3.81s-8.08,30.35-20.9,32.71c0,0,2.83,31-21.23,37-19.89,4.94-60.72-14.62-70-61C289.26,199.51,267.47,175.46,267.47,149.35Z" style="fill:#E39E92;stroke:#263238;stroke-miterlimit:10"></path></clipPath><clipPath id="freepik--clip-path-11--inject-28"><path d="M326.56,153.81a40.11,40.11,0,0,0-6.95,4.24,49.39,49.39,0,0,0-5.91,5.31c-.17.19-.36.38-.53.58a61.49,61.49,0,0,0-4.87,5.94q-1.21,1.65-2.31,3.36c-1.46,2.23-2.78,4.5-4,6.77-1,1.87-1.91,3.74-2.75,5.56-1.31,2.84-2.44,5.59-3.4,8.13s-1.8,5-2.45,7.08c-1.38,4.39-2,7.21-2,7.21a17.52,17.52,0,0,1-1.93-1.56c-3.46-3.29-5.18-8-5.58-13.26a38.78,38.78,0,0,1,.29-8.07,58.08,58.08,0,0,1,2.58-10.73c.62-1.82,1.31-3.64,2.08-5.41a67.71,67.71,0,0,1,4.52-8.63c1-1.57,2-3.06,3-4.45a41,41,0,0,1,5.77-6.32,23.8,23.8,0,0,1,4.34-3.06,12,12,0,0,1,6.1-1.61l.28,0a38.2,38.2,0,0,1,5.62.63C329.09,147.64,326.56,153.81,326.56,153.81Z" style="fill:#fff;stroke:#263238;stroke-linecap:round;stroke-linejoin:round"></path></clipPath><clipPath id="freepik--clip-path-12--inject-28"><path d="M384.29,228.56c.27,6.39-4.19,5.19-4.19,5.19-1-.72-2-1.48-3-2.27A47.48,47.48,0,0,1,371.5,226q-1.72-2-3.24-4.17-1.69-2.43-3.15-5t-2.76-5.48c-.6-1.32-1.16-2.66-1.68-4-1-2.47-1.78-5-2.5-7.46-.24-.82-.47-1.64-.68-2.46-.95-3.61-1.67-7.16-2.22-10.54,0-.14,0-.27-.06-.41a132.32,132.32,0,0,1-1.54-15.24c-.24-5.54-.05-9-.05-9,.52-7,7.36-9.81,12.77-7.5a10,10,0,0,1,4.15,3.35,14.33,14.33,0,0,1,2.41,9,25.69,25.69,0,0,1-.5,4.38c-.16.81-.28,1.64-.39,2.48a48.74,48.74,0,0,0,0,10.53c.19,1.93.47,3.89.83,5.84.54,3.05,1.25,6.1,2.06,9.07q.72,2.67,1.52,5.23c1,3.12,2,6.1,3,8.86.62,1.76,1.23,3.41,1.78,5a77.26,77.26,0,0,1,3,9.25A6,6,0,0,1,384.29,228.56Z" style="fill:#fff;stroke:#263238;stroke-linecap:round;stroke-linejoin:round"></path></clipPath><clipPath id="freepik--clip-path-13--inject-28"><path d="M378.19,199.51s26.72-7.61,34.8,0,12.31,13.72-3.51,21.56-38-3.41-38-3.41Z" style="fill:#fff;stroke:#263238;stroke-linecap:round;stroke-linejoin:round"></path></clipPath><clipPath id="freepik--clip-path-14--inject-28"><path d="M393.05,188.54a16.47,16.47,0,0,1-1.26,3.34,10.91,10.91,0,0,1-1.43,2.23,21.52,21.52,0,0,0-2.44,4.34c-.28.61-.56,1.24-.83,1.86-1,2.25-1.79,4.38-2.07,5.12l-.11.28c-.33,1.79-.65,3.3-1,4.62A21.61,21.61,0,0,1,379.8,219c-2.54,3.34-13.72,2.12-18.35.81a10.87,10.87,0,0,1-3.83-2.1,18,18,0,0,1-3.89-4.44,21.28,21.28,0,0,1-2.44-5.5,31,31,0,0,0-2-5.07c-.53-1.1-1.1-2.18-1.66-3.17a62.89,62.89,0,0,0-3.87-6s1.6-3.49,4.54-1.36a9.91,9.91,0,0,1,2.06,2.12c1,1.37,1.91,2.93,2.69,4.12a4.45,4.45,0,0,0,1.69,1.81,5.06,5.06,0,0,0,1,.21.19.19,0,0,1,.09,0l.37,0a4.38,4.38,0,0,0,2.09-.36,2.75,2.75,0,0,0,.77-.52.43.43,0,0,0,.19-.17,3.93,3.93,0,0,0,.41-.55,12.2,12.2,0,0,0,1.44-3.4h0a35.42,35.42,0,0,0,1-5.4h0c.07-.68.14-1.37.19-2a49.25,49.25,0,0,0,.16-5c0-1.19-.05-2.48,0-3.76s.09-2.45.21-3.58c.38-3.28,1.29-5.72,3.35-4.93,1.85.71,1.82,1.94,1.78,4.84,0,1,0,2.22,0,3.67a49.55,49.55,0,0,0,1,7.6h0c.06.32.13.65.2,1l1.31.17c.06.24.28-.21.58-1.14h0a60.84,60.84,0,0,0,1.74-7.55c.21-1.16.39-2.38.55-3.62s.25-2.24.33-3.35c.41-5.53,4-3.48,4.82-1.74.47,1,.26,3.28-.05,5.78-.15,1.22-.32,2.49-.46,3.7-.06.6-.11,1.19-.15,1.75-.16,2.32-.35,4.72-.49,6.38,0,.23,0,.44-.05.64l1.53.84.4-.71h0a40.33,40.33,0,0,0,2.91-6.5c.53-1.54.84-2.78,1.12-3.74.53-1.82.93-2.68,2.39-2.77,1.63-.1,2.12,2,2,4.39a18.58,18.58,0,0,1-1.21,5.62h0a10.19,10.19,0,0,1-.45.93,20,20,0,0,0-1.63,5c-.07.33-.14.68-.22,1l.78,1.17c.32-.4.63-.8.9-1.18a0,0,0,0,1,0,0,40.8,40.8,0,0,0,2.57-4h0a31.91,31.91,0,0,1,2-3.29,2,2,0,0,1,2-1C393.43,185,393.52,186.62,393.05,188.54Z" style="fill:#fff;stroke:#263238;stroke-linecap:round;stroke-linejoin:round"></path></clipPath><clipPath id="freepik--clip-path-15--inject-28"><path d="M266,107.32a11.22,11.22,0,0,0,.87,2.3,7.37,7.37,0,0,0,1,1.53,14.69,14.69,0,0,1,1.68,3l.57,1.28c.67,1.54,1.23,3,1.42,3.52l.08.19c.22,1.23.45,2.27.68,3.17a14.7,14.7,0,0,0,2.83,6c1.75,2.3,9.44,1.46,12.62.57a7.81,7.81,0,0,0,2.63-1.45,12.19,12.19,0,0,0,2.67-3,14.28,14.28,0,0,0,1.68-3.79,22,22,0,0,1,1.36-3.48c.36-.76.76-1.5,1.14-2.18a41.8,41.8,0,0,1,2.66-4.1s-1.1-2.4-3.12-.94a7.31,7.31,0,0,0-1.42,1.46c-.7.94-1.31,2-1.84,2.84-.43.64-.81,1.12-1.17,1.24a2.76,2.76,0,0,1-.67.14l-.06,0-.26,0a3,3,0,0,1-1.44-.25,1.75,1.75,0,0,1-.53-.35.36.36,0,0,1-.13-.12,4.17,4.17,0,0,1-.28-.38,8.36,8.36,0,0,1-1-2.34h0a24.79,24.79,0,0,1-.69-3.72h0c-.05-.47-.1-.94-.13-1.4a31.27,31.27,0,0,1-.11-3.45c0-.82,0-1.7,0-2.58a23.9,23.9,0,0,0-.15-2.46c-.25-2.26-.88-3.94-2.29-3.39s-1.26,1.33-1.23,3.32c0,.7,0,1.53,0,2.53a34.74,34.74,0,0,1-.67,5.22h0c0,.22-.08.44-.13.68l-.9.11c0,.17-.2-.14-.4-.78h0A39.81,39.81,0,0,1,280,101c-.14-.79-.27-1.64-.37-2.49s-.18-1.53-.24-2.3c-.28-3.8-2.76-2.39-3.31-1.2-.32.7-.18,2.26,0,4,.1.84.22,1.71.31,2.54,0,.42.08.82.1,1.21.11,1.59.25,3.24.34,4.38,0,.16,0,.31,0,.44l-1.05.58c-.1-.16-.19-.33-.28-.49h0a27.45,27.45,0,0,1-2-4.46c-.36-1.06-.58-1.92-.77-2.58-.36-1.25-.64-1.84-1.65-1.9s-1.45,1.34-1.36,3a12.54,12.54,0,0,0,.83,3.86h0a5.47,5.47,0,0,0,.31.64,14.14,14.14,0,0,1,1.12,3.43q.06.34.15.72l-.53.81c-.23-.28-.44-.55-.63-.82h0a27.7,27.7,0,0,1-1.77-2.72h0a21.2,21.2,0,0,0-1.35-2.26,1.36,1.36,0,0,0-1.35-.69C265.72,104.87,265.66,106,266,107.32Z" style="fill:#fff;stroke:#263238;stroke-linecap:round;stroke-linejoin:round"></path></clipPath><clipPath id="freepik--clip-path-16--inject-28"><path d="M332.73,190.83c-11.72,0-15.94-12-16-24.23,0-14.67,4.56-21.7,16-21.7s16.49,5.71,16.46,20.74C349.17,180.05,344.35,190.83,332.73,190.83Z" style="fill:#fff;stroke:#263238;stroke-miterlimit:10"></path></clipPath></defs><g id="freepik--background-simple--inject-28"><path d="M67.93,167.09s-27.88,72,11.3,144.5S199.11,422.39,263.7,455.14s131.66,16.8,163.53-36.84-11.84-91.93-11.9-168.42,11.45-96.74-30-161.36-143.06-78.93-219.9-31S67.93,167.09,67.93,167.09Z" style="fill:#fff;opacity:0.7000000000000001"></path><path d="M438.86,205.45c-18.2-20.12-48.67-22.38-72.38-35.56-40.79-22.7-56.6-74.39-93.71-102.71-23.43-17.88-55.09-24.82-83.4-20.9-40.19,5.57-78,32.5-89.36,72a99.79,99.79,0,0,0-3.44,35.41c1.82,23.55,6.88,47.4,2.1,70.53-5.26,25.49-21.85,47-31.76,71.09-12.34,30-14,63.6-8.76,95.58,3.6,21.82,10.78,43.84,25.76,60.11,1.13,1.23,2.31,2.4,3.51,3.55H251c10.27-13.09,18-28.58,27.07-42.33,22.73-34.58,59.1-59.24,98.83-70.81,17.8-5.18,37.09-8.26,51.39-20.06,14.71-12.13,21.47-31.49,24.4-50.34C456.26,248.16,454.35,222.58,438.86,205.45Z" style="fill:#E39E92"></path><path d="M438.86,205.45c-18.2-20.12-48.67-22.38-72.38-35.56-40.79-22.7-56.6-74.39-93.71-102.71-23.43-17.88-55.09-24.82-83.4-20.9-40.19,5.57-78,32.5-89.36,72a99.79,99.79,0,0,0-3.44,35.41c1.82,23.55,6.88,47.4,2.1,70.53-5.26,25.49-21.85,47-31.76,71.09-12.34,30-14,63.6-8.76,95.58,3.6,21.82,10.78,43.84,25.76,60.11,1.13,1.23,2.31,2.4,3.51,3.55H251c10.27-13.09,18-28.58,27.07-42.33,22.73-34.58,59.1-59.24,98.83-70.81,17.8-5.18,37.09-8.26,51.39-20.06,14.71-12.13,21.47-31.49,24.4-50.34C456.26,248.16,454.35,222.58,438.86,205.45Z" style="fill:#fff;opacity:0.7000000000000001"></path></g><g id="freepik--Clouds--inject-28"><circle cx="152.06" cy="131.93" r="37.93" style="fill:#fff"></circle><path d="M169.27,147.54s13.62-15.61,33.49-15.61c0,0,.66-12.13,14.22-14.75s16.2,9.49,16.2,9.49,10-5.31,23.47,0,10.73,20.82,10.73,20.82,38.81-1.26,45.47,5.85H138.4S141.92,144.64,169.27,147.54Z" style="fill:#E39E92"></path><g style="clip-path:url(#freepik--clip-path--inject-28)"><path d="M169.27,147.54s13.62-15.61,33.49-15.61c0,0,.66-12.13,14.22-14.75s16.2,9.49,16.2,9.49,10-5.31,23.47,0,10.73,20.82,10.73,20.82,38.81-1.26,45.47,5.85H138.4S141.92,144.64,169.27,147.54Z" style="fill:#fff;opacity:0.5"></path></g><path d="M169.27,147.54s13.62-15.61,33.49-15.61c0,0,.66-12.13,14.22-14.75s16.2,9.49,16.2,9.49,10-5.31,23.47,0,10.73,20.82,10.73,20.82,38.81-1.26,45.47,5.85H138.4S141.92,144.64,169.27,147.54Z" style="fill:none;stroke:#263238;stroke-miterlimit:10"></path><path d="M240,259.19s-10.86-12.45-26.7-12.45c0,0-.53-9.68-11.35-11.76S189,242.54,189,242.54s-8-4.23-18.72,0-8.56,16.61-8.56,16.61-31-1-36.27,4.67H264.62S261.81,256.88,240,259.19Z" style="fill:#E39E92"></path><g style="clip-path:url(#freepik--clip-path-2--inject-28)"><path d="M240,259.19s-10.86-12.45-26.7-12.45c0,0-.53-9.68-11.35-11.76S189,242.54,189,242.54s-8-4.23-18.72,0-8.56,16.61-8.56,16.61-31-1-36.27,4.67H264.62S261.81,256.88,240,259.19Z" style="fill:#fff;opacity:0.5"></path></g><path d="M240,259.19s-10.86-12.45-26.7-12.45c0,0-.53-9.68-11.35-11.76S189,242.54,189,242.54s-8-4.23-18.72,0-8.56,16.61-8.56,16.61-31-1-36.27,4.67H264.62S261.81,256.88,240,259.19Z" style="fill:none;stroke:#263238;stroke-miterlimit:10"></path><path d="M88.72,163.47s6.45-7.4,15.86-7.4a7.87,7.87,0,0,1,6.74-7c6.42-1.24,7.67,4.49,7.67,4.49a14.07,14.07,0,0,1,11.12,0c6.37,2.52,5.08,9.87,5.08,9.87s18.39-.6,21.54,2.77H74.09S75.76,162.1,88.72,163.47Z" style="fill:#E39E92"></path><g style="clip-path:url(#freepik--clip-path-3--inject-28)"><path d="M88.72,163.47s6.45-7.4,15.86-7.4a7.87,7.87,0,0,1,6.74-7c6.42-1.24,7.67,4.49,7.67,4.49a14.07,14.07,0,0,1,11.12,0c6.37,2.52,5.08,9.87,5.08,9.87s18.39-.6,21.54,2.77H74.09S75.76,162.1,88.72,163.47Z" style="fill:#fff;opacity:0.5"></path></g><path d="M88.72,163.47s6.45-7.4,15.86-7.4a7.87,7.87,0,0,1,6.74-7c6.42-1.24,7.67,4.49,7.67,4.49a14.07,14.07,0,0,1,11.12,0c6.37,2.52,5.08,9.87,5.08,9.87s18.39-.6,21.54,2.77H74.09S75.76,162.1,88.72,163.47Z" style="fill:none;stroke:#263238;stroke-miterlimit:10"></path></g><g id="freepik--Building--inject-28"><path d="M223,454.64h4.59c1.6-8.75,6.36-28.3,19.11-46.66a9.1,9.1,0,0,0,8.87,1.82s-4.19-3-8.28-2.67a94.45,94.45,0,0,1,5.9-7.53L251.26,398c1.69-3.72-.7-7.31-.7-7.31-1.82,3.28-1.89,5.47-1.5,6.85l-.89,1.06c-.62-2-1.87-4.87-4.22-6.36a8.56,8.56,0,0,0,3.27,7.52,113.06,113.06,0,0,0-13.49,21.54,10.09,10.09,0,0,0-3.58-4.61,8.48,8.48,0,0,0,2.53,6.84A127.37,127.37,0,0,0,223,454.64Z" style="fill:#263238"></path><path d="M217.82,454.64h4.51a340.44,340.44,0,0,1,2.43-52c4.87,1.49,8.9-2.35,8.9-2.35-2.94-1.45-6.36-.66-8.61.2a214.56,214.56,0,0,1,5.52-27.71c5,1.72,9.18-2.24,9.18-2.24-2.94-1.45-6.34-.67-8.59.18,1-3.32,2-6.59,3.17-9.77l-2-.72.11-.2c6.37,1.74,10-4.34,10-4.34-4.23-.79-8.21,2.36-9.69,3.7,1.58-3.67-.75-7.18-.75-7.18-2.11,3.78-1.88,6.11-1.3,7.42l-.64-.23a169.08,169.08,0,0,0-6.54,23.28c-1.13-2.15-2.94-4.52-5.6-5,0,0,1.28,6.3,4.95,8.23C217.33,414.42,217.48,443.2,217.82,454.64Z" style="fill:#263238"></path><path d="M194.9,369.44c4.45,6.31,7.83,15.13,10.39,24.82a8.18,8.18,0,0,0-7.82.71,8.55,8.55,0,0,0,8.34,1.33,248.78,248.78,0,0,1,5.59,33.48c-1.88-.92-4.71-1.9-7.33-1.24a8.52,8.52,0,0,0,7.5,2.84c1,9.7,1.4,18.07,1.59,23.26h4.53c-.33-9.92-1.52-31.36-5.73-51.76,4.28-.69,5.81-5.17,5.81-5.17-2.68.07-4.86,1.92-6.18,3.41-2.7-12.52-6.58-24.49-12.13-33a9.36,9.36,0,0,0,1-7.74,16.92,16.92,0,0,0-2.61,6.23l-2.32,1.68c-1.67-.06-6.18,0-8.85,2.56A8.62,8.62,0,0,0,194.9,369.44Z" style="fill:#263238"></path><path d="M261.87,393.72c-5.35-1-10.3,4.28-10.3,4.28C258.13,400,261.87,393.72,261.87,393.72Z" style="fill:#263238"></path><path d="M255.72,385.62c-4.31,3.32-3.67,10.53-3.67,10.53C257.9,392.59,255.72,385.62,255.72,385.62Z" style="fill:#263238"></path><path d="M197,366.07s-2-7.82-7.09-8.8C190,357.27,191.7,366,197,366.07Z" style="fill:#263238"></path><path d="M196.59,367.35s-7-5.52-11.11-2.13C185.48,365.22,192.06,369.91,196.59,367.35Z" style="fill:#263238"></path><path d="M196.41,354.94s-1.42,6.06,1.28,9.75C197.69,364.69,200.41,360.2,196.41,354.94Z" style="fill:#263238"></path><path d="M238.08,348.57s-4.43,4.37-4.1,8.93C234,357.5,238.67,355.14,238.08,348.57Z" style="fill:#263238"></path><path d="M253,398.65s2.72,4.49,9.23,3.39C262.23,402,257.52,398,253,398.65Z" style="fill:#263238"></path><path d="M248.16,395.84s.73-6.17-2.37-9.53C245.79,386.31,243.59,391.08,248.16,395.84Z" style="fill:#263238"></path><path d="M229.74,359.41c.9-5.26-4-7.84-4-7.84C225.65,359.14,229.74,359.41,229.74,359.41Z" style="fill:#263238"></path><path d="M229.74,354.55c2.43-4.76-1.51-8.69-1.51-8.69C225.91,353.07,229.74,354.55,229.74,354.55Z" style="fill:#263238"></path><path d="M235.63,344.75c-5,5.71-2,8.58-2,8.58C237.7,349.92,235.63,344.75,235.63,344.75Z" style="fill:#263238"></path><path d="M59.8,411.28a6.08,6.08,0,0,1-1.67,5.58,80,80,0,0,1,11.34,14,7.11,7.11,0,0,1,2.14-3.56,6,6,0,0,1-1.2,5,89.8,89.8,0,0,1,9.81,22.26H76.88a87.76,87.76,0,0,0-17.66-32,6.44,6.44,0,0,1-6.1,2s2.7-2.45,5.61-2.59c-1.49-1.64-3.09-3.25-4.8-4.8l1.2-1.33a5.79,5.79,0,0,1-.13-5.21c1.57,2.16,1.81,3.69,1.65,4.7l.71.67A8.21,8.21,0,0,1,59.8,411.28Z" style="fill:#263238"></path><path d="M74.09,405c6.83,21.07,9,42.89,9.57,49.61h-3.2A242.82,242.82,0,0,0,74.21,417c-3.3,1.46-6.47-.9-6.47-.9,2-1.27,4.43-1,6.08-.59a153.25,153.25,0,0,0-6.24-19.07c-3.37,1.64-6.66-.8-6.66-.8,1.94-1.27,4.4-1,6.06-.6-1-2.26-2-4.48-3.06-6.62l1.32-.67a1,1,0,0,0-.09-.13c-4.34,1.76-7.43-2.21-7.43-2.21,2.92-.92,6,1,7.15,1.78a5.79,5.79,0,0,1-.08-5.12c1.81,2.48,1.85,4.15,1.55,5.12l.43-.22a121,121,0,0,1,6.59,15.86c.61-1.62,1.69-3.44,3.52-4C76.88,398.81,76.51,403.35,74.09,405Z" style="fill:#263238"></path><path d="M92.44,391.06c-2.6,4.83-4.23,11.34-5.21,18.39a5.82,5.82,0,0,1,5.57-.17A6.08,6.08,0,0,1,87,410.93,176.47,176.47,0,0,0,85.94,435a8,8,0,0,1,5.06-1.5,6,6,0,0,1-5,2.64c.17,8.33.73,15.24,1,18.49H83.77a233.13,233.13,0,0,1-.51-38.55c-3.08-.12-4.54-3.15-4.54-3.15a6.52,6.52,0,0,1,4.65,1.88c.84-9.05,2.55-17.82,5.74-24.28a6.67,6.67,0,0,1-1.35-5.37,12,12,0,0,1,2.37,4.17l1.77,1c1.18-.19,4.37-.52,6.46,1A6.07,6.07,0,0,1,92.44,391.06Z" style="fill:#263238"></path><path d="M47.29,413.89C51,412.73,54.92,416,54.92,416,50.47,418,47.29,413.89,47.29,413.89Z" style="fill:#263238"></path><path d="M50.94,407.65c3.32,2,3.48,7.11,3.48,7.11C50,412.75,50.94,407.65,50.94,407.65Z" style="fill:#263238"></path><path d="M90.64,388.87s.74-5.68,4.26-6.8C94.9,382.07,94.4,388.37,90.64,388.87Z" style="fill:#263238"></path><path d="M91.07,389.74s4.45-4.49,7.65-2.45C98.72,387.29,94.48,391.15,91.07,389.74Z" style="fill:#263238"></path><path d="M90.14,381s1.52,4.15-.07,7C90.07,388,87.77,385,90.14,381Z" style="fill:#263238"></path><path d="M60.22,380s3.5,2.7,3.66,6C63.88,386,60.37,384.71,60.22,380Z" style="fill:#263238"></path><path d="M54,416.61s-1.53,3.39-6.21,3.17C47.75,419.78,50.72,416.51,54,416.61Z" style="fill:#263238"></path><path d="M57.14,414.21s-1-4.29.86-6.92C58,407.29,60,410.46,57.14,414.21Z" style="fill:#263238"></path><path d="M67,387c-1.08-3.63,2.18-5.87,2.18-5.87C69.88,386.42,67,387,67,387Z" style="fill:#263238"></path><path d="M66.61,383.53c-2.12-3.14.33-6.25.33-6.25C69.18,382.16,66.61,383.53,66.61,383.53Z" style="fill:#263238"></path><path d="M61.63,377.13c4,3.6,2.17,5.87,2.17,5.87C60.61,381,61.63,377.13,61.63,377.13Z" style="fill:#263238"></path><path d="M253.92,437.13a2.48,2.48,0,0,0,.67,2.26,32.61,32.61,0,0,0-4.57,5.66,2.92,2.92,0,0,0-.86-1.43,2.41,2.41,0,0,0,.48,2,36.2,36.2,0,0,0-4,9H247a35.28,35.28,0,0,1,7.13-12.92,2.59,2.59,0,0,0,2.46.82,4.26,4.26,0,0,0-2.27-1c.6-.66,1.25-1.31,1.94-1.94l-.48-.54a2.32,2.32,0,0,0,.05-2.1,2.66,2.66,0,0,0-.67,1.9l-.28.27A3.33,3.33,0,0,0,253.92,437.13Z" style="fill:#263238"></path><path d="M248.15,434.61a95,95,0,0,0-3.86,20h1.29a98.92,98.92,0,0,1,2.52-15.2,2.84,2.84,0,0,0,2.62-.36,3.18,3.18,0,0,0-2.46-.24,62.35,62.35,0,0,1,2.52-7.7,2.82,2.82,0,0,0,2.69-.32,3.15,3.15,0,0,0-2.45-.24c.39-.92.8-1.81,1.24-2.68l-.54-.27,0-.05a2.69,2.69,0,0,0,3-.89,3.55,3.55,0,0,0-2.88.72,2.37,2.37,0,0,0,0-2.07,2.39,2.39,0,0,0-.63,2.07l-.17-.09a48.36,48.36,0,0,0-2.66,6.4A2.52,2.52,0,0,0,247,432.1,3.89,3.89,0,0,0,248.15,434.61Z" style="fill:#263238"></path><path d="M240.74,429a22.9,22.9,0,0,1,2.11,7.42,2.36,2.36,0,0,0-2.25-.06,2.46,2.46,0,0,0,2.33.66,71.56,71.56,0,0,1,.44,9.72,3.28,3.28,0,0,0-2.05-.6,2.47,2.47,0,0,0,2,1.06c-.07,3.37-.29,6.15-.41,7.47h1.3a94.84,94.84,0,0,0,.2-15.56,2.34,2.34,0,0,0,1.83-1.28,2.59,2.59,0,0,0-1.87.76,29.16,29.16,0,0,0-2.32-9.8,2.68,2.68,0,0,0,.54-2.17,4.71,4.71,0,0,0-.95,1.68l-.72.4a3.76,3.76,0,0,0-2.61.43A2.46,2.46,0,0,0,240.74,429Z" style="fill:#263238"></path><path d="M259,438.18c-1.49-.46-3.08.87-3.08.87A2.68,2.68,0,0,0,259,438.18Z" style="fill:#263238"></path><path d="M257.5,435.67c-1.34.79-1.41,2.87-1.41,2.87A2.68,2.68,0,0,0,257.5,435.67Z" style="fill:#263238"></path><path d="M241.47,428.09s-.3-2.3-1.72-2.75C239.75,425.34,240,427.88,241.47,428.09Z" style="fill:#263238"></path><path d="M241.3,428.44s-1.8-1.82-3.09-1C238.21,427.45,239.92,429,241.3,428.44Z" style="fill:#263238"></path><path d="M241.67,424.9a4,4,0,0,0,0,2.82A2.53,2.53,0,0,0,241.67,424.9Z" style="fill:#263238"></path><path d="M253.75,424.51a4,4,0,0,0-1.47,2.41A2.54,2.54,0,0,0,253.75,424.51Z" style="fill:#263238"></path><path d="M256.28,439.28a2.53,2.53,0,0,0,2.51,1.28A3.94,3.94,0,0,0,256.28,439.28Z" style="fill:#263238"></path><path d="M255,438.32a4,4,0,0,0-.34-2.8A2.54,2.54,0,0,0,255,438.32Z" style="fill:#263238"></path><path d="M251,427.32a2.26,2.26,0,0,0-.88-2.38C249.85,427.1,251,427.32,251,427.32Z" style="fill:#263238"></path><path d="M251.17,425.93a2.21,2.21,0,0,0-.13-2.52C250.13,425.38,251.17,425.93,251.17,425.93Z" style="fill:#263238"></path><path d="M253.18,423.34c-1.61,1.46-.87,2.38-.87,2.38A2.25,2.25,0,0,0,253.18,423.34Z" style="fill:#263238"></path><rect x="149.25" y="210.96" width="1.88" height="29.16" style="fill:#757575;stroke:#263238;stroke-linecap:round;stroke-linejoin:round"></rect><polygon points="159.28 247.23 141.1 247.23 147.39 237.99 152.99 237.99 159.28 247.23" style="fill:#757575;stroke:#263238;stroke-linecap:round;stroke-linejoin:round"></polygon><rect x="138.4" y="251.63" width="23.58" height="20.14" style="fill:#bfbfbf;stroke:#263238;stroke-miterlimit:10"></rect><rect x="144.31" y="258.45" width="11.76" height="11.76" style="fill:#999;stroke:#263238;stroke-linecap:round;stroke-linejoin:round"></rect><rect x="160.75" y="250.63" width="2.49" height="21.14" style="fill:#999;stroke:#263238;stroke-linecap:round;stroke-linejoin:round"></rect><rect x="137.14" y="250.63" width="2.49" height="21.14" style="fill:#999;stroke:#263238;stroke-linecap:round;stroke-linejoin:round"></rect><path d="M168.9,253.74H131.47l-3.64-2.11h1.4a12.07,12.07,0,0,0,8.63-3.63l2.47-2.52h19.72l2.56,2.58a12.05,12.05,0,0,0,8.57,3.57h1.36Z" style="fill:#757575;stroke:#263238;stroke-linecap:round;stroke-linejoin:round"></path><rect x="133.23" y="278.06" width="33.93" height="28.98" style="fill:#bfbfbf;stroke:#263238;stroke-miterlimit:10"></rect><rect x="141.73" y="287.37" width="16.92" height="16.92" style="fill:#999;stroke:#263238;stroke-linecap:round;stroke-linejoin:round"></rect><rect x="165.38" y="276.63" width="3.58" height="30.41" style="fill:#999;stroke:#263238;stroke-linecap:round;stroke-linejoin:round"></rect><rect x="131.42" y="276.63" width="3.58" height="30.41" style="fill:#999;stroke:#263238;stroke-linecap:round;stroke-linejoin:round"></rect><path d="M177.12,281.11H123.26l-5.24-3h2a17.38,17.38,0,0,0,12.42-5.23l3.55-3.63h28.38l3.69,3.72a17.36,17.36,0,0,0,12.33,5.14h1.95Z" style="fill:#757575;stroke:#263238;stroke-linecap:round;stroke-linejoin:round"></path><rect x="125.56" y="315.94" width="49.25" height="42.07" style="fill:#bfbfbf;stroke:#263238;stroke-miterlimit:10"></rect><rect x="137.91" y="331.16" width="24.56" height="24.56" style="fill:#999;stroke:#263238;stroke-linecap:round;stroke-linejoin:round"></rect><rect x="172.24" y="313.86" width="5.2" height="44.15" style="fill:#999;stroke:#263238;stroke-linecap:round;stroke-linejoin:round"></rect><rect x="122.94" y="313.86" width="5.2" height="44.15" style="fill:#999;stroke:#263238;stroke-linecap:round;stroke-linejoin:round"></rect><path d="M189.28,320.36H111.1L103.5,316h2.92a25.21,25.21,0,0,0,18-7.59l5.15-5.27h41.2l5.35,5.4A25.22,25.22,0,0,0,194,316h2.84Z" style="fill:#757575;stroke:#263238;stroke-linecap:round;stroke-linejoin:round"></path><rect x="114.27" y="371.8" width="71.84" height="61.37" style="fill:#bfbfbf;stroke:#263238;stroke-miterlimit:10"></rect><rect x="132.27" y="393.52" width="35.83" height="35.83" style="fill:#999;stroke:#263238;stroke-linecap:round;stroke-linejoin:round"></rect><rect x="182.35" y="368.76" width="7.59" height="64.4" style="fill:#999;stroke:#263238;stroke-linecap:round;stroke-linejoin:round"></rect><rect x="110.44" y="368.76" width="7.59" height="64.4" style="fill:#999;stroke:#263238;stroke-linecap:round;stroke-linejoin:round"></rect><rect x="102.16" y="429.35" width="96.06" height="12.87" style="fill:#999;stroke:#263238;stroke-linecap:round;stroke-linejoin:round"></rect><polygon points="212.19 439.32 88.19 439.32 79.2 454.64 221.18 454.64 212.19 439.32" style="fill:#757575;stroke:#263238;stroke-linecap:round;stroke-linejoin:round"></polygon><path d="M207.21,378.25h-114l-11.09-6.44h4.26a36.77,36.77,0,0,0,26.29-11.07l7.51-7.68h60.1l7.8,7.87a36.76,36.76,0,0,0,26.11,10.88h4.15Z" style="fill:#757575;stroke:#263238;stroke-linecap:round;stroke-linejoin:round"></path><line x1="150.19" y1="260.54" x2="150.19" y2="265.3" style="fill:none;stroke:#263238;stroke-linecap:round;stroke-linejoin:round"></line><line x1="150.19" y1="266.72" x2="150.19" y2="268.89" style="fill:none;stroke:#263238;stroke-linecap:round;stroke-linejoin:round"></line><line x1="150.19" y1="287.37" x2="150.19" y2="290.91" style="fill:none;stroke:#263238;stroke-linecap:round;stroke-linejoin:round"></line><line x1="150.19" y1="293.61" x2="150.19" y2="299.89" style="fill:none;stroke:#263238;stroke-linecap:round;stroke-linejoin:round"></line><line x1="150.19" y1="331.16" x2="150.19" y2="335.93" style="fill:none;stroke:#263238;stroke-linecap:round;stroke-linejoin:round"></line><line x1="150.19" y1="340.17" x2="150.19" y2="343.44" style="fill:none;stroke:#263238;stroke-linecap:round;stroke-linejoin:round"></line><line x1="150.19" y1="346.84" x2="150.19" y2="353.06" style="fill:none;stroke:#263238;stroke-linecap:round;stroke-linejoin:round"></line><line x1="150.19" y1="394.08" x2="150.19" y2="398.8" style="fill:none;stroke:#263238;stroke-linecap:round;stroke-linejoin:round"></line><line x1="150.19" y1="400.96" x2="150.19" y2="403.06" style="fill:none;stroke:#263238;stroke-linecap:round;stroke-linejoin:round"></line><line x1="150.19" y1="408.64" x2="150.19" y2="420.09" style="fill:none;stroke:#263238;stroke-linecap:round;stroke-linejoin:round"></line><line x1="150.19" y1="423.32" x2="150.19" y2="429.35" style="fill:none;stroke:#263238;stroke-linecap:round;stroke-linejoin:round"></line><line x1="182.35" y1="382.07" x2="156.18" y2="382.07" style="fill:none;stroke:#263238;stroke-linecap:round;stroke-linejoin:round"></line><line x1="162.47" y1="385.88" x2="135" y2="385.88" style="fill:none;stroke:#263238;stroke-linecap:round;stroke-linejoin:round"></line><line x1="140.33" y1="382.07" x2="118.02" y2="382.07" style="fill:none;stroke:#263238;stroke-linecap:round;stroke-linejoin:round"></line><line x1="170.28" y1="326.07" x2="150.19" y2="326.04" style="fill:none;stroke:#263238;stroke-linecap:round;stroke-linejoin:round"></line><line x1="152.37" y1="323.06" x2="133.23" y2="323.06" style="fill:none;stroke:#263238;stroke-linecap:round;stroke-linejoin:round"></line><line x1="135" y1="284.38" x2="152.37" y2="284.38" style="fill:none;stroke:#263238;stroke-linecap:round;stroke-linejoin:round"></line><line x1="147.77" y1="256.03" x2="160.75" y2="256.03" style="fill:none;stroke:#263238;stroke-linecap:round;stroke-linejoin:round"></line><line x1="137.86" y1="248" x2="156.07" y2="248" style="fill:none;stroke:#263238;stroke-linecap:round;stroke-linejoin:round"></line><line x1="177.44" y1="277.81" x2="139.63" y2="277.81" style="fill:none;stroke:#263238;stroke-linecap:round;stroke-linejoin:round"></line><line x1="132.45" y1="272.84" x2="154.26" y2="272.84" style="fill:none;stroke:#263238;stroke-linecap:round;stroke-linejoin:round"></line><line x1="116.46" y1="313.86" x2="154.26" y2="313.86" style="fill:none;stroke:#263238;stroke-linecap:round;stroke-linejoin:round"></line><line x1="142.8" y1="308.5" x2="176.14" y2="308.5" style="fill:none;stroke:#263238;stroke-linecap:round;stroke-linejoin:round"></line><line x1="96.22" y1="370.45" x2="184.56" y2="370.45" style="fill:none;stroke:#263238;stroke-linecap:round;stroke-linejoin:round"></line><line x1="189.94" y1="362.7" x2="147.18" y2="362.7" style="fill:none;stroke:#263238;stroke-linecap:round;stroke-linejoin:round"></line><line x1="58.31" y1="454.64" x2="446.6" y2="454.64" style="fill:none;stroke:#263238;stroke-linecap:round;stroke-linejoin:round"></line></g><g id="freepik--Character--inject-28"><path d="M378.15,274.36S417.37,324.47,420.2,340s-18.68,68.5-15.66,91.42c.74,5.63,9.81,15.16,15.66,16.47,14.31,3.2,9.05,5.27,6.94,6.33s-37.91,0-41,0c-13.2,0,.83-6.95,1.57-39.47.39-16.93-7.2-41.67,6-67.48L346.09,306.1Z" style="fill:#fff"></path><g style="clip-path:url(#freepik--clip-path-4--inject-28)"><path d="M423.2,454.55c-2.4.08-5.67.1-9.28.08a8.94,8.94,0,0,0-3-4.24c-5.15-4.25-15.83-11.47-15-14.64s-.38-34,0-50.24,12.67-38.77,10.82-45.25S395.85,322,395.85,322s4.23-11.67,14.61,3.19,2,27.14-3.79,43.36-10.55,57.76-7.24,66.46,17.8,13.45,20.87,15.83A11.63,11.63,0,0,1,423.2,454.55Z" style="fill:#E39E92"></path><path d="M418.58,335a38.79,38.79,0,0,0-15.4,6.85,35,35,0,0,1-10.24,4.73L374,330.18l38.3-7.24A100.4,100.4,0,0,1,418.58,335Z" style="fill-opacity:0.7000000000000001;opacity:0.30000000000000004"></path></g><path d="M378.15,274.36S417.37,324.47,420.2,340s-18.68,68.5-15.66,91.42c.74,5.63,9.81,15.16,15.66,16.47,14.31,3.2,9.05,5.27,6.94,6.33s-37.91,0-41,0c-13.2,0,.83-6.95,1.57-39.47.39-16.93-7.2-41.67,6-67.48L346.09,306.1Z" style="fill:none;stroke:#263238;stroke-linecap:round;stroke-linejoin:round"></path><path d="M289.21,253.16s-50.07,5.84-58,10c-17.36,9.19-13.4,25.8-4.44,31.95,4,2.72,66.78,43.71,68.05,50,1.05,5.27-2.41,14.91-12.66,24.52-1.78,1.67.24,4.43,5.8,2.91s14.68-7.35,16.71-10.29c4.07-5.88,10.69-9.84,13.88-12.66,4.49-4,1.23-6.05-17.4-18.2-12.13-7.91-20.84-32.17-35.39-40.88L313.69,288Z" style="fill:#fff"></path><g style="clip-path:url(#freepik--clip-path-5--inject-28)"><path d="M299.46,357.82a46.65,46.65,0,0,0-4.41,11.7,38.68,38.68,0,0,1-6.23,2.83c.78-3.24,2.16-7.65,4.3-10.18,3.68-4.35,7-14.24,6.22-18.33s-14.24-18.07-29.57-28.75-41.64-26.9-41.25-33.73,25.89-10.57,25.89-10.57l4.58,7.62s-21,2.27-17,9.39,46.68,36.39,55,45.89S304.88,347.14,299.46,357.82Z" style="fill:#E39E92"></path><path d="M288.6,317.49c-33-5.56-54.85-32-65.36-48a26,26,0,0,1,8-6.29c4.35-2.3,21.47-5.1,36-7.15,11,9,25.23,21.28,35.35,32.57l-36.79,2C274.94,296,281.78,307.65,288.6,317.49Z" style="fill-opacity:0.7000000000000001;opacity:0.30000000000000004"></path></g><path d="M289.21,253.16s-50.07,5.84-58,10c-17.36,9.19-13.4,25.8-4.44,31.95,4,2.72,66.78,43.71,68.05,50,1.05,5.27-2.41,14.91-12.66,24.52-1.78,1.67.24,4.43,5.8,2.91s14.68-7.35,16.71-10.29c4.07-5.88,10.69-9.84,13.88-12.66,4.49-4,1.23-6.05-17.4-18.2-12.13-7.91-20.84-32.17-35.39-40.88L313.69,288Z" style="fill:none;stroke:#263238;stroke-linecap:round;stroke-linejoin:round"></path><path d="M346.09,338c17.74,3.56,59.21-15.29,72.49-3.1a8.66,8.66,0,0,0,1.62-6.79c-.59-4.36-4-8.2-4-8.2s-2.7-15.94-14.67-25.43-52.33-20-52.33-20l-79.42-21.7L254.42,255s-17.38-2.82-17.28,6.3,26.48,47.9,47.7,54.23S328.35,334.48,346.09,338Z" style="fill:#263238"></path><path d="M339.07,264.93a24.94,24.94,0,0,1-1.79,4.59c-10.75,22.07-56.53,60.53-60.76,55.1-1.09-1.4-3.26-6.09-5.83-12.47-8.16-20.22-20.36-57.47-14.93-61.16,7.13-4.85,40.22-4.87,40.22-4.87,1.3-3.92,3.31-6,5.25-7.18a9.13,9.13,0,0,1,5.11-1.27c.29,0,.46.05.46.05s26.73,4.56,31.95,18.34A14.11,14.11,0,0,1,339.07,264.93Z" style="fill:#E39E92"></path><g style="clip-path:url(#freepik--clip-path-6--inject-28)"><path d="M338.75,256.06l-1.47,13.46c-10.75,22.07-56.53,60.53-60.76,55.1-1.09-1.4-3.26-6.09-5.83-12.47a8.74,8.74,0,0,0,4.51-1.39c-6.74-11.46,2.63-20.84,2.63-20.84s1.73,15.68,7,14.89,16.08-31.87,16.08-31.87c-5.14-16.16-1.89-28.43.31-34a9.13,9.13,0,0,1,5.11-1.27Z" style="fill-opacity:0.7000000000000001;opacity:0.30000000000000004"></path></g><path d="M339.07,264.93a24.94,24.94,0,0,1-1.79,4.59c-10.75,22.07-56.53,60.53-60.76,55.1-1.09-1.4-3.26-6.09-5.83-12.47-8.16-20.22-20.36-57.47-14.93-61.16,7.13-4.85,40.22-4.87,40.22-4.87,1.3-3.92,3.31-6,5.25-7.18a9.13,9.13,0,0,1,5.11-1.27c.29,0,.46.05.46.05s26.73,4.56,31.95,18.34A14.11,14.11,0,0,1,339.07,264.93Z" style="fill:none;stroke:#263238;stroke-miterlimit:10"></path><path d="M324.68,262.66S308.61,287.72,309.59,318s16.47,27.9,20.41,22.6,87.95-35.46,86.17-38.7-9.5-7.14-9.5-7.14-24.4-34.67-35.43-37.29S324.68,262.66,324.68,262.66Z" style="fill:#E39E92;stroke:#263238;stroke-miterlimit:10"></path><path d="M306,231.11s-8,6.94-2.34,16.08c0,0-11.14,1.32,2.34,16.3s57.42,12.87,65.51,4.43,4.21-13.69,4.21-13.69,6.37-10.48-1.56-14.38S306,231.11,306,231.11Z" style="fill:#fff;stroke:#263238;stroke-linecap:round;stroke-linejoin:round"></path><path d="M375.73,254.23a23.25,23.25,0,0,1-22.12,12.6" style="fill:none;stroke:#263238;stroke-linecap:round;stroke-linejoin:round"></path><path d="M330.23,296.89s55.33,15,76.44-2.12" style="fill:none;stroke:#263238;stroke-linecap:round;stroke-linejoin:round"></path><path d="M320,304.81s4.16,15.82,17.71,17.14" style="fill:none;stroke:#263238;stroke-linecap:round;stroke-linejoin:round"></path><path d="M296,246.11s-2.35,7.84-.59,14.43" style="fill:none;stroke:#263238;stroke-linecap:round;stroke-linejoin:round"></path><path d="M288,251.75s-22.7,18.51-17.41,42.37" style="fill:none;stroke:#263238;stroke-linecap:round;stroke-linejoin:round"></path><path d="M343.49,156.07S348,97.51,306.42,95.92s-45.1,71.26-2.08,96.75l6.4-16.8S278.13,135.16,297.39,121s32.73,23.57,30,46.52Z" style="fill:#fff"></path><g style="clip-path:url(#freepik--clip-path-7--inject-28)"><g style="opacity:0.5"><path d="M324.58,140.29a82.06,82.06,0,0,1,14.58-18.17,53.86,53.86,0,0,0-2-5,86.18,86.18,0,0,0-14.7,17.13C323.23,136.18,324,138.2,324.58,140.29Z" style="fill:#263238"></path><path d="M312.8,120.38a21.59,21.59,0,0,1,4,3.91,69.9,69.9,0,0,1,10.8-20.39,29.4,29.4,0,0,0-4.07-3A74.74,74.74,0,0,0,312.8,120.38Z" style="fill:#263238"></path><path d="M301.6,96.08c-3.06,7.22-5.39,16.07-4.25,24.92l0,0a16.43,16.43,0,0,1,4.8-2.53c-.5-8,2.07-16.06,5-22.48l-.79,0A33.14,33.14,0,0,0,301.6,96.08Z" style="fill:#263238"></path><path d="M280.41,109.75c1.77,8.59,5,17.31,10.9,23.86a17.72,17.72,0,0,1,1.25-6.52c-4.46-6.5-6.8-14.81-8-22.7A31.55,31.55,0,0,0,280.41,109.75Z" style="fill:#263238"></path><path d="M274.29,127.13a61.94,61.94,0,0,0-.63,6.33,72.51,72.51,0,0,0,8.44,6.63,38.66,38.66,0,0,0,11.32,5.32,47.54,47.54,0,0,1-1.54-5.74C285.72,137.27,279.6,132.41,274.29,127.13Z" style="fill:#263238"></path><path d="M274.24,145.34c.25,1.88.59,3.77,1,5.65,7,2.26,14.51,3.6,21.61,2.77-.77-1.58-1.49-3.21-2.15-4.83C288,149.38,280.83,147.73,274.24,145.34Z" style="fill:#263238"></path><path d="M280.08,165.33c.74,1.61,1.55,3.2,2.42,4.73A53.89,53.89,0,0,0,301.88,163c-.84-1.38-1.68-2.82-2.51-4.34A48,48,0,0,1,280.08,165.33Z" style="fill:#263238"></path><path d="M290.48,181.24c1.17,1.32,2.42,2.59,3.72,3.81a40.36,40.36,0,0,0,14.46-11.92c-.84-1.14-1.88-2.6-3-4.32A35.63,35.63,0,0,1,290.48,181.24Z" style="fill:#263238"></path><path d="M326.39,147.73c.45,2.35.79,4.73,1,7.07,4.13-6.19,9.88-11.63,15.51-16-.22-1.82-.5-3.73-.86-5.67A87.11,87.11,0,0,0,326.39,147.73Z" style="fill:#263238"></path></g><path d="M292.7,143.11c4.47,15.83,18,32.76,18,32.76l-6.4,16.8c-18.89-11.19-28.81-31.52-30.48-50.67C278.23,144.21,287.4,147.88,292.7,143.11Z" style="fill-opacity:0.7000000000000001;opacity:0.30000000000000004"></path><path d="M335.39,113.71c10,17.74,8.1,42.36,8.1,42.36L327.34,167.5c2-16.68-4.55-41.18-15.68-47.87A32.74,32.74,0,0,1,335.39,113.71Z" style="fill-opacity:0.7000000000000001;opacity:0.30000000000000004"></path></g><path d="M343.49,156.07S348,97.51,306.42,95.92s-45.1,71.26-2.08,96.75l6.4-16.8S278.13,135.16,297.39,121s32.73,23.57,30,46.52Z" style="fill:none;stroke:#263238;stroke-linecap:round;stroke-linejoin:round"></path><path d="M352.09,156.25s28.52-51.36,64.1-29.73-1.68,84.32-51.62,81.85l3.93-17.54s49.65-16,41.41-38.43S369.6,154,359.26,174.68Z" style="fill:#fff"></path><g style="clip-path:url(#freepik--clip-path-8--inject-28)"><g style="opacity:0.5"><path d="M376.57,153.52a82,82,0,0,0-2.14-23.2q2.15-1.63,4.44-3.06a86.39,86.39,0,0,1,2.82,22.4Q379.1,151.42,376.57,153.52Z" style="fill:#263238"></path><path d="M397.38,143.41a21.25,21.25,0,0,0-5.49,1.06,69.75,69.75,0,0,0,2.24-23,29.23,29.23,0,0,1,5.06-.27A74.66,74.66,0,0,1,397.38,143.41Z" style="fill:#263238"></path><path d="M420.12,129.31c-1.43,7.71-4.36,16.38-10.2,23.13v0a16.38,16.38,0,0,0-2.61-4.76c4.83-6.4,7.13-14.54,8.21-21.52l.68.4A32.73,32.73,0,0,1,420.12,129.31Z" style="fill:#263238"></path><path d="M430.26,152.4c-6.22,6.19-13.75,11.66-22.25,13.89a17.77,17.77,0,0,0,2.55-6.12c7.31-3,13.84-8.61,19.17-14.54A31.59,31.59,0,0,1,430.26,152.4Z" style="fill:#263238"></path><path d="M425.78,170.28a60.69,60.69,0,0,1-3,5.62,71.79,71.79,0,0,1-10.69.88A38.7,38.7,0,0,1,399.74,175a46.11,46.11,0,0,0,4.45-3.94C410.65,172.43,418.44,171.75,425.78,170.28Z" style="fill:#263238"></path><path d="M415.78,185.49q-1.87,2.14-4,4.16c-7.07-2-14.09-5-19.55-9.61,1.51-.89,3-1.85,4.45-2.84C402.06,181.26,409,183.85,415.78,185.49Z" style="fill:#263238"></path><path d="M399.88,199c-1.5.93-3.05,1.81-4.63,2.61A54.13,54.13,0,0,1,383,185c1.46-.69,3-1.43,4.48-2.24A48.18,48.18,0,0,0,399.88,199Z" style="fill:#263238"></path><path d="M382.43,206.48c-1.7.46-3.44.83-5.2,1.13a40.36,40.36,0,0,1-5.49-17.92c1.33-.49,3-1.13,4.91-1.93A35.64,35.64,0,0,0,382.43,206.48Z" style="fill:#263238"></path><path d="M371,158.73c-1.67,1.71-3.27,3.5-4.74,5.34a71.84,71.84,0,0,0-4.09-21.93c1.19-1.4,2.48-2.84,3.85-4.26A87,87,0,0,1,371,158.73Z" style="fill:#263238"></path></g><path d="M359.26,174.69l-7.17-18.44a98.73,98.73,0,0,1,13.84-18.31c4.25,1.16,11.38,4.57,12.21,14.31C370.37,158.36,363.22,166.77,359.26,174.69Z" style="fill-opacity:0.7000000000000001;opacity:0.30000000000000004"></path><path d="M412.88,188.62c-12,12.14-29.24,20.69-48.31,19.75l3.93-17.54s17.91-5.76,30.43-15.24C404.2,177,410.28,180.45,412.88,188.62Z" style="fill-opacity:0.7000000000000001;opacity:0.30000000000000004"></path></g><path d="M352.09,156.25s28.52-51.36,64.1-29.73-1.68,84.32-51.62,81.85l3.93-17.54s49.65-16,41.41-38.43S369.6,154,359.26,174.68Z" style="fill:none;stroke:#263238;stroke-linecap:round;stroke-linejoin:round"></path><path d="M275.2,114.86s-2.11,6.84-12.3,12.11-32.34,15.35-31.64,24,22.63,26,51.57,30.86V154.74l-22.73-5.39s14.92-17.41,22.59-19.69S275.2,114.86,275.2,114.86Z" style="fill:#fff"></path><g style="clip-path:url(#freepik--clip-path-9--inject-28)"><path d="M277.22,124.21a67.57,67.57,0,0,1-23.57,13.91c-13.85,4.49-18.79,11.23-16.22,15.47s15.43,13.17,31.85,16l-.2,4.8s-31.65-12.28-33.83-22.84,15.83-16.49,22-18.47,18.31-11.91,18.31-11.91Z" style="fill:#E39E92"></path></g><path d="M275.2,114.86s-2.11,6.84-12.3,12.11-32.34,15.35-31.64,24,22.63,26,51.57,30.86V154.74l-22.73-5.39s14.92-17.41,22.59-19.69S275.2,114.86,275.2,114.86Z" style="fill:none;stroke:#263238;stroke-linecap:round;stroke-linejoin:round"></path><path d="M260.09,149.35a16.18,16.18,0,0,1-11.43,4.45" style="fill:none;stroke:#263238;stroke-linecap:round;stroke-linejoin:round"></path><path d="M398.58,192.17s7-.87,10.72,1.41-9.84,36.21-29.52,29.53S398.58,192.17,398.58,192.17Z" style="fill:#263238"></path><path d="M269.23,151s-1.94-3.05-4.92-3.05-3.17,29.59,7.38,42.89,21.44,10.31,21.44,10.31Z" style="fill:#263238"></path><path d="M267.47,149.35s2.11-4.45,5.28.17c0,0,42.79,1.89,61.48,6.73,36.23,9.39,63,30.77,63,30.77,5.34-2.23,4.11,3.81,4.11,3.81s-8.08,30.35-20.9,32.71c0,0,2.83,31-21.23,37-19.89,4.94-60.72-14.62-70-61C289.26,199.51,267.47,175.46,267.47,149.35Z" style="fill:#E39E92"></path><g style="clip-path:url(#freepik--clip-path-10--inject-28)"><path d="M380.48,223.54s2.84,31-21.22,37c-14.63,3.64-40.59-6-57-29.78,14.58,9.75,23,6.92,23,6.92a14.83,14.83,0,0,0,1.66,6.52,2.8,2.8,0,0,0,5.28-1.41h0c4.62,5.75,30.69,3.35,30.69,3.35-11.62-3.73-14.44-19.64-14.44-19.64,8.22,5,18.14,4.12,18.14,4.12C351,226,351.29,207.78,351.29,207.78l42.81,1.88C390.61,216.37,386,222.54,380.48,223.54Z" style="fill-opacity:0.7000000000000001;opacity:0.30000000000000004"></path></g><path d="M267.47,149.35s2.11-4.45,5.28.17c0,0,42.79,1.89,61.48,6.73,36.23,9.39,63,30.77,63,30.77,5.34-2.23,4.11,3.81,4.11,3.81s-8.08,30.35-20.9,32.71c0,0,2.83,31-21.23,37-19.89,4.94-60.72-14.62-70-61C289.26,199.51,267.47,175.46,267.47,149.35Z" style="fill:none;stroke:#263238;stroke-miterlimit:10"></path><path d="M342.09,176.18s-13.38,26.72-15.53,44.29c0,0-18.86-22.2-7.95-48.45Z" style="fill:#263238"></path><path d="M321.8,181.85s-1.63,9.88,6.82,22.49c0,0,2.3-13.51,6.68-19.8S321.8,181.85,321.8,181.85Z" style="fill:#fff;stroke:#263238;stroke-linecap:round;stroke-linejoin:round"></path><path d="M334.23,193.09a90,90,0,0,0-7.67,54.1" style="fill:none;stroke:#263238;stroke-linecap:round;stroke-linejoin:round"></path><path d="M306.13,179.5s-2.48,22.87,14.93,43.26" style="fill:none;stroke:#263238;stroke-linecap:round;stroke-linejoin:round"></path><path d="M272.75,149.52a56.1,56.1,0,0,0,8.94,27.63" style="fill:none;stroke:#263238;stroke-linecap:round;stroke-linejoin:round"></path><path d="M397.28,187s-10.95,28.71-28.73,38.2" style="fill:none;stroke:#263238;stroke-linecap:round;stroke-linejoin:round"></path><path d="M380.49,223.54s-12.61,10.82-24,6.6" style="fill:none;stroke:#263238;stroke-linecap:round;stroke-linejoin:round"></path><path d="M351,163.7s3.26,6.68-1.84,16.52-17.15,30.06-17,47.11" style="fill:none;stroke:#263238;stroke-linecap:round;stroke-linejoin:round"></path><path d="M326.56,153.81a40.11,40.11,0,0,0-6.95,4.24,49.39,49.39,0,0,0-5.91,5.31c-.17.19-.36.38-.53.58a61.49,61.49,0,0,0-4.87,5.94q-1.21,1.65-2.31,3.36c-1.46,2.23-2.78,4.5-4,6.77-1,1.87-1.91,3.74-2.75,5.56-1.31,2.84-2.44,5.59-3.4,8.13s-1.8,5-2.45,7.08c-1.38,4.39-2,7.21-2,7.21a17.52,17.52,0,0,1-1.93-1.56c-3.46-3.29-5.18-8-5.58-13.26a38.78,38.78,0,0,1,.29-8.07,58.08,58.08,0,0,1,2.58-10.73c.62-1.82,1.31-3.64,2.08-5.41a67.71,67.71,0,0,1,4.52-8.63c1-1.57,2-3.06,3-4.45a41,41,0,0,1,5.77-6.32,23.8,23.8,0,0,1,4.34-3.06,12,12,0,0,1,6.1-1.61l.28,0a38.2,38.2,0,0,1,5.62.63C329.09,147.64,326.56,153.81,326.56,153.81Z" style="fill:#fff"></path><g style="clip-path:url(#freepik--clip-path-11--inject-28)"><g style="opacity:0.5"><path d="M319.61,158.05a49.39,49.39,0,0,0-5.91,5.31,41.53,41.53,0,0,0-.84-18.45,38.2,38.2,0,0,1,5.62.63A45.19,45.19,0,0,1,319.61,158.05Z" style="fill:#263238"></path><path d="M313.17,163.94a61.49,61.49,0,0,0-4.87,5.94,38,38,0,0,0-6.16-20.32,23.8,23.8,0,0,1,4.34-3.06A42.86,42.86,0,0,1,313.17,163.94Z" style="fill:#263238"></path><path d="M306,173.24c-1.46,2.23-2.78,4.5-4,6.77a37.61,37.61,0,0,0-8.64-19.68c1-1.57,2-3.06,3-4.45A44.14,44.14,0,0,1,306,173.24Z" style="fill:#263238"></path><path d="M299.24,185.57c-1.31,2.84-2.44,5.59-3.4,8.13a37.83,37.83,0,0,0-9.09-19.33c.62-1.82,1.31-3.64,2.08-5.41A45.21,45.21,0,0,1,299.24,185.57Z" style="fill:#263238"></path><path d="M293.39,200.78c-1.38,4.39-2,7.21-2,7.21a17.52,17.52,0,0,1-1.93-1.56,37.4,37.4,0,0,0-5.58-13.26,38.78,38.78,0,0,1,.29-8.07A44.69,44.69,0,0,1,293.39,200.78Z" style="fill:#263238"></path></g></g><path d="M326.56,153.81a40.11,40.11,0,0,0-6.95,4.24,49.39,49.39,0,0,0-5.91,5.31c-.17.19-.36.38-.53.58a61.49,61.49,0,0,0-4.87,5.94q-1.21,1.65-2.31,3.36c-1.46,2.23-2.78,4.5-4,6.77-1,1.87-1.91,3.74-2.75,5.56-1.31,2.84-2.44,5.59-3.4,8.13s-1.8,5-2.45,7.08c-1.38,4.39-2,7.21-2,7.21a17.52,17.52,0,0,1-1.93-1.56c-3.46-3.29-5.18-8-5.58-13.26a38.78,38.78,0,0,1,.29-8.07,58.08,58.08,0,0,1,2.58-10.73c.62-1.82,1.31-3.64,2.08-5.41a67.71,67.71,0,0,1,4.52-8.63c1-1.57,2-3.06,3-4.45a41,41,0,0,1,5.77-6.32,23.8,23.8,0,0,1,4.34-3.06,12,12,0,0,1,6.1-1.61l.28,0a38.2,38.2,0,0,1,5.62.63C329.09,147.64,326.56,153.81,326.56,153.81Z" style="fill:none;stroke:#263238;stroke-linecap:round;stroke-linejoin:round"></path><path d="M384.29,228.56c.27,6.39-4.19,5.19-4.19,5.19-1-.72-2-1.48-3-2.27A47.48,47.48,0,0,1,371.5,226q-1.72-2-3.24-4.17-1.69-2.43-3.15-5t-2.76-5.48c-.6-1.32-1.16-2.66-1.68-4-1-2.47-1.78-5-2.5-7.46-.24-.82-.47-1.64-.68-2.46-.95-3.61-1.67-7.16-2.22-10.54,0-.14,0-.27-.06-.41a132.32,132.32,0,0,1-1.54-15.24c-.24-5.54-.05-9-.05-9,.52-7,7.36-9.81,12.77-7.5a10,10,0,0,1,4.15,3.35,14.33,14.33,0,0,1,2.41,9,25.69,25.69,0,0,1-.5,4.38c-.16.81-.28,1.64-.39,2.48a48.74,48.74,0,0,0,0,10.53c.19,1.93.47,3.89.83,5.84.54,3.05,1.25,6.1,2.06,9.07q.72,2.67,1.52,5.23c1,3.12,2,6.1,3,8.86.62,1.76,1.23,3.41,1.78,5a77.26,77.26,0,0,1,3,9.25A6,6,0,0,1,384.29,228.56Z" style="fill:#fff"></path><g style="clip-path:url(#freepik--clip-path-12--inject-28)"><g style="opacity:0.5"><path d="M370.54,158c-6.83,5.15-13.81,13.9-15.33,28.43a132.32,132.32,0,0,1-1.54-15.24,42.84,42.84,0,0,1,12.72-16.54A10,10,0,0,1,370.54,158Z" style="fill:#263238"></path><path d="M373,167a25.69,25.69,0,0,1-.5,4.38c-.16.81-.28,1.64-.39,2.48a38.32,38.32,0,0,0-14.57,23.55c-.95-3.61-1.67-7.16-2.22-10.54A43.72,43.72,0,0,1,373,167Z" style="fill:#263238"></path><path d="M372.88,190.19a37.64,37.64,0,0,0-12.21,17.1c-1-2.47-1.78-5-2.5-7.46a43.28,43.28,0,0,1,13.88-15.48C372.24,186.28,372.52,188.24,372.88,190.19Z" style="fill:#263238"></path><path d="M376.46,204.49a37.71,37.71,0,0,0-11.35,12.29q-1.5-2.68-2.76-5.48a44.42,44.42,0,0,1,12.59-12Q375.66,201.93,376.46,204.49Z" style="fill:#263238"></path><path d="M381.19,218.3A40,40,0,0,0,371.5,226q-1.72-2-3.24-4.17a45.89,45.89,0,0,1,11.15-8.43C380,215.11,380.64,216.76,381.19,218.3Z" style="fill:#263238"></path><path d="M384.16,227.55a6,6,0,0,1,.13,1c.27,6.39-4.19,5.19-4.19,5.19-1-.72-2-1.48-3-2.27A47.25,47.25,0,0,1,384.16,227.55Z" style="fill:#263238"></path></g></g><path d="M384.29,228.56c.27,6.39-4.19,5.19-4.19,5.19-1-.72-2-1.48-3-2.27A47.48,47.48,0,0,1,371.5,226q-1.72-2-3.24-4.17-1.69-2.43-3.15-5t-2.76-5.48c-.6-1.32-1.16-2.66-1.68-4-1-2.47-1.78-5-2.5-7.46-.24-.82-.47-1.64-.68-2.46-.95-3.61-1.67-7.16-2.22-10.54,0-.14,0-.27-.06-.41a132.32,132.32,0,0,1-1.54-15.24c-.24-5.54-.05-9-.05-9,.52-7,7.36-9.81,12.77-7.5a10,10,0,0,1,4.15,3.35,14.33,14.33,0,0,1,2.41,9,25.69,25.69,0,0,1-.5,4.38c-.16.81-.28,1.64-.39,2.48a48.74,48.74,0,0,0,0,10.53c.19,1.93.47,3.89.83,5.84.54,3.05,1.25,6.1,2.06,9.07q.72,2.67,1.52,5.23c1,3.12,2,6.1,3,8.86.62,1.76,1.23,3.41,1.78,5a77.26,77.26,0,0,1,3,9.25A6,6,0,0,1,384.29,228.56Z" style="fill:none;stroke:#263238;stroke-linecap:round;stroke-linejoin:round"></path><path d="M334.49,244.94s19.87,13.35,29.42,6.81" style="fill:none;stroke:#263238;stroke-linecap:round;stroke-linejoin:round"></path><path d="M334.23,257.16s-5.92-1.27-14.19,6.33-9.58,33.61-14,41.34S289.21,320,289.21,320s-4.17-12.66-9.09-16.17-4.92-13-4.92-13,9.74-.33,14-3.49,11.9-43.51,23.37-44.43,11.35,8.92,11.35,8.92S330,250.61,334.23,257.16Z" style="fill:#fff;stroke:#263238;stroke-linecap:round;stroke-linejoin:round"></path><path d="M323.93,251.75s-9.18.08-14.38,11.93" style="fill:none;stroke:#263238;stroke-linecap:round;stroke-linejoin:round"></path><path d="M288,302.7s14.77-6.33,14.77-17.15" style="fill:none;stroke:#263238;stroke-linecap:round;stroke-linejoin:round"></path><path d="M378.19,199.51s26.72-7.61,34.8,0,12.31,13.72-3.51,21.56-38-3.41-38-3.41Z" style="fill:#fff"></path><g style="clip-path:url(#freepik--clip-path-13--inject-28)"><path d="M418.48,214.71c-2.83,2.59-7.2,4.89-13.91,5.43a86,86,0,0,1-29.67-2.56l2.17-5s15.65,5.94,24.44,3.56c7.66-2.06,16.83-6.43,15.84-12.14C420.3,207.68,421.39,211.09,418.48,214.71Z" style="fill:#E39E92"></path></g><path d="M378.19,199.51s26.72-7.61,34.8,0,12.31,13.72-3.51,21.56-38-3.41-38-3.41Z" style="fill:none;stroke:#263238;stroke-linecap:round;stroke-linejoin:round"></path><path d="M393.05,188.54a16.47,16.47,0,0,1-1.26,3.34,10.91,10.91,0,0,1-1.43,2.23,21.52,21.52,0,0,0-2.44,4.34c-.28.61-.56,1.24-.83,1.86-1,2.25-1.79,4.38-2.07,5.12l-.11.28c-.33,1.79-.65,3.3-1,4.62A21.61,21.61,0,0,1,379.8,219c-2.54,3.34-13.72,2.12-18.35.81a10.87,10.87,0,0,1-3.83-2.1,18,18,0,0,1-3.89-4.44,21.28,21.28,0,0,1-2.44-5.5,31,31,0,0,0-2-5.07c-.53-1.1-1.1-2.18-1.66-3.17a62.89,62.89,0,0,0-3.87-6s1.6-3.49,4.54-1.36a9.91,9.91,0,0,1,2.06,2.12c1,1.37,1.91,2.93,2.69,4.12a4.45,4.45,0,0,0,1.69,1.81,5.06,5.06,0,0,0,1,.21.19.19,0,0,1,.09,0l.37,0a4.38,4.38,0,0,0,2.09-.36,2.75,2.75,0,0,0,.77-.52.43.43,0,0,0,.19-.17,3.93,3.93,0,0,0,.41-.55,12.2,12.2,0,0,0,1.44-3.4h0a35.42,35.42,0,0,0,1-5.4h0c.07-.68.14-1.37.19-2a49.25,49.25,0,0,0,.16-5c0-1.19-.05-2.48,0-3.76s.09-2.45.21-3.58c.38-3.28,1.29-5.72,3.35-4.93,1.85.71,1.82,1.94,1.78,4.84,0,1,0,2.22,0,3.67a49.55,49.55,0,0,0,1,7.6h0c.06.32.13.65.2,1l1.31.17c.06.24.28-.21.58-1.14h0a60.84,60.84,0,0,0,1.74-7.55c.21-1.16.39-2.38.55-3.62s.25-2.24.33-3.35c.41-5.53,4-3.48,4.82-1.74.47,1,.26,3.28-.05,5.78-.15,1.22-.32,2.49-.46,3.7-.06.6-.11,1.19-.15,1.75-.16,2.32-.35,4.72-.49,6.38,0,.23,0,.44-.05.64l1.53.84.4-.71h0a40.33,40.33,0,0,0,2.91-6.5c.53-1.54.84-2.78,1.12-3.74.53-1.82.93-2.68,2.39-2.77,1.63-.1,2.12,2,2,4.39a18.58,18.58,0,0,1-1.21,5.62h0a10.19,10.19,0,0,1-.45.93,20,20,0,0,0-1.63,5c-.07.33-.14.68-.22,1l.78,1.17c.32-.4.63-.8.9-1.18a0,0,0,0,1,0,0,40.8,40.8,0,0,0,2.57-4h0a31.91,31.91,0,0,1,2-3.29,2,2,0,0,1,2-1C393.43,185,393.52,186.62,393.05,188.54Z" style="fill:#fff"></path><g style="clip-path:url(#freepik--clip-path-14--inject-28)"><path d="M385,205.43l-.11.28c-.33,1.79-.65,3.3-1,4.62-2.95-.34-7.37-1.47-9.38-5.15-3.16-5.8-3.34-7.66-8.43-5.68a8.38,8.38,0,0,1-6.44-.55,12.2,12.2,0,0,0,1.44-3.4,10.64,10.64,0,0,0,5.53.84c6.85-.7,9,3.29,12.12,6.92C380.32,205.09,382.84,205.49,385,205.43Z" style="fill:#E39E92"></path><path d="M360.13,210.54a17.58,17.58,0,0,1-2.51,7.18,18,18,0,0,1-3.89-4.44c1.82-2.63,3.4-6.77,2.48-12.73a4.38,4.38,0,0,0,2.09-.36A15.89,15.89,0,0,1,360.13,210.54Z" style="fill:#E39E92"></path><path d="M367.84,179.32a14.36,14.36,0,0,1-5.39,0c0-1.23.09-2.45.21-3.58a10.34,10.34,0,0,0,5.13-.09C367.78,176.66,367.77,177.87,367.84,179.32Z" style="fill:#E39E92"></path><path d="M378.28,176.46c-.15,1.22-.32,2.49-.46,3.7a11.32,11.32,0,0,1-5.19-.77c.21-1.16.39-2.38.55-3.62A7.49,7.49,0,0,0,378.28,176.46Z" style="fill:#E39E92"></path><path d="M386.2,180.88l1.27-.45a18.58,18.58,0,0,1-1.21,5.62c-.33-.63-.58-1.22-.78-1.7a8.6,8.6,0,0,1-3.51-1.8c.53-1.54.84-2.78,1.12-3.74C384.4,180,385.65,180.92,386.2,180.88Z" style="fill:#E39E92"></path><path d="M393.05,188.54a16.47,16.47,0,0,1-1.26,3.34,9.94,9.94,0,0,1-3.57-2.83h0a31.91,31.91,0,0,1,2-3.29A7.89,7.89,0,0,0,393.05,188.54Z" style="fill:#E39E92"></path><path d="M353.08,198.46a10.56,10.56,0,0,1-3.76,4.25c-.53-1.1-1.1-2.18-1.66-3.17a5.93,5.93,0,0,0,2.73-5.2C351.42,195.71,352.3,197.27,353.08,198.46Z" style="fill:#E39E92"></path><path d="M387.92,198.45c-.28.61-.56,1.24-.83,1.86a3.36,3.36,0,0,1-2.14-.74c-1.38-1.18-1.49-3.39-1.34-5a4,4,0,0,1-3.66.37c-1.61-.76-2.26-2.81-2.52-4.38a4.84,4.84,0,0,1-4.22,1.42,5.65,5.65,0,0,1-3.45-3.16,5.24,5.24,0,0,1-3.54,2.43,6.28,6.28,0,0,1-4.1-1.06h0c.07-.68.14-1.37.19-2a5.28,5.28,0,0,0,3.66,1.34c1.08-.16,2-1,2.83-2.51.06.32.13.65.2,1l1.31.17c.06.24.28-.21.58-1.14.41,1.09,1.36,2.94,2.71,3.24s2.57-.82,3.58-1.9c0,.23,0,.44-.05.64l1.53.84.4-.71c.09,1.3.48,3.67,1.65,4.22,1,.47,2.41-.43,3.47-1.29-.07.33-.14.68-.22,1l.78,1.17c.32-.4.63-.8.9-1.18-.27,1.21-.68,4.23.46,5.19A2.13,2.13,0,0,0,387.92,198.45Z" style="fill:#E39E92"></path></g><path d="M393.05,188.54a16.47,16.47,0,0,1-1.26,3.34,10.91,10.91,0,0,1-1.43,2.23,21.52,21.52,0,0,0-2.44,4.34c-.28.61-.56,1.24-.83,1.86-1,2.25-1.79,4.38-2.07,5.12l-.11.28c-.33,1.79-.65,3.3-1,4.62A21.61,21.61,0,0,1,379.8,219c-2.54,3.34-13.72,2.12-18.35.81a10.87,10.87,0,0,1-3.83-2.1,18,18,0,0,1-3.89-4.44,21.28,21.28,0,0,1-2.44-5.5,31,31,0,0,0-2-5.07c-.53-1.1-1.1-2.18-1.66-3.17a62.89,62.89,0,0,0-3.87-6s1.6-3.49,4.54-1.36a9.91,9.91,0,0,1,2.06,2.12c1,1.37,1.91,2.93,2.69,4.12a4.45,4.45,0,0,0,1.69,1.81,5.06,5.06,0,0,0,1,.21.19.19,0,0,1,.09,0l.37,0a4.38,4.38,0,0,0,2.09-.36,2.75,2.75,0,0,0,.77-.52.43.43,0,0,0,.19-.17,3.93,3.93,0,0,0,.41-.55,12.2,12.2,0,0,0,1.44-3.4h0a35.42,35.42,0,0,0,1-5.4h0c.07-.68.14-1.37.19-2a49.25,49.25,0,0,0,.16-5c0-1.19-.05-2.48,0-3.76s.09-2.45.21-3.58c.38-3.28,1.29-5.72,3.35-4.93,1.85.71,1.82,1.94,1.78,4.84,0,1,0,2.22,0,3.67a49.55,49.55,0,0,0,1,7.6h0c.06.32.13.65.2,1l1.31.17c.06.24.28-.21.58-1.14h0a60.84,60.84,0,0,0,1.74-7.55c.21-1.16.39-2.38.55-3.62s.25-2.24.33-3.35c.41-5.53,4-3.48,4.82-1.74.47,1,.26,3.28-.05,5.78-.15,1.22-.32,2.49-.46,3.7-.06.6-.11,1.19-.15,1.75-.16,2.32-.35,4.72-.49,6.38,0,.23,0,.44-.05.64l1.53.84.4-.71h0a40.33,40.33,0,0,0,2.91-6.5c.53-1.54.84-2.78,1.12-3.74.53-1.82.93-2.68,2.39-2.77,1.63-.1,2.12,2,2,4.39a18.58,18.58,0,0,1-1.21,5.62h0a10.19,10.19,0,0,1-.45.93,20,20,0,0,0-1.63,5c-.07.33-.14.68-.22,1l.78,1.17c.32-.4.63-.8.9-1.18a0,0,0,0,1,0,0,40.8,40.8,0,0,0,2.57-4h0a31.91,31.91,0,0,1,2-3.29,2,2,0,0,1,2-1C393.43,185,393.52,186.62,393.05,188.54Z" style="fill:none;stroke:#263238;stroke-linecap:round;stroke-linejoin:round"></path><path d="M359.26,199.51s7.87.57,9.29,7.6" style="fill:none;stroke:#263238;stroke-linecap:round;stroke-linejoin:round"></path><path d="M266,107.32a11.22,11.22,0,0,0,.87,2.3,7.37,7.37,0,0,0,1,1.53,14.69,14.69,0,0,1,1.68,3l.57,1.28c.67,1.54,1.23,3,1.42,3.52l.08.19c.22,1.23.45,2.27.68,3.17a14.7,14.7,0,0,0,2.83,6c1.75,2.3,9.44,1.46,12.62.57a7.81,7.81,0,0,0,2.63-1.45,12.19,12.19,0,0,0,2.67-3,14.28,14.28,0,0,0,1.68-3.79,22,22,0,0,1,1.36-3.48c.36-.76.76-1.5,1.14-2.18a41.8,41.8,0,0,1,2.66-4.1s-1.1-2.4-3.12-.94a7.31,7.31,0,0,0-1.42,1.46c-.7.94-1.31,2-1.84,2.84-.43.64-.81,1.12-1.17,1.24a2.76,2.76,0,0,1-.67.14l-.06,0-.26,0a3,3,0,0,1-1.44-.25,1.75,1.75,0,0,1-.53-.35.36.36,0,0,1-.13-.12,4.17,4.17,0,0,1-.28-.38,8.36,8.36,0,0,1-1-2.34h0a24.79,24.79,0,0,1-.69-3.72h0c-.05-.47-.1-.94-.13-1.4a31.27,31.27,0,0,1-.11-3.45c0-.82,0-1.7,0-2.58a23.9,23.9,0,0,0-.15-2.46c-.25-2.26-.88-3.94-2.29-3.39s-1.26,1.33-1.23,3.32c0,.7,0,1.53,0,2.53a34.74,34.74,0,0,1-.67,5.22h0c0,.22-.08.44-.13.68l-.9.11c0,.17-.2-.14-.4-.78h0A39.81,39.81,0,0,1,280,101c-.14-.79-.27-1.64-.37-2.49s-.18-1.53-.24-2.3c-.28-3.8-2.76-2.39-3.31-1.2-.32.7-.18,2.26,0,4,.1.84.22,1.71.31,2.54,0,.42.08.82.1,1.21.11,1.59.25,3.24.34,4.38,0,.16,0,.31,0,.44l-1.05.58c-.1-.16-.19-.33-.28-.49h0a27.45,27.45,0,0,1-2-4.46c-.36-1.06-.58-1.92-.77-2.58-.36-1.25-.64-1.84-1.65-1.9s-1.45,1.34-1.36,3a12.54,12.54,0,0,0,.83,3.86h0a5.47,5.47,0,0,0,.31.64,14.14,14.14,0,0,1,1.12,3.43q.06.34.15.72l-.53.81c-.23-.28-.44-.55-.63-.82h0a27.7,27.7,0,0,1-1.77-2.72h0a21.2,21.2,0,0,0-1.35-2.26,1.36,1.36,0,0,0-1.35-.69C265.72,104.87,265.66,106,266,107.32Z" style="fill:#fff"></path><g style="clip-path:url(#freepik--clip-path-15--inject-28)"><path d="M271.5,118.94l.08.19c.22,1.23.45,2.27.68,3.17,2-.23,5.06-1,6.44-3.53,2.18-4,2.3-5.27,5.8-3.91a5.73,5.73,0,0,0,4.43-.38,8.36,8.36,0,0,1-1-2.34,7.23,7.23,0,0,1-3.8.58c-4.71-.48-6.16,2.27-8.34,4.76A5.38,5.38,0,0,1,271.5,118.94Z" style="fill:#E39E92"></path><path d="M288.61,122.45a12.34,12.34,0,0,0,1.73,4.94,12.19,12.19,0,0,0,2.67-3,11.85,11.85,0,0,1-1.7-8.76,3,3,0,0,1-1.44-.25A11,11,0,0,0,288.61,122.45Z" style="fill:#E39E92"></path><path d="M283.32,101a10.22,10.22,0,0,0,3.7,0,23.9,23.9,0,0,0-.15-2.46,7.1,7.1,0,0,1-3.52-.07C283.35,99.16,283.36,100,283.32,101Z" style="fill:#E39E92"></path><path d="M276.14,99c.1.84.22,1.71.31,2.54A7.64,7.64,0,0,0,280,101c-.14-.79-.27-1.64-.37-2.49A5.2,5.2,0,0,1,276.14,99Z" style="fill:#E39E92"></path><path d="M270.69,102.06l-.87-.31a12.54,12.54,0,0,0,.83,3.86,10.92,10.92,0,0,0,.53-1.16,6.14,6.14,0,0,0,2.42-1.24c-.36-1.06-.58-1.92-.77-2.58A4.72,4.72,0,0,1,270.69,102.06Z" style="fill:#E39E92"></path><path d="M266,107.32a11.22,11.22,0,0,0,.87,2.3,6.84,6.84,0,0,0,2.45-1.94h0a21.2,21.2,0,0,0-1.35-2.26A5.39,5.39,0,0,1,266,107.32Z" style="fill:#E39E92"></path><path d="M293.47,114.15a7.25,7.25,0,0,0,2.58,2.92c.36-.76.76-1.5,1.14-2.18a4.12,4.12,0,0,1-1.88-3.58C294.61,112.25,294,113.33,293.47,114.15Z" style="fill:#E39E92"></path><path d="M269.51,114.14l.57,1.28a2.3,2.3,0,0,0,1.47-.51c.95-.81,1-2.33.92-3.47a2.76,2.76,0,0,0,2.52.25c1.11-.52,1.55-1.93,1.73-3a3.35,3.35,0,0,0,2.9,1,3.86,3.86,0,0,0,2.37-2.18,3.6,3.6,0,0,0,2.44,1.67,4.3,4.3,0,0,0,2.82-.73h0c-.05-.47-.1-.94-.13-1.4a3.63,3.63,0,0,1-2.52.92,2.85,2.85,0,0,1-2-1.72c0,.22-.08.44-.13.68l-.9.11c0,.17-.2-.14-.4-.78-.29.75-.94,2-1.87,2.23s-1.76-.56-2.46-1.31c0,.16,0,.31,0,.44l-1.05.58c-.1-.16-.19-.33-.28-.49-.06.9-.33,2.53-1.14,2.91-.65.31-1.65-.3-2.38-.9q.06.34.15.72l-.53.81c-.23-.28-.44-.55-.63-.82.19.83.47,2.91-.31,3.57A1.45,1.45,0,0,1,269.51,114.14Z" style="fill:#E39E92"></path></g><path d="M266,107.32a11.22,11.22,0,0,0,.87,2.3,7.37,7.37,0,0,0,1,1.53,14.69,14.69,0,0,1,1.68,3l.57,1.28c.67,1.54,1.23,3,1.42,3.52l.08.19c.22,1.23.45,2.27.68,3.17a14.7,14.7,0,0,0,2.83,6c1.75,2.3,9.44,1.46,12.62.57a7.81,7.81,0,0,0,2.63-1.45,12.19,12.19,0,0,0,2.67-3,14.28,14.28,0,0,0,1.68-3.79,22,22,0,0,1,1.36-3.48c.36-.76.76-1.5,1.14-2.18a41.8,41.8,0,0,1,2.66-4.1s-1.1-2.4-3.12-.94a7.31,7.31,0,0,0-1.42,1.46c-.7.94-1.31,2-1.84,2.84-.43.64-.81,1.12-1.17,1.24a2.76,2.76,0,0,1-.67.14l-.06,0-.26,0a3,3,0,0,1-1.44-.25,1.75,1.75,0,0,1-.53-.35.36.36,0,0,1-.13-.12,4.17,4.17,0,0,1-.28-.38,8.36,8.36,0,0,1-1-2.34h0a24.79,24.79,0,0,1-.69-3.72h0c-.05-.47-.1-.94-.13-1.4a31.27,31.27,0,0,1-.11-3.45c0-.82,0-1.7,0-2.58a23.9,23.9,0,0,0-.15-2.46c-.25-2.26-.88-3.94-2.29-3.39s-1.26,1.33-1.23,3.32c0,.7,0,1.53,0,2.53a34.74,34.74,0,0,1-.67,5.22h0c0,.22-.08.44-.13.68l-.9.11c0,.17-.2-.14-.4-.78h0A39.81,39.81,0,0,1,280,101c-.14-.79-.27-1.64-.37-2.49s-.18-1.53-.24-2.3c-.28-3.8-2.76-2.39-3.31-1.2-.32.7-.18,2.26,0,4,.1.84.22,1.71.31,2.54,0,.42.08.82.1,1.21.11,1.59.25,3.24.34,4.38,0,.16,0,.31,0,.44l-1.05.58c-.1-.16-.19-.33-.28-.49h0a27.45,27.45,0,0,1-2-4.46c-.36-1.06-.58-1.92-.77-2.58-.36-1.25-.64-1.84-1.65-1.9s-1.45,1.34-1.36,3a12.54,12.54,0,0,0,.83,3.86h0a5.47,5.47,0,0,0,.31.64,14.14,14.14,0,0,1,1.12,3.43q.06.34.15.72l-.53.81c-.23-.28-.44-.55-.63-.82h0a27.7,27.7,0,0,1-1.77-2.72h0a21.2,21.2,0,0,0-1.35-2.26,1.36,1.36,0,0,0-1.35-.69C265.72,104.87,265.66,106,266,107.32Z" style="fill:none;stroke:#263238;stroke-linecap:round;stroke-linejoin:round"></path><path d="M289.21,114.86s-5.41.4-6.38,5.24" style="fill:none;stroke:#263238;stroke-linecap:round;stroke-linejoin:round"></path><path d="M359.41,143.56s1.44-5.56,3.38-6.22a9.65,9.65,0,0,0-6.65-1.43s1.36-2.95,2.9-2.85c0,0-4-2.07-6.32-1.36,0,0,.93-4.48-1-7.76a3.21,3.21,0,0,1-2.59,1c-1.51-.21-4.84.87-4.84.87s1.72-3.82,4-5c0,0-5.7-1.7-8.86,1.09,0,0,1.06-4,2.73-5a10.51,10.51,0,0,0-8.6,2.71,10.52,10.52,0,0,0-8.08-3.31c1.56,1.24,2.22,5.29,2.22,5.29-2.87-3.09-8.72-2-8.72-2,2.13,1.41,3.47,5.39,3.47,5.39s-3.21-1.41-4.74-1.35a3.18,3.18,0,0,1-2.47-1.25C313,125.46,313.5,130,313.5,130c-2.22-.93-6.42.74-6.42.74,1.53.06,2.6,3.12,2.6,3.12a9.64,9.64,0,0,0-6.75.77c1.86.85,2.75,6.53,2.75,6.53a14.57,14.57,0,0,1-5-1.67c1.43,5.26,13.07,11.09,13.07,11.09l19.16-11.71,17.61,13.29s12.15-4.67,14.08-9.76A14.37,14.37,0,0,1,359.41,143.56Z" style="fill:#263238"></path><path d="M315.17,146.57s1-16.91,16.74-16.91,17.28,16.91,17.28,16.91Z" style="fill:#E39E92"></path><path d="M312.7,165.17s-.71,6.09,1.4,7.85,3.52.47,3.52.47l.14-8.73S313.52,162.12,312.7,165.17Z" style="fill:#fff;stroke:#263238;stroke-linecap:round;stroke-linejoin:round"></path><path d="M353.5,165.17s.7,6.09-1.41,7.85-3.51.47-3.51.47l-.14-8.73S352.68,162.12,353.5,165.17Z" style="fill:#fff;stroke:#263238;stroke-linecap:round;stroke-linejoin:round"></path><path d="M332.73,190.83c-11.72,0-15.94-12-16-24.23,0-14.67,4.56-21.7,16-21.7s16.49,5.71,16.46,20.74C349.17,180.05,344.35,190.83,332.73,190.83Z" style="fill:#fff"></path><g style="clip-path:url(#freepik--clip-path-16--inject-28)"><path d="M348.12,176.21a29.51,29.51,0,0,1-1.43,4.63A5.35,5.35,0,0,1,343,179c-3.07-3.61.62-7.39-2-10.37,0,0-3.52,1.05-4.84-.27s-1.84,1.94-1.84,1.94a8.18,8.18,0,0,1,0-3.43c.43-1.41,2.37-1.24,2.37-1.24s-2.11-2.54-.61-4.56,5.8-3.35,4.92-6a3.39,3.39,0,0,1,1,3.69,5.8,5.8,0,0,1-3.07,2.89c.3-.08,2.9-.71,4.3.36,1.17.89,4-4,4.34-8.52a28.69,28.69,0,0,1,1.61,8.33,4.8,4.8,0,0,1-2.26,1.33c-3.51.71-3.34,1.94-3.34,1.94s-.08,2.17-1.32,2.75c0,0,2.46,3.66,2.15,6.92C344.16,176.39,346.12,176.51,348.12,176.21Z" style="fill:#E39E92"></path><path d="M329.85,170.3s-.53-3.25-1.84-1.94-4.83.27-4.83.27c-2.64,3,1,6.76-2,10.37a5,5,0,0,1-2.1,1.47,30.7,30.7,0,0,1-1.24-4.14c1.21,0,2.09-.44,2-1.55-.3-3.26,2.15-6.92,2.15-6.92-1.23-.58-1.31-2.75-1.31-2.75s.17-1.23-3.35-1.94a3.11,3.11,0,0,1-.41-.11,37.85,37.85,0,0,1,.66-5.5c1,2.9,2.63,5.09,3.44,4.47,1.42-1.07,4-.44,4.3-.36a5.76,5.76,0,0,1-3.06-2.89,3.39,3.39,0,0,1,1-3.69c-.88,2.63,3.42,4,4.92,6s-.62,4.56-.62,4.56,1.93-.17,2.37,1.24A8.18,8.18,0,0,1,329.85,170.3Z" style="fill:#E39E92"></path><path d="M326.56,176.09s-2.32,4.84-.48,6.68,4.84,0,6.9,0,6,1.73,7.25.82,0-7.41-1.93-8.2a15.86,15.86,0,0,1-6,1.23C329.33,176.53,328.19,174.6,326.56,176.09Z" style="fill:#E39E92"></path><path d="M323.12,149.93a7.93,7.93,0,0,1,3.44,4.34c1.25,3.28,2.63,6.44,5.75,6.44s6.4-9.84,10.27-11.24c0,0-2.42-4.46-10.27-4S323.12,149.93,323.12,149.93Z" style="fill:#E39E92"></path><path d="M333,185.32s2.11,4.05,5.56,4.43a13.62,13.62,0,0,1-11.09,0S331.94,189.54,333,185.32Z" style="fill:#E39E92"></path></g><path d="M332.73,190.83c-11.72,0-15.94-12-16-24.23,0-14.67,4.56-21.7,16-21.7s16.49,5.71,16.46,20.74C349.17,180.05,344.35,190.83,332.73,190.83Z" style="fill:none;stroke:#263238;stroke-miterlimit:10"></path><path d="M340.93,165.64c0,1.06-.59,1.93-1.31,1.93s-1.32-.87-1.32-1.93.59-1.94,1.32-1.94S340.93,164.57,340.93,165.64Z" style="fill:#263238"></path><path d="M326.56,165.64c0,1.06-.59,1.93-1.31,1.93s-1.32-.87-1.32-1.93.59-1.94,1.32-1.94S326.56,164.57,326.56,165.64Z" style="fill:#263238"></path><path d="M331.33,169.62c-1.06,1.41-4.34,3,0,4.8" style="fill:none;stroke:#263238;stroke-linecap:round;stroke-linejoin:round"></path><path d="M328.19,177.15s5,2.11,9.49,0c0,0,1.41,3.6.62,4s-9.67,1.23-10.55,0S328.19,177.15,328.19,177.15Z" style="fill:#fff;stroke:#263238;stroke-linecap:round;stroke-linejoin:round"></path><path d="M336.66,164.11s-.08-1.4,2.48-2.58,3.58-3.88,2.57-5.45" style="fill:none;stroke:#263238;stroke-linecap:round;stroke-linejoin:round"></path><path d="M327.45,164.11s-.48-1.7-3.25-3-2.75-3.7-1.89-4.85" style="fill:none;stroke:#263238;stroke-linecap:round;stroke-linejoin:round"></path><path d="M325.25,148.65a8.3,8.3,0,0,0,7.36,4c4.57-.1,7-4.1,7-4.1s6.83,1.19,7.84,7.33a35.64,35.64,0,0,1,0,11.18l1.25,5.64s7.79-7.64,7.77-8.57c-.59-21.8-12.39-32-24.1-32-10.78,0-23.93,11.36-23.71,32,0,2.13,8.24,6.69,8.24,6.69l.9-5.16S316.09,150.29,325.25,148.65Z" style="fill:#263238"></path><path d="M334.23,146.57c1.28-3.33,3.64-8.69.85-11.87" style="fill:none;stroke:#fff;stroke-linecap:round;stroke-linejoin:round"></path><path d="M330.23,149.35s-2.73-12.16-1.09-14.65" style="fill:none;stroke:#fff;stroke-linecap:round;stroke-linejoin:round"></path><path d="M322.31,147.94s-3.76-3.67-4.55-5.91" style="fill:none;stroke:#fff;stroke-linecap:round;stroke-linejoin:round"></path><path d="M342.09,147.94s3.87-4.17,4-7.32" style="fill:none;stroke:#fff;stroke-linecap:round;stroke-linejoin:round"></path><path d="M348.44,152.4s3.63-.4,4.68-1.41" style="fill:none;stroke:#fff;stroke-linecap:round;stroke-linejoin:round"></path><path d="M349.19,161s4.66.57,5.8,2.22" style="fill:none;stroke:#fff;stroke-linecap:round;stroke-linejoin:round"></path><path d="M317.76,153.8s-3.77-.94-6.35,0" style="fill:none;stroke:#fff;stroke-linecap:round;stroke-linejoin:round"></path><path d="M316,164.7a23.66,23.66,0,0,0-4.57.47" style="fill:none;stroke:#fff;stroke-linecap:round;stroke-linejoin:round"></path></g></svg>