<?xml version="1.0" standalone="no"?>
<!DOCTYPE svg PUBLIC "-//W3C//DTD SVG 1.1//EN"
"http://www.w3.org/Graphics/SVG/1.1/DTD/svg11.dtd">

<svg width="455" height="372" view_box="0 0 455 372"
xmlns="http://www.w3.org/2000/svg"
xmlns:link="http://www.w3.org/1999/xlink">\n\n<desc>Généré par Mocodo 2.3.7 le Thu, 03 Sep 2020 04:41:19</desc>

<rect id="frame" x="0" y="0" width="455" height="372" fill="#f7f7f7" stroke="none" stroke-width="0"/>

<!-- Association REPRESENTS -->
<line x1="279" y1="203" x2="398" y2="203" stroke="#9970ab" stroke-width="2"/>
<text x="323" y="220.0" fill="#1b7837" font-family="Verdana" font-size="12">1,N</text>
<line x1="398" y1="77" x2="398" y2="203" stroke="#9970ab" stroke-width="2"/>
<text x="403.0" y="128" fill="#1b7837" font-family="Verdana" font-size="12">1,1</text>
<g id="association-REPRESENTS">
	<path d="M 432 178 a 14 14 90 0 1 14 14 V 203 h -96 V 192 a 14 14 90 0 1 14 -14" fill="#c2a5cf" stroke="#c2a5cf" stroke-width="0"/>
	<path d="M 446 203.0 v 11 a 14 14 90 0 1 -14 14 H 364 a 14 14 90 0 1 -14 -14 V 203.0 H 96" fill="#e7d4e8" stroke="#e7d4e8" stroke-width="0"/>
	<rect x="350" y="178" width="96" height="50" fill="none" rx="14" stroke="#9970ab" stroke-width="2"/>
	<line x1="350" y1="203" x2="446" y2="203" stroke="#9970ab" stroke-width="1"/>
	<text x="357" y="195.7" fill="#000000" font-family="Verdana" font-size="12">REPRESENTS</text>
</g>

<!-- Association BELONGS TO -->
<line x1="160" y1="77" x2="279" y2="77" stroke="#9970ab" stroke-width="2"/>
<text x="204" y="94.0" fill="#1b7837" font-family="Verdana" font-size="12">0,N</text>
<line x1="279" y1="203" x2="279" y2="77" stroke="#9970ab" stroke-width="2"/>
<text x="284.0" y="127" fill="#1b7837" font-family="Verdana" font-size="12">1,1</text>
<g id="association-BELONGS TO">
	<path d="M 313 52 a 14 14 90 0 1 14 14 V 77 h -96 V 66 a 14 14 90 0 1 14 -14" fill="#c2a5cf" stroke="#c2a5cf" stroke-width="0"/>
	<path d="M 327 77.0 v 11 a 14 14 90 0 1 -14 14 H 245 a 14 14 90 0 1 -14 -14 V 77.0 H 96" fill="#e7d4e8" stroke="#e7d4e8" stroke-width="0"/>
	<rect x="231" y="52" width="96" height="50" fill="none" rx="14" stroke="#9970ab" stroke-width="2"/>
	<line x1="231" y1="77" x2="327" y2="77" stroke="#9970ab" stroke-width="1"/>
	<text x="238" y="69.7" fill="#000000" font-family="Verdana" font-size="12">BELONGS TO</text>
</g>

<!-- Association WRITE BY -->
<line x1="47" y1="203" x2="47" y2="329" stroke="#9970ab" stroke-width="2"/>
<text x="52.0" y="296" fill="#1b7837" font-family="Verdana" font-size="12">0,N</text>
<line x1="160" y1="329" x2="47" y2="329" stroke="#9970ab" stroke-width="2"/>
<text x="91" y="346.0" fill="#1b7837" font-family="Verdana" font-size="12">1,1</text>
<g id="association-WRITE BY">
	<path d="M 71 304 a 14 14 90 0 1 14 14 V 329 h -76 V 318 a 14 14 90 0 1 14 -14" fill="#c2a5cf" stroke="#c2a5cf" stroke-width="0"/>
	<path d="M 85 329.0 v 11 a 14 14 90 0 1 -14 14 H 23 a 14 14 90 0 1 -14 -14 V 329.0 H 76" fill="#e7d4e8" stroke="#e7d4e8" stroke-width="0"/>
	<rect x="9" y="304" width="76" height="50" fill="none" rx="14" stroke="#9970ab" stroke-width="2"/>
	<line x1="9" y1="329" x2="85" y2="329" stroke="#9970ab" stroke-width="1"/>
	<text x="16" y="321.7" fill="#000000" font-family="Verdana" font-size="12">WRITE BY</text>
</g>

<!-- Association BELONGS -->
<line x1="279" y1="203" x2="279" y2="329" stroke="#9970ab" stroke-width="2"/>
<text x="284.0" y="288" fill="#1b7837" font-family="Verdana" font-size="12">0,N</text>
<line x1="160" y1="329" x2="279" y2="329" stroke="#9970ab" stroke-width="2"/>
<text x="208" y="346.0" fill="#1b7837" font-family="Verdana" font-size="12">1,1</text>
<g id="association-BELONGS">
	<path d="M 302 304 a 14 14 90 0 1 14 14 V 329 h -74 V 318 a 14 14 90 0 1 14 -14" fill="#c2a5cf" stroke="#c2a5cf" stroke-width="0"/>
	<path d="M 316 329.0 v 11 a 14 14 90 0 1 -14 14 H 256 a 14 14 90 0 1 -14 -14 V 329.0 H 74" fill="#e7d4e8" stroke="#e7d4e8" stroke-width="0"/>
	<rect x="242" y="304" width="74" height="50" fill="none" rx="14" stroke="#9970ab" stroke-width="2"/>
	<line x1="242" y1="329" x2="316" y2="329" stroke="#9970ab" stroke-width="1"/>
	<text x="249" y="321.7" fill="#000000" font-family="Verdana" font-size="12">BELONGS</text>
</g>

<!-- Association FOLLOW -->
<line x1="160" y1="77" x2="47" y2="77" stroke="#9970ab" stroke-width="2"/>
<text x="94" y="94.0" fill="#1b7837" font-family="Verdana" font-size="12">0,N</text>
<line x1="47" y1="203" x2="47" y2="77" stroke="#9970ab" stroke-width="2"/>
<text x="52.0" y="119" fill="#1b7837" font-family="Verdana" font-size="12">0,N</text>
<g id="association-FOLLOW">
	<path d="M 66 52 a 14 14 90 0 1 14 14 V 77 h -66 V 66 a 14 14 90 0 1 14 -14" fill="#c2a5cf" stroke="#c2a5cf" stroke-width="0"/>
	<path d="M 80 77.0 v 11 a 14 14 90 0 1 -14 14 H 28 a 14 14 90 0 1 -14 -14 V 77.0 H 66" fill="#e7d4e8" stroke="#e7d4e8" stroke-width="0"/>
	<rect x="14" y="52" width="66" height="50" fill="none" rx="14" stroke="#9970ab" stroke-width="2"/>
	<line x1="14" y1="77" x2="80" y2="77" stroke="#9970ab" stroke-width="1"/>
	<text x="21" y="69.7" fill="#000000" font-family="Verdana" font-size="12">FOLLOW</text>
</g>

<!-- Association HAS -->
<line x1="47" y1="203" x2="160" y2="203" stroke="#9970ab" stroke-width="2"/>
<text x="86" y="220.0" fill="#1b7837" font-family="Verdana" font-size="12">0,N</text>
<line x1="160" y1="77" x2="160" y2="203" stroke="#9970ab" stroke-width="2"/>
<text x="165.0" y="162" fill="#1b7837" font-family="Verdana" font-size="12">1,1</text>
<g id="association-HAS">
	<path d="M 166 178 a 14 14 90 0 1 14 14 V 203 h -40 V 192 a 14 14 90 0 1 14 -14" fill="#c2a5cf" stroke="#c2a5cf" stroke-width="0"/>
	<path d="M 180 203.0 v 11 a 14 14 90 0 1 -14 14 H 154 a 14 14 90 0 1 -14 -14 V 203.0 H 40" fill="#e7d4e8" stroke="#e7d4e8" stroke-width="0"/>
	<rect x="140" y="178" width="40" height="50" fill="none" rx="14" stroke="#9970ab" stroke-width="2"/>
	<line x1="140" y1="203" x2="180" y2="203" stroke="#9970ab" stroke-width="1"/>
	<text x="147" y="195.7" fill="#000000" font-family="Verdana" font-size="12">HAS</text>
</g>

<!-- Entity COMMENT -->
<g id="entity-COMMENT">
	<g id="frame-COMMENT">
		<rect x="117" y="295" width="86" height="25" fill="#a6dba0" stroke="#a6dba0" stroke-width="0"/>
		<rect x="117" y="320.0" width="86" height="43" fill="#d9f0d3" stroke="#d9f0d3" stroke-width="0"/>
		<rect x="117" y="295" width="86" height="68" fill="none" stroke="#5aae61" stroke-width="2"/>
		<line x1="117" y1="320" x2="203" y2="320" stroke="#5aae61" stroke-width="1"/>
	</g>
	<text x="128" y="312.7" fill="#000000" font-family="Verdana" font-size="12">COMMENT</text>
	<text x="122" y="337.8" fill="#000000" font-family="Verdana" font-size="12">comment_id</text>
	<line x1="122" y1="340" x2="198" y2="340" stroke="#000000" stroke-width="1"/>
	<text x="122" y="354.8" fill="#000000" font-family="Verdana" font-size="12">text</text>
</g>

<!-- Entity PICTURE -->
<g id="entity-PICTURE">
	<g id="frame-PICTURE">
		<rect x="362" y="43" width="72" height="25" fill="#a6dba0" stroke="#a6dba0" stroke-width="0"/>
		<rect x="362" y="68.0" width="72" height="43" fill="#d9f0d3" stroke="#d9f0d3" stroke-width="0"/>
		<rect x="362" y="43" width="72" height="68" fill="none" stroke="#5aae61" stroke-width="2"/>
		<line x1="362" y1="68" x2="434" y2="68" stroke="#5aae61" stroke-width="1"/>
	</g>
	<text x="371" y="60.7" fill="#000000" font-family="Verdana" font-size="12">PICTURE</text>
	<text x="367" y="85.8" fill="#000000" font-family="Verdana" font-size="12">picture_id</text>
	<line x1="367" y1="88" x2="428" y2="88" stroke="#000000" stroke-width="1"/>
	<text x="367" y="102.8" fill="#000000" font-family="Verdana" font-size="12">url</text>
</g>

<!-- Entity TRAVEL -->
<g id="entity-TRAVEL">
	<g id="frame-TRAVEL">
		<rect x="121" y="9" width="78" height="25" fill="#a6dba0" stroke="#a6dba0" stroke-width="0"/>
		<rect x="121" y="34.0" width="78" height="111" fill="#d9f0d3" stroke="#d9f0d3" stroke-width="0"/>
		<rect x="121" y="9" width="78" height="136" fill="none" stroke="#5aae61" stroke-width="2"/>
		<line x1="121" y1="34" x2="199" y2="34" stroke="#5aae61" stroke-width="1"/>
	</g>
	<text x="136" y="26.7" fill="#000000" font-family="Verdana" font-size="12">TRAVEL</text>
	<text x="126" y="51.7" fill="#000000" font-family="Verdana" font-size="12">travel_id</text>
	<line x1="126" y1="54" x2="180" y2="54" stroke="#000000" stroke-width="1"/>
	<text x="126" y="68.7" fill="#000000" font-family="Verdana" font-size="12">title</text>
	<text x="126" y="85.8" fill="#000000" font-family="Verdana" font-size="12">description</text>
	<text x="126" y="102.8" fill="#000000" font-family="Verdana" font-size="12">picture</text>
	<text x="126" y="119.8" fill="#000000" font-family="Verdana" font-size="12">date</text>
	<text x="126" y="136.8" fill="#000000" font-family="Verdana" font-size="12">status</text>
</g>

<!-- Entity USER -->
<g id="entity-USER">
	<g id="frame-USER">
		<rect x="13" y="127" width="68" height="25" fill="#a6dba0" stroke="#a6dba0" stroke-width="0"/>
		<rect x="13" y="152.0" width="68" height="127" fill="#d9f0d3" stroke="#d9f0d3" stroke-width="0"/>
		<rect x="13" y="127" width="68" height="152" fill="none" stroke="#5aae61" stroke-width="2"/>
		<line x1="13" y1="152" x2="81" y2="152" stroke="#5aae61" stroke-width="1"/>
	</g>
	<text x="30" y="144.7" fill="#000000" font-family="Verdana" font-size="12">USER</text>
	<text x="18" y="169.7" fill="#000000" font-family="Verdana" font-size="12">user_id</text>
	<line x1="18" y1="172" x2="64" y2="172" stroke="#000000" stroke-width="1"/>
	<text x="18" y="186.7" fill="#000000" font-family="Verdana" font-size="12">firstname</text>
	<text x="18" y="203.8" fill="#000000" font-family="Verdana" font-size="12">lastname</text>
	<text x="18" y="220.8" fill="#000000" font-family="Verdana" font-size="12">email</text>
	<text x="18" y="237.8" fill="#000000" font-family="Verdana" font-size="12">password</text>
	<text x="18" y="254.8" fill="#000000" font-family="Verdana" font-size="12">role</text>
	<text x="18" y="271.8" fill="#000000" font-family="Verdana" font-size="12">avatar</text>
</g>

<!-- Entity STEP -->
<g id="entity-STEP">
	<g id="frame-STEP">
		<rect x="240" y="135" width="78" height="25" fill="#a6dba0" stroke="#a6dba0" stroke-width="0"/>
		<rect x="240" y="160.0" width="78" height="111" fill="#d9f0d3" stroke="#d9f0d3" stroke-width="0"/>
		<rect x="240" y="135" width="78" height="136" fill="none" stroke="#5aae61" stroke-width="2"/>
		<line x1="240" y1="160" x2="318" y2="160" stroke="#5aae61" stroke-width="1"/>
	</g>
	<text x="263" y="152.7" fill="#000000" font-family="Verdana" font-size="12">STEP</text>
	<text x="245" y="177.7" fill="#000000" font-family="Verdana" font-size="12">step_id</text>
	<line x1="245" y1="180" x2="290" y2="180" stroke="#000000" stroke-width="1"/>
	<text x="245" y="194.7" fill="#000000" font-family="Verdana" font-size="12">description</text>
	<text x="245" y="211.8" fill="#000000" font-family="Verdana" font-size="12">date</text>
	<text x="245" y="228.8" fill="#000000" font-family="Verdana" font-size="12">latitude</text>
	<text x="245" y="245.8" fill="#000000" font-family="Verdana" font-size="12">longitude</text>
	<text x="245" y="262.8" fill="#000000" font-family="Verdana" font-size="12">like</text>
</g>
</svg>