<?xml version="1.0" standalone="no"?>
<!DOCTYPE svg PUBLIC "-//W3C//DTD SVG 1.1//EN"
"http://www.w3.org/Graphics/SVG/1.1/DTD/svg11.dtd">

<svg width="330" height="372" view_box="0 0 330 372"
xmlns="http://www.w3.org/2000/svg"
xmlns:link="http://www.w3.org/1999/xlink">\n\n<desc>Généré par Mocodo 2.3.7 le Wed, 02 Sep 2020 06:52:36</desc>

<rect id="frame" x="0" y="0" width="330" height="372" fill="#f7f7f7" stroke="none" stroke-width="0"/>

<!-- Association BELONGS -->
<line x1="176" y1="304" x2="284" y2="304" stroke="#7fbc41" stroke-width="2"/>
<text x="220" y="321.0" fill="#c51b7d" font-family="Verdana" font-size="12">0,N</text>
<line x1="284" y1="195" x2="284" y2="304" stroke="#7fbc41" stroke-width="2"/>
<text x="289.0" y="246" fill="#c51b7d" font-family="Verdana" font-size="12">1,1</text>
<g id="association-BELONGS">
	<path d="M 307 279 a 14 14 90 0 1 14 14 V 304 h -74 V 293 a 14 14 90 0 1 14 -14" fill="#b8e186" stroke="#b8e186" stroke-width="0"/>
	<path d="M 321 304.0 v 11 a 14 14 90 0 1 -14 14 H 261 a 14 14 90 0 1 -14 -14 V 304.0 H 74" fill="#e6f5d0" stroke="#e6f5d0" stroke-width="0"/>
	<rect x="247" y="279" width="74" height="50" fill="none" rx="14" stroke="#7fbc41" stroke-width="2"/>
	<line x1="247" y1="304" x2="321" y2="304" stroke="#7fbc41" stroke-width="1"/>
	<text x="254" y="296.7" fill="#000000" font-family="Verdana" font-size="12">BELONGS</text>
</g>

<!-- Association FOLLOW -->
<line x1="57" y1="195" x2="57" y2="77" stroke="#7fbc41" stroke-width="2"/>
<text x="62.0" y="136" fill="#c51b7d" font-family="Verdana" font-size="12">0,N</text>
<line x1="176" y1="77" x2="57" y2="77" stroke="#7fbc41" stroke-width="2"/>
<text x="115" y="94.0" fill="#c51b7d" font-family="Verdana" font-size="12">0,N</text>
<g id="association-FOLLOW">
	<path d="M 76 52 a 14 14 90 0 1 14 14 V 77 h -66 V 66 a 14 14 90 0 1 14 -14" fill="#b8e186" stroke="#b8e186" stroke-width="0"/>
	<path d="M 90 77.0 v 11 a 14 14 90 0 1 -14 14 H 38 a 14 14 90 0 1 -14 -14 V 77.0 H 66" fill="#e6f5d0" stroke="#e6f5d0" stroke-width="0"/>
	<rect x="24" y="52" width="66" height="50" fill="none" rx="14" stroke="#7fbc41" stroke-width="2"/>
	<line x1="24" y1="77" x2="90" y2="77" stroke="#7fbc41" stroke-width="1"/>
	<text x="31" y="69.7" fill="#000000" font-family="Verdana" font-size="12">FOLLOW</text>
</g>

<!-- Association HAS -->
<line x1="176" y1="77" x2="176" y2="195" stroke="#7fbc41" stroke-width="2"/>
<text x="181.0" y="162" fill="#c51b7d" font-family="Verdana" font-size="12">0,N</text>
<line x1="57" y1="195" x2="176" y2="195" stroke="#7fbc41" stroke-width="2"/>
<text x="101" y="212.0" fill="#c51b7d" font-family="Verdana" font-size="12">1,1</text>
<g id="association-HAS">
	<path d="M 182 170 a 14 14 90 0 1 14 14 V 195 h -40 V 184 a 14 14 90 0 1 14 -14" fill="#b8e186" stroke="#b8e186" stroke-width="0"/>
	<path d="M 196 195.0 v 11 a 14 14 90 0 1 -14 14 H 170 a 14 14 90 0 1 -14 -14 V 195.0 H 40" fill="#e6f5d0" stroke="#e6f5d0" stroke-width="0"/>
	<rect x="156" y="170" width="40" height="50" fill="none" rx="14" stroke="#7fbc41" stroke-width="2"/>
	<line x1="156" y1="195" x2="196" y2="195" stroke="#7fbc41" stroke-width="1"/>
	<text x="163" y="187.7" fill="#000000" font-family="Verdana" font-size="12">HAS</text>
</g>

<!-- Association BELONGS TO -->
<line x1="57" y1="195" x2="57" y2="304" stroke="#7fbc41" stroke-width="2"/>
<text x="62.0" y="263" fill="#c51b7d" font-family="Verdana" font-size="12">0,N</text>
<line x1="176" y1="304" x2="57" y2="304" stroke="#7fbc41" stroke-width="2"/>
<text x="111" y="321.0" fill="#c51b7d" font-family="Verdana" font-size="12">1,1</text>
<g id="association-BELONGS TO">
	<path d="M 91 279 a 14 14 90 0 1 14 14 V 304 h -96 V 293 a 14 14 90 0 1 14 -14" fill="#b8e186" stroke="#b8e186" stroke-width="0"/>
	<path d="M 105 304.0 v 11 a 14 14 90 0 1 -14 14 H 23 a 14 14 90 0 1 -14 -14 V 304.0 H 96" fill="#e6f5d0" stroke="#e6f5d0" stroke-width="0"/>
	<rect x="9" y="279" width="96" height="50" fill="none" rx="14" stroke="#7fbc41" stroke-width="2"/>
	<line x1="9" y1="304" x2="105" y2="304" stroke="#7fbc41" stroke-width="1"/>
	<text x="16" y="296.7" fill="#000000" font-family="Verdana" font-size="12">BELONGS TO</text>
</g>

<!-- Entity COMMENT -->
<g id="entity-COMMENT">
	<g id="frame-COMMENT">
		<rect x="247" y="161" width="74" height="25" fill="#f1b6da" stroke="#f1b6da" stroke-width="0"/>
		<rect x="247" y="186.0" width="74" height="43" fill="#fde0ef" stroke="#fde0ef" stroke-width="0"/>
		<rect x="247" y="161" width="74" height="68" fill="none" stroke="#de77ae" stroke-width="2"/>
		<line x1="247" y1="186" x2="321" y2="186" stroke="#de77ae" stroke-width="1"/>
	</g>
	<text x="252" y="178.7" fill="#000000" font-family="Verdana" font-size="12">COMMENT</text>
	<text x="252" y="203.8" fill="#000000" font-family="Verdana" font-size="12">text</text>
	<line x1="252" y1="206" x2="277" y2="206" stroke="#000000" stroke-width="1"/>
</g>

<!-- Entity TRAVEL -->
<g id="entity-TRAVEL">
	<g id="frame-TRAVEL">
		<rect x="18" y="144" width="78" height="25" fill="#f1b6da" stroke="#f1b6da" stroke-width="0"/>
		<rect x="18" y="169.0" width="78" height="77" fill="#fde0ef" stroke="#fde0ef" stroke-width="0"/>
		<rect x="18" y="144" width="78" height="102" fill="none" stroke="#de77ae" stroke-width="2"/>
		<line x1="18" y1="169" x2="96" y2="169" stroke="#de77ae" stroke-width="1"/>
	</g>
	<text x="33" y="161.7" fill="#000000" font-family="Verdana" font-size="12">TRAVEL</text>
	<text x="23" y="186.7" fill="#000000" font-family="Verdana" font-size="12">title</text>
	<line x1="23" y1="189" x2="47" y2="189" stroke="#000000" stroke-width="1"/>
	<text x="23" y="203.8" fill="#000000" font-family="Verdana" font-size="12">description</text>
	<text x="23" y="220.8" fill="#000000" font-family="Verdana" font-size="12">date</text>
	<text x="23" y="237.8" fill="#000000" font-family="Verdana" font-size="12">status</text>
</g>

<!-- Entity USER -->
<g id="entity-USER">
	<g id="frame-USER">
		<rect x="142" y="9" width="68" height="25" fill="#f1b6da" stroke="#f1b6da" stroke-width="0"/>
		<rect x="142" y="34.0" width="68" height="111" fill="#fde0ef" stroke="#fde0ef" stroke-width="0"/>
		<rect x="142" y="9" width="68" height="136" fill="none" stroke="#de77ae" stroke-width="2"/>
		<line x1="142" y1="34" x2="210" y2="34" stroke="#de77ae" stroke-width="1"/>
	</g>
	<text x="159" y="26.7" fill="#000000" font-family="Verdana" font-size="12">USER</text>
	<text x="147" y="51.7" fill="#000000" font-family="Verdana" font-size="12">firstname</text>
	<line x1="147" y1="54" x2="205" y2="54" stroke="#000000" stroke-width="1"/>
	<text x="147" y="68.7" fill="#000000" font-family="Verdana" font-size="12">lastname</text>
	<text x="147" y="85.8" fill="#000000" font-family="Verdana" font-size="12">email</text>
	<text x="147" y="102.8" fill="#000000" font-family="Verdana" font-size="12">password</text>
	<text x="147" y="119.8" fill="#000000" font-family="Verdana" font-size="12">role</text>
	<text x="147" y="136.8" fill="#000000" font-family="Verdana" font-size="12">avatar</text>
</g>

<!-- Entity STEP -->
<g id="entity-STEP">
	<g id="frame-STEP">
		<rect x="137" y="245" width="78" height="25" fill="#f1b6da" stroke="#f1b6da" stroke-width="0"/>
		<rect x="137" y="270.0" width="78" height="93" fill="#fde0ef" stroke="#fde0ef" stroke-width="0"/>
		<rect x="137" y="245" width="78" height="118" fill="none" stroke="#de77ae" stroke-width="2"/>
		<line x1="137" y1="270" x2="215" y2="270" stroke="#de77ae" stroke-width="1"/>
	</g>
	<text x="160" y="262.7" fill="#000000" font-family="Verdana" font-size="12">STEP</text>
	<text x="142" y="287.7" fill="#000000" font-family="Verdana" font-size="12">picture</text>
	<line x1="142" y1="290" x2="185" y2="290" stroke="#000000" stroke-width="1"/>
	<text x="142" y="304.8" fill="#000000" font-family="Verdana" font-size="12">description</text>
	<text x="142" y="321.8" fill="#000000" font-family="Verdana" font-size="12">date</text>
	<text x="142" y="338.8" fill="#000000" font-family="Verdana" font-size="12">location</text>
	<text x="142" y="355.8" fill="#000000" font-family="Verdana" font-size="12">like</text>
</g>
</svg>